<?xml version="1.0" encoding="utf-8"?>
<!-- Generator: Adobe Illustrator 16.0.0, SVG Export Plug-In . SVG Version: 6.00 Build 0)  -->
<!DOCTYPE svg PUBLIC "-//W3C//DTD SVG 1.1//EN" "http://www.w3.org/Graphics/SVG/1.1/DTD/svg11.dtd">
<svg version="1.1" id="Layer_1" xmlns="http://www.w3.org/2000/svg" xmlns:xlink="http://www.w3.org/1999/xlink" x="0px" y="0px"
	 width="48px" height="48px" viewBox="0 0 48 48" enable-background="new 0 0 48 48" xml:space="preserve">
<g>
	<g>
		<path fill="#939598" d="M47.988,22.449l-0.225-1.684c-0.525-3.881-1.957-7.481-4.252-10.699c-1.449-2.033-3.199-3.82-5.201-5.314
			c-2.75-2.047-5.762-3.433-8.949-4.119c-0.816-0.178-1.656-0.293-2.4-0.396l-0.232-0.032c-0.277-0.036-0.557-0.073-0.791-0.11
			L25.52,0l-3.072,0.015l-1.676,0.22c-3.338,0.441-6.512,1.586-9.434,3.403c-2.554,1.58-4.768,3.616-6.583,6.049
			c-2.047,2.744-3.436,5.755-4.128,8.952c-0.172,0.812-0.283,1.619-0.388,2.398l-0.152,1.061l-0.085,0.377l0.01,3.083l0.211,1.549
			c0.396,3.246,1.477,6.354,3.212,9.236c1.679,2.791,3.888,5.189,6.566,7.125c2.731,1.969,5.793,3.32,9.098,4.02
			c0.707,0.148,1.41,0.234,2.063,0.311l0.161,0.02c0.242,0.031,0.485,0.061,0.799,0.102L25.457,48l1.65-0.221
			c3.256-0.398,6.363-1.479,9.236-3.209c2.801-1.691,5.197-3.9,7.125-6.568c1.971-2.74,3.326-5.814,4.027-9.137
			c0.141-0.676,0.225-1.361,0.307-2.033c0.033-0.293,0.07-0.59,0.109-0.887l0.086-0.496L47.988,22.449z M32.738,15.131
			c-0.471,1.933-1.479,3.572-2.992,4.872c-1.268,1.094-2.727,1.769-4.338,2.004c-0.62,0.092-1.247,0.151-1.875,0.209l-0.607,0.059
			c-4.152,0.415-7.349,2.379-9.502,5.833c-2.588,4.148-2.788,8.506-0.596,12.955c-0.156-0.104-0.312-0.207-0.465-0.314
			c-2.042-1.428-3.772-3.16-5.145-5.156c-1.068-1.547-1.901-3.188-2.476-4.873c-0.905-2.652-1.268-5.387-1.078-8.127
			c0.125-1.831,0.485-3.601,1.071-5.263c0.984-2.814,2.526-5.323,4.582-7.455c2.129-2.204,4.65-3.868,7.493-4.943
			c2.307-0.869,4.633-1.31,6.913-1.31c0.233,0,0.471,0.005,0.702,0.013c1.808,0.07,3.48,0.689,4.97,1.839
			c1.506,1.165,2.57,2.678,3.162,4.499C33.102,11.653,33.162,13.39,32.738,15.131z M15.121,33.482
			c0.298-1.73,1.034-3.273,2.189-4.584c0.853-0.975,1.883-1.742,3.059-2.283c0.939-0.428,1.969-0.689,3.061-0.773
			c1.509-0.113,3.385-0.258,5.178-0.995c1.857-0.764,3.457-1.898,4.76-3.371c1.064-1.209,1.891-2.597,2.457-4.123
			c0.717-1.939,0.949-3.994,0.693-6.11c-0.188-1.527-0.619-2.957-1.291-4.272c1.09,0.709,2.121,1.547,3.086,2.504
			c2.109,2.099,3.703,4.544,4.734,7.274c0.994,2.618,1.438,5.375,1.32,8.191c-0.088,2.111-0.518,4.201-1.277,6.207
			c-0.896,2.367-2.191,4.514-3.854,6.379c-1.439,1.615-3.098,2.979-4.934,4.055c-1.523,0.895-3.121,1.578-4.752,2.037
			c-1.814,0.512-3.479,0.762-5.077,0.762h-0.148c-2.104-0.02-3.858-0.549-5.36-1.621c-1.798-1.277-3.017-2.998-3.623-5.109
			C14.952,36.295,14.876,34.893,15.121,33.482z"/>
	</g>
	<g>
		<path fill="#939598" d="M25.496,40.826l0.15,0.002c2.76,0,5.094-2.35,5.098-5.131c0-2.838-2.15-5.051-5.008-5.146l-0.17-0.002
			c-2.746,0-4.978,2.195-5.082,4.998c-0.05,1.342,0.434,2.629,1.361,3.631C22.799,40.193,24.088,40.781,25.496,40.826z
			 M25.613,34.141c0.834,0.008,1.535,0.715,1.531,1.547c-0.004,0.83-0.709,1.533-1.539,1.533c-0.841-0.004-1.524-0.695-1.522-1.541
			c0.005-0.85,0.688-1.539,1.522-1.539H25.613z"/>
	</g>
	<g>
		<path fill="#939598" d="M25.518,7.638c-2.714,0-4.974,2.27-5.035,5.06c-0.027,1.359,0.476,2.647,1.417,3.628
			c0.963,0.998,2.27,1.56,3.686,1.585h0.076c2.777,0,5.057-2.275,5.078-5.072C30.764,9.96,28.527,7.724,25.518,7.638z
			 M27.145,12.778c0,0.822-0.715,1.542-1.533,1.542c-0.838,0-1.523-0.693-1.528-1.542c0-0.404,0.164-0.792,0.461-1.091
			c0.292-0.293,0.665-0.454,1.049-0.454h0.008C26.439,11.24,27.145,11.947,27.145,12.778z"/>
	</g>
</g>
</svg>
