<?xml version="1.0" encoding="utf-8"?>
<!-- Generator: Adobe Illustrator 16.0.0, SVG Export Plug-In . SVG Version: 6.00 Build 0)  -->
<!DOCTYPE svg PUBLIC "-//W3C//DTD SVG 1.1//EN" "http://www.w3.org/Graphics/SVG/1.1/DTD/svg11.dtd">
<svg version="1.1" id="Layer_1" xmlns="http://www.w3.org/2000/svg" xmlns:xlink="http://www.w3.org/1999/xlink" x="0px" y="0px"
	 width="24px" height="24px" viewBox="0 0 24 24" enable-background="new 0 0 24 24" xml:space="preserve">
<g>
	<path fill="#DD2020" d="M24,21c0,1.657-1.343,3-3,3H3c-1.657,0-3-1.343-3-3V3c0-1.657,1.343-3,3-3h18c1.657,0,3,1.343,3,3V21z"/>
	<path fill="#FFFFFF" d="M24,20.426C24,22.037,22.657,23,21,23H3c-1.657,0-3-0.963-3-2.574V2.918C0,1.307,1.343,0,3,0h18
		c1.657,0,3,1.307,3,2.918V20.426z"/>
	
		<radialGradient id="SVGID_1_" cx="12" cy="-3.6523" r="12.1286" gradientTransform="matrix(1 0 0 0.9383 0 14.9274)" gradientUnits="userSpaceOnUse">
		<stop  offset="0.5206" style="stop-color:#FFFEFF"/>
		<stop  offset="0.6508" style="stop-color:#FDF8F2"/>
		<stop  offset="0.8895" style="stop-color:#F9EAD1"/>
		<stop  offset="1" style="stop-color:#F7E2BF"/>
	</radialGradient>
	<path fill="url(#SVGID_1_)" d="M24,19.966C24,21.521,22.657,23,21,23H3c-1.657,0-3-1.479-3-3.034V3.077C0,1.522,1.343,0,3,0h18
		c1.657,0,3,1.522,3,3.077V19.966z"/>
	<linearGradient id="SVGID_2_" gradientUnits="userSpaceOnUse" x1="11.9995" y1="0" x2="11.9995" y2="3">
		<stop  offset="0" style="stop-color:#FE6A6A"/>
		<stop  offset="0.2055" style="stop-color:#FC6162"/>
		<stop  offset="0.5472" style="stop-color:#F6474B"/>
		<stop  offset="0.9805" style="stop-color:#ED1E26"/>
		<stop  offset="1" style="stop-color:#ED1C24"/>
	</linearGradient>
	<path fill="url(#SVGID_2_)" d="M20.998,0h-18C1.342,0,0,1.34,0,2.997V3h24V2.997C24,1.34,22.655,0,20.998,0z"/>
	<g>
		<circle fill-rule="evenodd" clip-rule="evenodd" fill="#0E578E" cx="11.998" cy="12.7" r="9"/>
		<ellipse fill-rule="evenodd" clip-rule="evenodd" fill="#FFFFFF" cx="12.772" cy="17.034" rx="1.222" ry="1.23"/>
		<path fill-rule="evenodd" clip-rule="evenodd" fill="#FFFFFF" d="M11.446,8.723c0-0.678,0.547-1.229,1.224-1.229
			c0.675,0,1.222,0.551,1.222,1.229c0.001,0.681-0.547,1.232-1.222,1.232S11.446,9.404,11.446,8.723L11.446,8.723z M9.321,13.933
			c2.708-1.659,6.262,0.727,7.461-3.91c0.992-5.32-4.154-5.72-4.154-5.72C8.24,3.811,2.472,8.122,3.777,14.384
			c1.446,5.784,6.226,6.639,6.226,6.639C7.804,19.638,6.904,15.415,9.321,13.933z"/>
	</g>
	<rect y="3" fill="#C80000" width="24" height="0"/>
	<g>
		<circle fill="#C80000" cx="3.374" cy="1.516" r="0.589"/>
		<g>
			<path fill="#FDFFEF" d="M3.658,1.504L3.115,1.289c0,0,0.341-0.189,0.312-1.027C3.419,0.072,3.244,0,3.244,0h0.358
				c0,0,0.157,0.042,0.157,0.303S3.658,1.504,3.658,1.504z"/>
			<circle fill="#FDFFEF" cx="3.355" cy="1.474" r="0.303"/>
		</g>
		<circle fill="#C80000" cx="5.53" cy="1.516" r="0.589"/>
		<g>
			<path fill="#FDFFEF" d="M5.814,1.504L5.271,1.289c0,0,0.341-0.189,0.312-1.027C5.576,0.072,5.4,0,5.4,0h0.358
				c0,0,0.157,0.042,0.157,0.303S5.814,1.504,5.814,1.504z"/>
			<circle fill="#FDFFEF" cx="5.511" cy="1.474" r="0.303"/>
		</g>
		<circle fill="#C80000" cx="7.686" cy="1.516" r="0.589"/>
		<g>
			<path fill="#FDFFEF" d="M7.971,1.504L7.427,1.289c0,0,0.341-0.189,0.312-1.027C7.732,0.072,7.556,0,7.556,0h0.358
				c0,0,0.157,0.042,0.157,0.303S7.971,1.504,7.971,1.504z"/>
			<circle fill="#FDFFEF" cx="7.667" cy="1.474" r="0.303"/>
		</g>
		<circle fill="#C80000" cx="9.842" cy="1.516" r="0.589"/>
		<g>
			<path fill="#FDFFEF" d="M10.127,1.504L9.583,1.289c0,0,0.341-0.189,0.312-1.027C9.888,0.072,9.712,0,9.712,0h0.358
				c0,0,0.157,0.042,0.157,0.303S10.127,1.504,10.127,1.504z"/>
			<circle fill="#FDFFEF" cx="9.823" cy="1.474" r="0.303"/>
		</g>
		<circle fill="#C80000" cx="11.999" cy="1.516" r="0.589"/>
		<g>
			<path fill="#FDFFEF" d="M12.283,1.504L11.74,1.289c0,0,0.341-0.189,0.312-1.027C12.044,0.072,11.869,0,11.869,0h0.358
				c0,0,0.157,0.042,0.157,0.303S12.283,1.504,12.283,1.504z"/>
			<circle fill="#FDFFEF" cx="11.98" cy="1.474" r="0.303"/>
		</g>
		<circle fill="#C80000" cx="14.155" cy="1.516" r="0.589"/>
		<g>
			<path fill="#FDFFEF" d="M14.439,1.504l-0.544-0.216c0,0,0.342-0.189,0.312-1.027C14.201,0.072,14.025,0,14.025,0h0.357
				c0,0,0.157,0.042,0.157,0.303S14.439,1.504,14.439,1.504z"/>
			<circle fill="#FDFFEF" cx="14.136" cy="1.474" r="0.304"/>
		</g>
		<circle fill="#C80000" cx="16.311" cy="1.516" r="0.589"/>
		<g>
			<path fill="#FDFFEF" d="M16.596,1.504l-0.544-0.216c0,0,0.342-0.189,0.312-1.027C16.357,0.072,16.182,0,16.182,0h0.357
				c0,0,0.157,0.042,0.157,0.303S16.596,1.504,16.596,1.504z"/>
			<circle fill="#FDFFEF" cx="16.292" cy="1.474" r="0.304"/>
		</g>
		<circle fill="#C80000" cx="18.467" cy="1.516" r="0.589"/>
		<g>
			<path fill="#FDFFEF" d="M18.752,1.504l-0.544-0.216c0,0,0.342-0.189,0.312-1.027C18.514,0.072,18.338,0,18.338,0h0.357
				c0,0,0.157,0.042,0.157,0.303S18.752,1.504,18.752,1.504z"/>
			<circle fill="#FDFFEF" cx="18.448" cy="1.474" r="0.304"/>
		</g>
		<circle fill="#C80000" cx="20.624" cy="1.516" r="0.589"/>
		<g>
			<path fill="#FDFFEF" d="M20.908,1.504l-0.544-0.216c0,0,0.342-0.189,0.312-1.027C20.67,0.072,20.494,0,20.494,0h0.357
				c0,0,0.157,0.042,0.157,0.303S20.908,1.504,20.908,1.504z"/>
			<circle fill="#FDFFEF" cx="20.604" cy="1.474" r="0.304"/>
		</g>
	</g>
	<g>
		<rect x="0.422" y="2.672" fill="#F6C0A9" width="0.703" height="0.141"/>
		<rect x="1.594" y="2.672" fill="#F6C0A9" width="0.75" height="0.141"/>
		<rect x="2.766" y="2.672" fill="#F6C0A9" width="0.703" height="0.141"/>
		<rect x="3.938" y="2.672" fill="#F6C0A9" width="0.703" height="0.141"/>
		<rect x="5.109" y="2.672" fill="#F6C0A9" width="0.703" height="0.141"/>
		<rect x="6.281" y="2.672" fill="#F6C0A9" width="0.703" height="0.141"/>
		<rect x="7.453" y="2.672" fill="#F6C0A9" width="0.75" height="0.141"/>
		<rect x="8.625" y="2.672" fill="#F6C0A9" width="0.703" height="0.141"/>
		<rect x="9.75" y="2.672" fill="#F6C0A9" width="0.75" height="0.141"/>
		<rect x="10.969" y="2.672" fill="#F6C0A9" width="0.703" height="0.141"/>
		<rect x="12.141" y="2.672" fill="#F6C0A9" width="0.703" height="0.141"/>
		<rect x="13.313" y="2.672" fill="#F6C0A9" width="0.75" height="0.141"/>
		<rect x="14.484" y="2.672" fill="#F6C0A9" width="0.703" height="0.141"/>
		<rect x="15.609" y="2.672" fill="#F6C0A9" width="0.75" height="0.141"/>
		<rect x="16.828" y="2.672" fill="#F6C0A9" width="0.703" height="0.141"/>
		<rect x="18" y="2.672" fill="#F6C0A9" width="0.703" height="0.141"/>
		<rect x="19.172" y="2.672" fill="#F6C0A9" width="0.703" height="0.141"/>
		<rect x="20.344" y="2.672" fill="#F6C0A9" width="0.703" height="0.141"/>
		<rect x="21.469" y="2.672" fill="#F6C0A9" width="0.75" height="0.141"/>
		<rect x="22.688" y="2.672" fill="#F6C0A9" width="0.703" height="0.141"/>
	</g>
	<g>
		<path fill-rule="evenodd" clip-rule="evenodd" fill="#FFFFFF" d="M9.22,23l-6.831-5.439c0,0,0.985,1.699-0.859,2.359
			c0,0-0.921,0.265-1.53-0.666v0.873C0,21.643,1.342,23,2.999,23H9.22z"/>
		<linearGradient id="SVGID_3_" gradientUnits="userSpaceOnUse" x1="6.1216" y1="19.748" x2="5.0726" y2="21.5649">
			<stop  offset="0.0206" style="stop-color:#FFFFFF"/>
			<stop  offset="0.0608" style="stop-color:#FFFFFF"/>
			<stop  offset="0.2938" style="stop-color:#FFFFFF"/>
			<stop  offset="0.3618" style="stop-color:#F9F9F9"/>
			<stop  offset="0.4559" style="stop-color:#E7E7E7"/>
			<stop  offset="0.5567" style="stop-color:#CCCCCC"/>
			<stop  offset="0.6117" style="stop-color:#D3D3D3"/>
			<stop  offset="0.6902" style="stop-color:#E6E6E6"/>
			<stop  offset="0.7629" style="stop-color:#FDFDFD"/>
			<stop  offset="0.886" style="stop-color:#FBFBFB"/>
			<stop  offset="0.9303" style="stop-color:#F4F4F4"/>
			<stop  offset="0.9619" style="stop-color:#E9E9E9"/>
			<stop  offset="0.9872" style="stop-color:#D8D8D8"/>
			<stop  offset="1" style="stop-color:#CCCCCC"/>
		</linearGradient>
		<path fill-rule="evenodd" clip-rule="evenodd" fill="url(#SVGID_3_)" d="M1.945,19.759L9.111,23H9.22l-6.831-5.407
			C2.389,17.593,3.004,19.021,1.945,19.759z"/>
	</g>
	<g>
		<path fill="#EB2222" d="M2.033,21.319h0.2c0.076,0,0.132-0.023,0.167-0.071c0.035-0.048,0.053-0.111,0.053-0.19
			c0-0.076-0.018-0.136-0.055-0.178c-0.037-0.043-0.086-0.064-0.147-0.064c-0.058,0-0.104,0.021-0.141,0.061
			s-0.055,0.091-0.055,0.152H1.643c0-0.1,0.025-0.189,0.077-0.269c0.051-0.079,0.123-0.141,0.215-0.186
			c0.092-0.045,0.194-0.066,0.306-0.066c0.196,0,0.349,0.048,0.46,0.146c0.111,0.097,0.167,0.229,0.167,0.398
			c0,0.087-0.025,0.167-0.075,0.241s-0.116,0.131-0.198,0.17c0.101,0.038,0.175,0.097,0.225,0.173
			c0.049,0.077,0.074,0.168,0.074,0.273c0,0.17-0.06,0.306-0.181,0.408c-0.12,0.103-0.278,0.153-0.474,0.153
			c-0.182,0-0.33-0.051-0.444-0.151c-0.113-0.102-0.17-0.233-0.17-0.398h0.414c0,0.068,0.02,0.125,0.06,0.172
			c0.04,0.047,0.09,0.069,0.152,0.069c0.071,0,0.127-0.023,0.169-0.07c0.041-0.048,0.062-0.11,0.062-0.189
			c0-0.188-0.082-0.282-0.244-0.283H2.033V21.319z"/>
		<path fill="#EB2222" d="M4.416,21.654c0,0.265-0.053,0.467-0.16,0.606c-0.106,0.14-0.259,0.21-0.457,0.21
			c-0.196,0-0.347-0.067-0.454-0.204c-0.106-0.136-0.162-0.331-0.166-0.585v-0.36c0-0.264,0.053-0.465,0.159-0.604
			c0.106-0.14,0.259-0.209,0.458-0.209s0.351,0.068,0.458,0.207c0.106,0.138,0.16,0.335,0.162,0.592V21.654z M4,21.268
			c0-0.15-0.017-0.264-0.05-0.339s-0.085-0.113-0.155-0.113c-0.132,0-0.2,0.138-0.205,0.414v0.477c0,0.153,0.017,0.269,0.05,0.344
			s0.086,0.112,0.157,0.112c0.067,0,0.117-0.035,0.15-0.105c0.032-0.07,0.05-0.178,0.052-0.323V21.268z"/>
	</g>
</g>
</svg>
