<?xml version="1.0" encoding="utf-8"?>
<!-- Generator: Adobe Illustrator 16.0.0, SVG Export Plug-In . SVG Version: 6.00 Build 0)  -->
<!DOCTYPE svg PUBLIC "-//W3C//DTD SVG 1.1//EN" "http://www.w3.org/Graphics/SVG/1.1/DTD/svg11.dtd">
<svg version="1.1" id="Layer_1" xmlns="http://www.w3.org/2000/svg" xmlns:xlink="http://www.w3.org/1999/xlink" x="0px" y="0px"
	 width="100px" height="34.167px" viewBox="0 0 100 34.167" enable-background="new 0 0 100 34.167" xml:space="preserve">
<g>
	<path fill="#818080" d="M100,29.019c0,2.441-1.979,4.42-4.42,4.42H4.42c-2.441,0-4.42-1.979-4.42-4.42V5.148
		c0-2.44,1.979-4.42,4.42-4.42h91.16c2.441,0,4.42,1.979,4.42,4.42V29.019z"/>
	<g>
		<path fill="#FFFFFF" d="M25.71,9.539l-0.495,1.499h-0.637l1.62-4.768h0.743l1.626,4.768H27.91l-0.509-1.499H25.71z M27.273,9.058
			l-0.474-1.373c-0.099-0.312-0.17-0.594-0.24-0.869h-0.021c-0.064,0.275-0.142,0.573-0.234,0.862l-0.467,1.38H27.273z"/>
		<path fill="#FFFFFF" d="M29.205,7.615l0.671,1.917c0.113,0.317,0.206,0.601,0.276,0.884h0.021c0.078-0.283,0.177-0.566,0.29-0.884
			l0.665-1.917h0.651l-1.344,3.423h-0.595l-1.3-3.423H29.205z"/>
		<path fill="#FFFFFF" d="M34.644,10.218c0,0.296,0.015,0.586,0.05,0.819h-0.559l-0.057-0.431h-0.021
			c-0.184,0.269-0.559,0.509-1.047,0.509c-0.693,0-1.046-0.487-1.046-0.983c0-0.827,0.736-1.28,2.058-1.273v-0.07
			c0-0.282-0.078-0.8-0.778-0.792c-0.326,0-0.658,0.092-0.898,0.254l-0.142-0.417c0.284-0.177,0.701-0.297,1.132-0.297
			c1.055,0,1.309,0.714,1.309,1.401V10.218z M34.036,9.291c-0.679-0.014-1.45,0.106-1.45,0.771c0,0.41,0.269,0.595,0.58,0.595
			c0.453,0,0.743-0.284,0.842-0.573c0.021-0.064,0.028-0.135,0.028-0.198V9.291z"/>
		<path fill="#FFFFFF" d="M35.902,6.985c-0.232,0-0.388-0.184-0.388-0.403s0.163-0.396,0.403-0.396c0.241,0,0.396,0.176,0.396,0.396
			s-0.155,0.403-0.402,0.403H35.902z M35.606,11.038V7.615h0.623v3.423H35.606z"/>
		<path fill="#FFFFFF" d="M37.226,6.016h0.623v5.021h-0.623V6.016z"/>
		<path fill="#FFFFFF" d="M41.258,10.218c0,0.296,0.014,0.586,0.049,0.819h-0.559l-0.057-0.431H40.67
			c-0.184,0.269-0.559,0.509-1.047,0.509c-0.692,0-1.047-0.487-1.047-0.983c0-0.827,0.736-1.28,2.059-1.273v-0.07
			c0-0.282-0.078-0.8-0.778-0.792c-0.325,0-0.658,0.092-0.897,0.254l-0.142-0.417c0.282-0.177,0.7-0.297,1.132-0.297
			c1.054,0,1.309,0.714,1.309,1.401V10.218z M40.649,9.291c-0.68-0.014-1.451,0.106-1.451,0.771c0,0.41,0.27,0.595,0.581,0.595
			c0.453,0,0.742-0.284,0.842-0.573c0.021-0.064,0.028-0.135,0.028-0.198V9.291z"/>
		<path fill="#FFFFFF" d="M42.219,6.016h0.622v2.143h0.015c0.22-0.381,0.615-0.622,1.167-0.622c0.849,0,1.443,0.707,1.443,1.74
			c0,1.23-0.778,1.839-1.542,1.839c-0.495,0-0.885-0.191-1.146-0.644h-0.016l-0.035,0.565h-0.536
			c0.021-0.233,0.027-0.579,0.027-0.884V6.016z M42.841,9.667c0,0.077,0.008,0.154,0.022,0.226c0.119,0.432,0.488,0.729,0.934,0.729
			c0.657,0,1.039-0.53,1.039-1.315c0-0.693-0.354-1.28-1.019-1.28c-0.424,0-0.82,0.297-0.94,0.764
			c-0.021,0.078-0.036,0.163-0.036,0.262V9.667z"/>
		<path fill="#FFFFFF" d="M46.208,6.016h0.622v5.021h-0.622V6.016z"/>
		<path fill="#FFFFFF" d="M48.181,9.432c0.015,0.842,0.545,1.188,1.168,1.188c0.445,0,0.721-0.078,0.947-0.17l0.113,0.438
			c-0.219,0.099-0.602,0.22-1.146,0.22c-1.046,0-1.683-0.7-1.683-1.727c0-1.039,0.615-1.853,1.613-1.853
			c1.116,0,1.407,0.983,1.407,1.612c0,0.127-0.008,0.227-0.021,0.297L48.181,9.432z M49.999,8.987
			c0.007-0.389-0.163-1.012-0.856-1.012c-0.636,0-0.905,0.58-0.955,1.012H49.999z"/>
		<path fill="#FFFFFF" d="M54.193,11.116c-0.92,0-1.642-0.679-1.642-1.761c0-1.146,0.758-1.818,1.698-1.818
			c0.982,0,1.647,0.714,1.647,1.754c0,1.273-0.885,1.825-1.697,1.825H54.193z M54.214,10.649c0.595,0,1.04-0.559,1.04-1.337
			c0-0.58-0.29-1.309-1.025-1.309c-0.729,0-1.047,0.679-1.047,1.33c0,0.75,0.424,1.315,1.025,1.315H54.214z"/>
		<path fill="#FFFFFF" d="M56.647,8.542c0-0.361-0.008-0.644-0.029-0.927h0.553l0.035,0.559h0.014
			c0.17-0.318,0.566-0.637,1.132-0.637c0.474,0,1.211,0.283,1.211,1.457v2.044h-0.624V9.064c0-0.551-0.205-1.019-0.792-1.019
			c-0.403,0-0.722,0.291-0.835,0.637c-0.028,0.078-0.042,0.191-0.042,0.29v2.065h-0.622V8.542z"/>
		<path fill="#FFFFFF" d="M62.751,6.794v0.82h0.891v0.474h-0.891v1.846c0,0.425,0.12,0.665,0.466,0.665
			c0.171,0,0.271-0.014,0.362-0.042l0.027,0.474c-0.119,0.042-0.311,0.085-0.551,0.085c-0.291,0-0.524-0.099-0.673-0.262
			c-0.17-0.19-0.24-0.495-0.24-0.898V8.088h-0.53V7.615h0.53v-0.63L62.751,6.794z"/>
		<path fill="#FFFFFF" d="M64.307,6.016h0.622v2.136h0.014c0.1-0.177,0.255-0.339,0.446-0.438c0.185-0.113,0.403-0.177,0.637-0.177
			c0.46,0,1.195,0.283,1.195,1.464v2.037h-0.622V9.072c0-0.559-0.205-1.019-0.793-1.019c-0.402,0-0.714,0.283-0.834,0.622
			c-0.035,0.085-0.043,0.177-0.043,0.297v2.065h-0.622V6.016z"/>
		<path fill="#FFFFFF" d="M68.55,9.432c0.015,0.842,0.545,1.188,1.167,1.188c0.446,0,0.722-0.078,0.949-0.17l0.112,0.438
			c-0.22,0.099-0.602,0.22-1.146,0.22c-1.046,0-1.683-0.7-1.683-1.727c0-1.039,0.615-1.853,1.612-1.853
			c1.117,0,1.408,0.983,1.408,1.612c0,0.127-0.007,0.227-0.021,0.297L68.55,9.432z M70.368,8.987
			c0.006-0.389-0.163-1.012-0.856-1.012c-0.636,0-0.905,0.58-0.954,1.012H70.368z"/>
		<path fill="#FFFFFF" d="M73.467,6.985c-0.234,0-0.391-0.184-0.391-0.403s0.163-0.396,0.404-0.396c0.24,0,0.396,0.176,0.396,0.396
			s-0.155,0.403-0.404,0.403H73.467z M73.169,11.038V7.615h0.622v3.423H73.169z"/>
		<path fill="#FFFFFF" d="M74.81,6.334c0.297-0.057,0.686-0.1,1.182-0.1c0.607,0,1.054,0.142,1.336,0.396
			c0.262,0.227,0.425,0.573,0.425,0.997c0,0.432-0.128,0.771-0.375,1.019C77.052,8.994,76.521,9.17,75.92,9.17
			c-0.184,0-0.354-0.007-0.495-0.042v1.909H74.81V6.334z M75.425,8.625c0.134,0.035,0.312,0.05,0.51,0.05
			c0.749,0,1.195-0.367,1.195-1.012c0-0.636-0.446-0.94-1.125-0.94c-0.269,0-0.474,0.028-0.58,0.05V8.625z"/>
		<path fill="#FFFFFF" d="M78.48,6.016h0.623v2.136h0.014c0.1-0.177,0.255-0.339,0.445-0.438c0.185-0.113,0.404-0.177,0.637-0.177
			c0.46,0,1.195,0.283,1.195,1.464v2.037h-0.622V9.072c0-0.559-0.205-1.019-0.792-1.019c-0.403,0-0.714,0.283-0.835,0.622
			c-0.035,0.085-0.042,0.177-0.042,0.297v2.065H78.48V6.016z"/>
		<path fill="#FFFFFF" d="M83.765,11.116c-0.92,0-1.642-0.679-1.642-1.761c0-1.146,0.757-1.818,1.698-1.818
			c0.982,0,1.647,0.714,1.647,1.754c0,1.273-0.884,1.825-1.697,1.825H83.765z M83.786,10.649c0.593,0,1.039-0.559,1.039-1.337
			c0-0.58-0.29-1.309-1.025-1.309c-0.729,0-1.048,0.679-1.048,1.33c0,0.75,0.425,1.315,1.026,1.315H83.786z"/>
		<path fill="#FFFFFF" d="M86.219,8.542c0-0.361-0.008-0.644-0.028-0.927h0.552l0.035,0.559h0.015
			c0.17-0.318,0.565-0.637,1.131-0.637c0.474,0,1.209,0.283,1.209,1.457v2.044h-0.621V9.064c0-0.551-0.206-1.019-0.793-1.019
			c-0.403,0-0.721,0.291-0.834,0.637c-0.028,0.078-0.044,0.191-0.044,0.29v2.065h-0.621V8.542z"/>
		<path fill="#FFFFFF" d="M90.462,9.432c0.015,0.842,0.545,1.188,1.167,1.188c0.445,0,0.722-0.078,0.948-0.17l0.113,0.438
			c-0.22,0.099-0.602,0.22-1.146,0.22c-1.046,0-1.684-0.7-1.684-1.727c0-1.039,0.616-1.853,1.613-1.853
			c1.117,0,1.407,0.983,1.407,1.612c0,0.127-0.007,0.227-0.021,0.297L90.462,9.432z M92.28,8.987
			c0.007-0.389-0.163-1.012-0.856-1.012c-0.637,0-0.905,0.58-0.955,1.012H92.28z"/>
	</g>
	<g>
		<path fill="#FFFFFF" d="M28.641,14.267l-4.194,12.345h1.921l1.252-3.791h4.061l1.288,3.791h1.973l-4.212-12.345H28.641z
			 M29.636,16.297c0.142,0.551,0.294,1.123,0.49,1.741l1.13,3.273h-3.216l1.115-3.295C29.325,17.483,29.486,16.906,29.636,16.297z"
			/>
		<path fill="#FFFFFF" d="M40.369,17.467c-1.272,0-2.291,0.491-2.97,1.424l-0.074-1.228h-1.708l0.01,0.157
			c0.05,0.764,0.071,1.608,0.071,2.817v9.516h1.867v-4.441c0.58,0.693,1.505,1.098,2.554,1.098c1.092,0,2.097-0.428,2.83-1.203
			c0.818-0.865,1.25-2.109,1.25-3.594c0-1.313-0.375-2.447-1.086-3.279C42.418,17.917,41.443,17.467,40.369,17.467z M39.903,19.013
			c1.665,0,2.41,1.543,2.41,3.072c0,1.971-0.95,3.195-2.48,3.195c-1.045,0-1.949-0.711-2.201-1.732
			c-0.043-0.158-0.066-0.369-0.066-0.605V21.44c0-0.135,0.031-0.301,0.06-0.461c0.01-0.051,0.02-0.102,0.027-0.152
			C37.931,19.759,38.855,19.013,39.903,19.013z"/>
		<path fill="#FFFFFF" d="M49.987,17.467c-1.272,0-2.291,0.491-2.97,1.424l-0.074-1.228h-1.708l0.009,0.157
			c0.051,0.766,0.072,1.608,0.072,2.817v9.516h1.868v-4.441c0.579,0.693,1.504,1.098,2.552,1.098c1.093,0,2.098-0.428,2.832-1.203
			c0.817-0.865,1.249-2.109,1.249-3.594c0-1.313-0.375-2.447-1.086-3.279C52.036,17.917,51.062,17.467,49.987,17.467z
			 M49.522,19.013c1.664,0,2.409,1.543,2.409,3.072c0,1.971-0.951,3.195-2.481,3.195c-1.044,0-1.948-0.711-2.2-1.732
			c-0.043-0.158-0.065-0.369-0.065-0.605V21.44c0-0.137,0.029-0.303,0.06-0.463c0.009-0.049,0.019-0.1,0.026-0.15
			C47.549,19.759,48.474,19.013,49.522,19.013z"/>
		<path fill="#FFFFFF" d="M62.036,19.499c-1.743-0.676-2.302-1.207-2.302-2.188c0-0.826,0.656-1.658,2.123-1.658
			c1.211,0,1.985,0.421,2.193,0.55l0.158,0.098l0.527-1.559l-0.104-0.062c-0.313-0.183-1.204-0.609-2.72-0.609
			c-2.383,0-4.046,1.406-4.046,3.419c0,1.623,1.042,2.757,3.278,3.57c1.585,0.594,2.175,1.201,2.175,2.24
			c0,1.178-0.91,1.908-2.374,1.908c-0.953,0-1.935-0.277-2.691-0.762l-0.162-0.105l-0.502,1.596l0.093,0.061
			c0.704,0.471,2.032,0.813,3.156,0.813c3.21,0,4.349-1.959,4.349-3.635C65.188,21.446,64.274,20.382,62.036,19.499z"/>
		<path fill="#FFFFFF" d="M68.55,15.538l-1.832,0.574v1.552h-1.341v1.494h1.341v4.572c0,1.105,0.211,1.881,0.646,2.369
			c0.417,0.459,1.06,0.711,1.807,0.711c0.707,0,1.208-0.141,1.444-0.225l0.104-0.037l-0.09-1.494l-0.179,0.055
			c-0.236,0.072-0.479,0.1-0.869,0.1c-0.724,0-1.032-0.457-1.032-1.533v-4.518h2.253v-1.494H68.55V15.538z"/>
		<path fill="#FFFFFF" d="M75.432,17.467c-2.613,0-4.438,1.952-4.438,4.743c0,2.707,1.766,4.6,4.295,4.6h0.018
			c2.138,0,4.438-1.49,4.438-4.76c0-1.33-0.411-2.473-1.19-3.305C77.771,17.909,76.69,17.467,75.432,17.467z M75.378,18.942
			c1.68,0,2.444,1.637,2.444,3.16c0,1.873-1.043,3.232-2.48,3.232h-0.018c-1.417,0-2.445-1.338-2.445-3.178
			C72.879,20.558,73.651,18.942,75.378,18.942z"/>
		<path fill="#FFFFFF" d="M85.465,17.554l-0.111-0.028c-0.165-0.041-0.3-0.059-0.465-0.059c-0.978,0-1.854,0.575-2.342,1.504
			l-0.056-1.308h-1.676l0.011,0.157c0.05,0.739,0.07,1.569,0.07,2.69l-0.018,6.102h1.868v-4.76c0-0.26,0.019-0.504,0.052-0.725
			c0.211-1.143,0.982-1.883,1.965-1.883c0.191,0,0.342,0.016,0.502,0.031l0.199,0.021V17.554z"/>
		<path fill="#FFFFFF" d="M89.665,17.45c-2.487,0-4.224,1.987-4.224,4.831c0,2.74,1.728,4.51,4.401,4.51
			c1.406,0,2.385-0.309,2.958-0.566l0.112-0.051l-0.358-1.393l-0.156,0.064c-0.51,0.207-1.186,0.418-2.341,0.418
			c-0.812,0-2.683-0.268-2.798-2.709l6.029,0.02l0.024-0.119c0.038-0.191,0.057-0.447,0.057-0.781
			C93.37,19.726,92.399,17.45,89.665,17.45z M89.54,18.87c0.568,0,1.03,0.176,1.371,0.523c0.537,0.547,0.632,1.352,0.643,1.738
			h-4.259C87.468,20.054,88.143,18.87,89.54,18.87z"/>
	</g>
	<path fill="#FFFFFF" d="M17.171,6.004H9.025c-0.976,0-1.768,0.791-1.768,1.768v18.045c0,0.979,0.792,1.77,1.768,1.77h8.146
		c0.977,0,1.769-0.791,1.769-1.77V7.772C18.939,6.795,18.147,6.004,17.171,6.004z M11.608,7.292c0-0.062,0.049-0.111,0.111-0.111
		h2.76c0.061,0,0.111,0.05,0.111,0.111v0.169c0,0.062-0.05,0.111-0.111,0.111h-2.76c-0.062,0-0.111-0.05-0.111-0.111V7.292z
		 M13.099,26.847c-0.612,0-1.108-0.496-1.108-1.107c0-0.613,0.496-1.109,1.108-1.109c0.612,0,1.108,0.496,1.108,1.109
		C14.207,26.351,13.71,26.847,13.099,26.847z M17.921,24.013H8.276V9.284h9.646V24.013z"/>
</g>
</svg>
