<?xml version="1.0" encoding="utf-8"?>
<!-- Generator: Adobe Illustrator 16.0.0, SVG Export Plug-In . SVG Version: 6.00 Build 0)  -->
<!DOCTYPE svg PUBLIC "-//W3C//DTD SVG 1.1//EN" "http://www.w3.org/Graphics/SVG/1.1/DTD/svg11.dtd">
<svg version="1.1" id="Layer_1" xmlns="http://www.w3.org/2000/svg" xmlns:xlink="http://www.w3.org/1999/xlink" x="0px" y="0px"
	 width="48px" height="48px" viewBox="0 0 48 48" enable-background="new 0 0 48 48" xml:space="preserve">
<g>
	<g>
		<g>
			<g>
				<path fill="#939598" d="M24.752,36.367l-1.738-0.041c-0.153-0.025-0.314-0.045-0.473-0.064
					c-0.357-0.041-0.714-0.084-1.064-0.158c-1.706-0.359-3.284-1.059-4.688-2.07c-1.378-0.998-2.517-2.23-3.384-3.672
					c-0.893-1.484-1.45-3.082-1.654-4.758c-0.022-0.18-0.049-0.365-0.074-0.551l-0.038-0.274l-0.002-1.545l0.009-0.04
					c0.021-0.086,0.026-0.114,0.031-0.143c0.029-0.19,0.056-0.383,0.082-0.571c0.057-0.419,0.113-0.835,0.201-1.246
					c0.355-1.642,1.07-3.192,2.125-4.608c0.935-1.252,2.076-2.301,3.392-3.117c1.505-0.934,3.139-1.524,4.86-1.752l0.887-0.117
					l1.546-0.006l0.182,0.042c0.189,0.03,0.383,0.055,0.572,0.081c0.416,0.058,0.834,0.115,1.243,0.205
					c1.641,0.353,3.19,1.067,4.607,2.121c1.029,0.766,1.931,1.688,2.681,2.738c1.183,1.657,1.92,3.514,2.191,5.512l0.118,0.893
					l0.003,1.542l-0.021,0.098c-0.009,0.041-0.019,0.081-0.023,0.121c-0.021,0.161-0.04,0.317-0.058,0.475
					c-0.043,0.35-0.085,0.701-0.158,1.047c-0.361,1.713-1.059,3.295-2.074,4.707c-0.994,1.379-2.23,2.516-3.672,3.387
					c-1.479,0.889-3.079,1.447-4.757,1.65L24.752,36.367z M21.207,35.281c0.14,0.037,0.281,0.07,0.423,0.1
					c0.052,0.008,0.104,0.02,0.153,0.027c-0.221-0.09-0.435-0.197-0.641-0.313L21.207,35.281z M28.91,14.02
					c0.766,0.943,1.23,2.041,1.379,3.268c0.129,1.068,0.012,2.101-0.348,3.076c-0.284,0.768-0.7,1.465-1.237,2.076
					c-0.65,0.736-1.455,1.307-2.395,1.694c-0.888,0.365-1.818,0.439-2.637,0.501c-0.622,0.048-1.206,0.198-1.737,0.44
					c-0.666,0.307-1.25,0.742-1.734,1.291c-0.652,0.744-1.07,1.617-1.239,2.598c-0.137,0.795-0.095,1.592,0.126,2.357
					c0.344,1.193,1.033,2.166,2.05,2.889c0.853,0.609,1.846,0.908,3.032,0.92h0.078c0.881,0,1.791-0.135,2.785-0.414
					c0.889-0.25,1.762-0.623,2.595-1.113c1.004-0.59,1.91-1.334,2.694-2.215c0.905-1.014,1.613-2.188,2.104-3.482
					c0.415-1.096,0.65-2.238,0.698-3.394c0.063-1.534-0.179-3.039-0.72-4.473c-0.565-1.494-1.437-2.829-2.587-3.971
					c-0.839-0.833-1.769-1.498-2.767-1.98C29.005,14.067,28.957,14.042,28.91,14.02z M23.854,12.869
					c-1.251,0-2.522,0.242-3.78,0.717c-1.552,0.586-2.93,1.494-4.093,2.7c-1.122,1.162-1.965,2.532-2.503,4.07
					c-0.321,0.912-0.518,1.878-0.585,2.875c-0.104,1.5,0.095,2.992,0.588,4.435c0.313,0.924,0.769,1.822,1.354,2.668
					c0.751,1.09,1.696,2.037,2.81,2.814c0.463,0.324,0.954,0.611,1.464,0.857c-0.26-0.316-0.481-0.656-0.664-1.014
					c-1.161-2.283-1.078-4.512,0.245-6.635c1.082-1.736,2.688-2.722,4.776-2.93l0.321-0.032c0.336-0.03,0.674-0.063,1.009-0.112
					c0.918-0.135,1.748-0.518,2.469-1.14c0.857-0.736,1.427-1.665,1.695-2.757c0.238-0.983,0.205-1.964-0.104-2.917
					c-0.334-1.03-0.935-1.887-1.79-2.549c-0.845-0.65-1.795-1.003-2.828-1.043C24.111,12.872,23.982,12.869,23.854,12.869z
					 M26.36,12.633c0.2,0.09,0.399,0.198,0.592,0.315l0.079-0.166c-0.14-0.034-0.279-0.068-0.421-0.1
					C26.527,12.666,26.444,12.649,26.36,12.633z"/>
				<path fill="#939598" d="M26.289,36.861c-0.199,0.035-0.399,0.063-0.601,0.088l-0.897,0.121l-2.223-0.096
					c-0.485-0.057-0.864-0.105-1.237-0.186c-1.801-0.379-3.468-1.115-4.954-2.188c-1.46-1.055-2.662-2.359-3.575-3.879
					c-0.944-1.57-1.534-3.266-1.749-5.033l-0.111-0.814l-0.009-1.719l0.129-0.773c0.059-0.436,0.118-0.869,0.211-1.296
					c0.376-1.743,1.133-3.385,2.248-4.881c0.988-1.324,2.194-2.433,3.585-3.294c1.36-0.845,2.821-1.423,4.353-1.724l0.623-0.105
					c0.055-0.008,0.108-0.015,0.163-0.023l0.888-0.117l1.714-0.011l0.637,0.11c0.571,0.08,1.006,0.14,1.434,0.233
					c1.736,0.374,3.378,1.129,4.878,2.244c1.09,0.813,2.043,1.786,2.831,2.895c1.251,1.752,2.029,3.711,2.316,5.825l0.119,0.894
					l0.009,1.706l-0.016,0.07L37.02,25.08l-0.058,0.463c-0.044,0.371-0.091,0.742-0.167,1.107c-0.382,1.811-1.118,3.482-2.192,4.975
					c-1.049,1.451-2.354,2.654-3.88,3.578c-1.227,0.738-2.529,1.258-3.888,1.553L26.289,36.861z M30.75,16.039
					c0.11,0.376,0.188,0.765,0.236,1.164c0.143,1.178,0.014,2.324-0.385,3.404c-0.315,0.85-0.777,1.623-1.37,2.297
					c-0.725,0.821-1.617,1.453-2.653,1.879c-1.005,0.414-2.029,0.492-2.853,0.554c-0.533,0.041-1.037,0.168-1.497,0.379
					c-0.575,0.264-1.079,0.641-1.499,1.115c-0.566,0.645-0.928,1.402-1.074,2.252c-0.12,0.691-0.083,1.379,0.108,2.043
					c0.298,1.037,0.897,1.881,1.78,2.51c0.733,0.525,1.594,0.783,2.632,0.791c0.005,0,0.01,0,0.014,0
					c0.883,0,1.728-0.129,2.652-0.391c0.835-0.232,1.652-0.584,2.431-1.039c0.938-0.551,1.788-1.25,2.525-2.076
					c0.85-0.953,1.512-2.053,1.972-3.266c0.389-1.027,0.608-2.094,0.652-3.173c0.061-1.44-0.168-2.852-0.676-4.195
					c-0.527-1.396-1.343-2.648-2.422-3.721C31.138,16.383,30.945,16.206,30.75,16.039z M23.854,13.572
					c-1.165,0-2.353,0.227-3.532,0.671c-1.456,0.551-2.746,1.402-3.835,2.529c-1.051,1.089-1.84,2.373-2.346,3.814
					c-0.3,0.852-0.483,1.756-0.547,2.691c-0.098,1.403,0.089,2.803,0.552,4.163c0.294,0.863,0.721,1.699,1.267,2.49
					c0.521,0.758,1.141,1.439,1.852,2.039c-0.65-2.053-0.373-4.061,0.828-5.988c1.203-1.928,2.987-3.023,5.303-3.254l0.323-0.033
					c0.329-0.029,0.654-0.061,0.975-0.107c0.784-0.116,1.495-0.445,2.113-0.978c0.744-0.638,1.238-1.443,1.469-2.392
					c0.209-0.854,0.179-1.707-0.088-2.532c-0.288-0.893-0.812-1.635-1.552-2.209c-0.728-0.562-1.543-0.863-2.425-0.896
					C24.091,13.575,23.973,13.572,23.854,13.572z"/>
			</g>
		</g>
		<g>
			<g>
				<path fill-rule="evenodd" clip-rule="evenodd" fill="#939598" d="M22.849,30.141c0.044-1.125,0.953-1.998,2.049-1.961
					c1.124,0.039,1.964,0.916,1.964,2.016c-0.001,1.129-0.954,2.041-2.053,2.002C23.692,32.164,22.808,31.234,22.849,30.141z
					 M23.335,30.182c-0.003,0.838,0.677,1.527,1.514,1.529c0.829,0.006,1.523-0.686,1.526-1.518
					c0.005-0.832-0.687-1.529-1.517-1.533C24.024,28.656,23.338,29.34,23.335,30.182z"/>
				<path fill="#939598" d="M24.876,32.904L24.784,32.9c-0.732-0.021-1.413-0.328-1.916-0.867c-0.491-0.527-0.748-1.209-0.722-1.916
					c0.058-1.48,1.235-2.641,2.68-2.641c1.603,0.053,2.738,1.223,2.738,2.719C27.562,31.689,26.356,32.904,24.876,32.904z
					 M24.849,28.883v0.48c-0.445,0-0.808,0.369-0.811,0.822s0.362,0.82,0.813,0.824c0.444,0,0.818-0.375,0.82-0.818
					c0.002-0.219-0.085-0.424-0.242-0.58c-0.158-0.16-0.361-0.248-0.573-0.248l-0.005-0.48
					C24.85,28.883,24.849,28.883,24.849,28.883z"/>
			</g>
			<g>
				<path fill="#939598" d="M24.872,32.568h-0.076c-0.647-0.021-1.245-0.293-1.686-0.766c-0.429-0.461-0.653-1.057-0.63-1.676
					c0.047-1.301,1.081-2.318,2.349-2.318l0.082,0.004c1.324,0.043,2.318,1.068,2.318,2.383
					C27.229,31.484,26.148,32.568,24.872,32.568z M24.852,28.66v0.369c-0.629,0-1.145,0.516-1.148,1.152
					c-0.001,0.639,0.514,1.156,1.146,1.16c0.629,0,1.156-0.527,1.158-1.15c0.003-0.627-0.524-1.156-1.15-1.162L24.852,28.66z"/>
				<path fill="#939598" d="M24.872,33.271h-0.09c-0.842-0.027-1.614-0.379-2.186-0.988c-0.56-0.604-0.85-1.379-0.818-2.184
					c0.062-1.678,1.403-2.992,3.051-2.992c1.815,0.059,3.104,1.387,3.104,3.088C27.931,31.863,26.529,33.271,24.872,33.271z
					 M24.852,29.732c-0.245,0-0.442,0.203-0.445,0.455c0,0.248,0.2,0.451,0.445,0.451c0.238,0,0.45-0.213,0.453-0.451
					C25.305,29.951,25.09,29.734,24.852,29.732L24.852,29.732z"/>
			</g>
		</g>
		<g>
			<g>
				<path fill-rule="evenodd" clip-rule="evenodd" fill="#939598" d="M22.849,18.032c0.022-1.107,0.929-2.014,2.011-1.983
					c1.194,0.036,2.008,0.923,1.999,2.037c-0.01,1.118-0.931,2-2.012,1.981C23.714,20.046,22.827,19.142,22.849,18.032z
					 M26.375,18.06c0-0.832-0.69-1.524-1.523-1.529c-0.824-0.006-1.521,0.7-1.517,1.531c0.004,0.842,0.686,1.523,1.519,1.523
					C25.688,19.584,26.375,18.895,26.375,18.06z"/>
				<path fill="#939598" d="M24.881,20.77h-0.046c-0.744-0.014-1.434-0.312-1.94-0.839c-0.497-0.516-0.763-1.196-0.749-1.913
					c0.03-1.475,1.224-2.673,2.659-2.673c1.617,0.048,2.77,1.228,2.757,2.746C27.548,19.569,26.347,20.77,24.881,20.77z
					 M24.842,16.752v0.48c-0.205,0-0.402,0.085-0.557,0.242c-0.159,0.158-0.248,0.371-0.247,0.583
					c0.003,0.454,0.368,0.824,0.815,0.824c0.444,0,0.818-0.376,0.818-0.821s-0.377-0.824-0.826-0.827L24.842,16.752
					C24.843,16.752,24.843,16.752,24.842,16.752z"/>
			</g>
			<g>
				<path fill="#939598" d="M24.881,20.435H24.84c-0.653-0.011-1.26-0.272-1.705-0.733c-0.436-0.453-0.669-1.049-0.656-1.678
					c0.028-1.293,1.071-2.345,2.326-2.345c1.422,0.041,2.435,1.077,2.423,2.411C27.219,19.383,26.164,20.435,24.881,20.435z
					 M24.843,16.53v0.371c-0.295,0-0.576,0.121-0.796,0.34c-0.223,0.224-0.344,0.514-0.344,0.818c0.004,0.637,0.52,1.158,1.15,1.158
					c0.625,0,1.153-0.531,1.153-1.158c0-0.625-0.529-1.156-1.158-1.159L24.843,16.53z"/>
				<path fill="#939598" d="M24.881,21.138H24.84c-0.854-0.014-1.635-0.352-2.212-0.947c-0.567-0.592-0.868-1.366-0.853-2.182
					c0.037-1.672,1.396-3.033,3.029-3.033c1.806,0.052,3.142,1.394,3.126,3.12C27.919,19.773,26.548,21.138,24.881,21.138z
					 M24.843,17.604c-0.107,0-0.211,0.046-0.297,0.133c-0.092,0.092-0.14,0.202-0.14,0.321c0.003,0.25,0.203,0.456,0.447,0.456
					c0.236,0,0.451-0.217,0.451-0.455c0-0.237-0.22-0.455-0.459-0.456H24.843z"/>
			</g>
		</g>
	</g>
	<g>
		<path fill="#939598" d="M32.205,43.809h-16.41L4.191,32.207v-16.41L15.795,4.191h16.41l11.604,11.605v16.41L32.205,43.809z
			 M16.96,40.996h14.081l9.955-9.955v-14.08l-9.955-9.958H16.96l-9.956,9.958v14.08L16.96,40.996z"/>
	</g>
	<g>
		<path fill="#939598" d="M33.941,48H14.059L0,33.941V14.059L14.059,0h19.883L48,14.059v19.883L33.941,48z M15.224,45.188h17.553
			l12.412-12.41V15.223L32.776,2.813H15.224L2.813,15.223v17.555L15.224,45.188z"/>
	</g>
</g>
</svg>
