<?xml version="1.0" encoding="utf-8"?>
<!-- Generator: Adobe Illustrator 16.0.0, SVG Export Plug-In . SVG Version: 6.00 Build 0)  -->
<!DOCTYPE svg PUBLIC "-//W3C//DTD SVG 1.1//EN" "http://www.w3.org/Graphics/SVG/1.1/DTD/svg11.dtd">
<svg version="1.1" id="Layer_1" xmlns="http://www.w3.org/2000/svg" xmlns:xlink="http://www.w3.org/1999/xlink" x="0px" y="0px"
	 width="44px" height="44px" viewBox="0 0 44 44" enable-background="new 0 0 44 44" xml:space="preserve">
<circle fill="#E86F72" cx="22" cy="22.001" r="22"/>
<g>
	<path fill-rule="evenodd" clip-rule="evenodd" fill="#FFFFFF" d="M19.09,17.967c0.282-0.233,0.526-0.434,0.74-0.609
		c0.754,0.889,1.479,1.745,2.205,2.602c0.08-0.059,0.16-0.118,0.239-0.176c-0.609-0.976-1.219-1.954-1.854-2.971
		c0.141-0.162,0.303-0.347,0.525-0.601c0.736,1.242,1.661,2.208,3.147,2.581c-0.812-0.862-1.553-1.682-2.332-2.468
		c-0.477-0.482-0.395-0.854,0.006-1.138c1.105,0.778,2.175,1.531,3.245,2.284c0.07-0.091,0.142-0.183,0.213-0.274
		c-1.008-0.871-2.016-1.74-3.041-2.627c-0.07-0.327,0.634-0.682-0.013-1.117c0.165-0.355,0.352-0.755,0.539-1.157
		c0.056,0.006,0.112,0.011,0.168,0.017c0.043,0.3,0.031,0.623,0.143,0.894c0.2,0.487,0.377,1.043,0.739,1.392
		c0.762,0.739,1.637,1.363,2.435,2.008c-0.248-0.877-0.813-1.628-1.616-2.193c-0.576-0.404-0.975-0.85-1.016-1.608
		c-0.019-0.359-0.278-0.703-0.467-1.143c0.317-0.343,0.687-0.742,1.055-1.141c0.078,0.008,0.155,0.017,0.23,0.026
		c0,0.295,0.072,0.61-0.011,0.879c-0.392,1.263-0.294,1.445,0.784,2.212c0.807,0.573,1.519,1.277,2.255,1.908
		c-0.38-1.037-1.063-1.909-2.028-2.521c-0.54-0.341-0.65-0.723-0.409-1.262c0.258-0.577,0.223-1.113-0.275-1.637
		c0.323-0.241,0.611-0.457,1.104-0.825c0.029,0.755,0.065,1.345,0.073,1.934c0.006,0.608,0.063,1.186,0.754,1.616
		c-0.548-1.28,0.513-2.61-0.503-3.761c0.265-0.195,0.477-0.354,0.662-0.489c0.336,0.424,0.64,0.807,0.944,1.191
		c0.061-0.032,0.117-0.063,0.178-0.095c-0.135-0.493-0.27-0.987-0.412-1.511c0.225-0.123,0.418-0.229,0.616-0.337
		c0.294,0.403,0.568,0.779,0.842,1.156c0.047-0.016,0.094-0.03,0.141-0.046c0-0.139,0.051-0.305-0.008-0.413
		c-0.44-0.813-0.008-1.473,0.367-2.132c0.094-0.166,0.293-0.364,0.449-0.369c0.132-0.004,0.379,0.243,0.391,0.393
		c0.054,0.714,0.591,0.864,1.116,1.024c0.52,0.16,1.052,0.28,1.597,0.424c-0.176,0.271-0.317,0.489-0.543,0.834
		c0.465-0.051,0.772-0.086,1.075-0.12c0.423,0.778,0.886,1.535,1.256,2.334c0.411,0.89,0.229,1.283-0.609,1.81
		c-0.426,0.268-0.811,0.603-1.221,0.895c-0.388,0.275-0.778,0.302-1.224,0.08c-0.763-0.377-0.772-0.356-1.549,0.134
		c-0.08-0.349-0.157-0.673-0.258-1.105c-0.337,0.165-0.669,0.327-1.108,0.542c-0.089-0.478-0.176-0.966-0.284-1.568
		c-0.315,0.174-0.654,0.361-0.988,0.546c-0.243-0.562-0.238-0.589,0.256-1.828c-0.697,0.598-0.848,1.391-0.433,2.427
		c0.288-0.226,0.564-0.445,0.855-0.674c0.146,0.518,0.265,0.981,0.41,1.435c0.047,0.147,0.161,0.271,0.247,0.407
		c0.238-0.281,0.463-0.548,0.743-0.876c0.188,0.526,0.336,0.94,0.509,1.427c0.302-0.212,0.521-0.364,0.917-0.641
		c0.395,1.477,0.941,2.84,1.064,4.244c0.071,0.809-0.542,1.678-0.91,2.692c-0.501-0.626-0.843-1.052-1.185-1.478
		c-0.03,0.016-0.06,0.029-0.09,0.044c0.215,0.408,0.431,0.818,0.672,1.28c-0.903,0.132-1.619,0.505-1.823,1.561
		c0.675-0.416,1.349-0.832,2.055-1.269c0.161,0.226,0.331,0.462,0.457,0.639c-0.524,0.429-1.022,0.833-1.518,1.238
		c0.052,0.086,0.105,0.17,0.157,0.253c0.598-0.273,1.195-0.546,1.846-0.843c0.161,0.183,0.338,0.382,0.498,0.567
		c-0.454,0.433-0.883,0.841-1.312,1.25c0.041,0.059,0.085,0.119,0.127,0.177c0.549-0.248,1.096-0.494,1.702-0.771
		c0.164,0.285,0.306,0.53,0.41,0.714c-0.53,0.344-1.009,0.657-1.488,0.97c0.031,0.062,0.064,0.122,0.098,0.183
		c0.548-0.116,1.099-0.234,1.802-0.385c0.063,0.688,0.202,1.319,0.161,1.936c-0.063,0.891-1.479,1.352-2.323,0.728
		c-0.402-0.298-0.824-0.764-0.935-1.225c-0.338-1.427-1.396-2.277-2.325-3.247c-0.489-0.514-0.958-1.055-1.499-1.507
		c-0.437-0.368-0.969-0.623-1.481-0.855c0.813,0.776,1.625,1.552,2.475,2.363c-1.175,1.169-2.314,2.156-3.697,2.809
		c-1.097,0.517-2.22,0.984-3.335,1.465c-1.083,0.463-2.151,0.943-2.637,1.897c-1.094-0.628-2.152-1.235-3.378-1.94
		c0.625,1.476,2.211,1.588,2.95,2.701c-0.145,0.207-0.284,0.407-0.465,0.667c-0.53-0.656-0.996-1.338-1.986-1.31
		c0.475,0.77,1.533,1.216,1.372,2.466c-0.677-0.57-1.183-0.997-1.689-1.425c-0.044,0.048-0.088,0.098-0.132,0.147
		c0.333,0.502,0.628,1.035,1.012,1.495c0.302,0.363,0.334,0.665,0.051,1.062c-0.666-0.344-0.779-1.459-1.807-1.367
		c0.612,0.901,1.2,1.768,1.787,2.634c-0.046,0.026-0.092,0.055-0.138,0.083c-0.494-0.319-0.986-0.636-1.478-0.954
		c-0.034,0.045-0.068,0.092-0.103,0.139c0.443,0.6,0.852,1.231,1.346,1.786c0.206,0.231,0.586,0.321,0.902,0.436
		c0.461,0.169,0.828,0.357,0.783,0.96c-0.046,0.615-0.365,0.924-0.945,0.973c-0.41,0.036-0.828,0.038-1.237,0.01
		c-1.219-0.088-1.699-0.78-1.781-1.991c-0.069-1.009-0.362-2.021-0.695-2.981c-0.223-0.641-0.177-1.097,0.308-1.532
		c0.103-0.092,0.18-0.212,0.285-0.3c0.919-0.778,1.375-1.643,0.858-2.9c-0.233-0.565-0.181-1.266-0.188-1.904
		c-0.013-1.156-0.443-2.081-1.354-2.797c-0.12-0.094-0.239-0.297-0.225-0.437c0.071-0.657,0.19-1.309,0.304-2.035
		c0.291,0.09,0.498,0.154,0.741,0.228c-0.112,1.953,0.14,3.767,1.708,5.014c-0.455-1.512-0.929-3.086-1.406-4.677
		c0.573-0.206,0.774-0.059,0.911,0.346c0.314,0.934,0.807,1.754,1.583,2.36c0.057-0.033,0.113-0.066,0.169-0.1
		c-0.324-0.695-0.604-1.418-0.985-2.081c-0.358-0.624-0.359-1.101,0.283-1.477c0.719,0.93,1.451,1.875,2.182,2.823
		c0.083-0.055,0.166-0.109,0.249-0.163c-0.625-1.09-1.251-2.175-1.912-3.325c0.255-0.216,0.545-0.463,0.8-0.68
		c0.689,1.061,1.354,2.081,2.018,3.102c0.088-0.05,0.177-0.101,0.266-0.151c-0.513-1.083-1.027-2.166-1.562-3.294
		c0.351-0.196,0.7-0.388,0.993-0.55c0.702,0.968,1.381,1.904,2.06,2.841c0.075-0.047,0.151-0.094,0.227-0.141
		C20.178,20.097,19.648,19.061,19.09,17.967z M29.649,9.63c-0.398,0.694-0.347,1.198,0.014,1.643c0.646,0.803,1.55,0.912,2.67,0.922
		C31.328,11.338,29.785,11.338,29.649,9.63z M30.764,8.555c-0.582,0.695-0.588,1.383-0.113,1.966
		c0.496,0.604,1.373,0.823,1.981,0.463C31.571,10.552,30.643,10.022,30.764,8.555z M29.177,18.673
		c-1.383-0.313-2.865,0.635-2.91,1.778C27.211,19.874,28.185,19.28,29.177,18.673z M27.479,21.309
		c0.801-0.493,1.53-0.941,2.399-1.476C28.588,19.643,27.645,20.244,27.479,21.309z"/>
	<path fill-rule="evenodd" clip-rule="evenodd" fill="#FFFFFF" d="M22.827,32.013c-0.776,0.997-0.67,1.433,0.617,1.89
		c0.493,0.175,1.063,0.133,1.595,0.197c0.315,0.037,0.733-0.024,0.915,0.153c0.304,0.293,0.5,0.729,0.626,1.14
		c0.026,0.085-0.434,0.396-0.707,0.48c-1.603,0.499-3.054,0.289-4.34-0.896c-0.515-0.475-1.166-0.801-1.752-1.198
		c-0.647-0.438-0.788-0.866-0.558-1.478c0.585,0.132,1.156,0.261,1.728,0.387c0.025-0.079,0.049-0.157,0.073-0.234
		c-0.504-0.308-1.009-0.613-1.513-0.917c0.163-1.043,0.163-1.037,1.158-1.028c0.957,0.009,1.915,0.001,2.87,0.001
		c-0.03,0.675-0.055,0.695-0.795,0.694c-0.814-0.002-1.629-0.001-2.495,0.123C21.101,31.553,21.955,31.78,22.827,32.013z"/>
	<path fill-rule="evenodd" clip-rule="evenodd" fill="#FFFFFF" d="M37.99,20.288c-0.158,0.599-0.192,1.138-0.441,1.547
		c-0.301,0.497-0.877,0.666-1.46,0.504c-0.587-0.164-0.779-0.655-0.87-1.205c-0.051-0.317-0.133-0.63-0.172-0.814
		c-1.016,0.277-1.848-0.141-2.836-0.128c0.74-1.183,0.801-2.357,0.445-3.648c0.361,0.024,0.645,0.043,0.893,0.06
		c0.043,0.6,0.08,1.156,0.12,1.713c0.065-0.003,0.131-0.005,0.194-0.008c0.168-0.51,0.337-1.021,0.521-1.579
		c0.305,0.051,0.567,0.094,0.824,0.137c-0.133,0.522-0.263,1.025-0.391,1.53c0.063,0.029,0.126,0.06,0.188,0.088
		c0.346-0.46,0.689-0.921,1.09-1.455c0.221,0.296,0.393,0.523,0.542,0.722c-0.359,0.413-0.681,0.783-1.002,1.152
		c0.041,0.059,0.085,0.118,0.126,0.176c0.404-0.204,0.81-0.408,1.28-0.645c0.188,0.363,0.36,0.698,0.54,1.044
		c-0.51,0.251-0.977,0.481-1.444,0.712c0.021,0.063,0.04,0.125,0.061,0.187C36.705,20.353,37.211,20.327,37.99,20.288z"/>
	<path fill-rule="evenodd" clip-rule="evenodd" fill="#FFFFFF" d="M23.969,28.793c-0.1,1.044-0.1,1.04-1.042,1.037
		c-0.954-0.003-1.907,0-2.904,0c0-0.221,0-0.479,0-0.73C21.342,28.997,22.631,28.896,23.969,28.793z"/>
	<path fill-rule="evenodd" clip-rule="evenodd" fill="#FFFFFF" d="M8.162,15.285c-0.021,0.406-0.039,0.771-0.058,1.144
		c-0.644,0.136-1.281,0.272-1.92,0.407C5.862,15.394,5.732,15.13,8.162,15.285z"/>
	<path fill-rule="evenodd" clip-rule="evenodd" fill="#FFFFFF" d="M8.77,18.288c0.231,0.311,0.391,0.526,0.557,0.751
		c-0.212,0.323-0.427,0.614-0.602,0.929c-0.174,0.313-0.307,0.649-0.494,1.054c-0.359-0.443-0.683-0.843-1.054-1.301
		C7.72,19.231,8.219,18.783,8.77,18.288z"/>
	<path fill-rule="evenodd" clip-rule="evenodd" fill="#FFFFFF" d="M9.914,13.342c-0.256,0.151-0.47,0.277-0.659,0.389
		c-0.634-0.374-1.239-0.732-1.84-1.087C8.605,11.505,8.743,11.488,9.914,13.342z"/>
	<path fill-rule="evenodd" clip-rule="evenodd" fill="#FFFFFF" d="M9.544,22.008c-0.29-0.209-0.583-0.421-0.966-0.695
		c0.409-0.596,0.799-1.168,1.233-1.801c0.333,0.245,0.601,0.439,0.854,0.625C10.291,20.763,9.942,21.345,9.544,22.008z"/>
	<path fill-rule="evenodd" clip-rule="evenodd" fill="#FFFFFF" d="M6.865,19.02c-0.811-1.44-0.675-1.646,1.358-1.996
		c0.088,0.236,0.18,0.483,0.28,0.754C7.946,18.2,7.406,18.608,6.865,19.02z"/>
	<path fill-rule="evenodd" clip-rule="evenodd" fill="#FFFFFF" d="M8.858,14.063c-0.218,0.325-0.357,0.53-0.451,0.668
		c-0.736-0.06-1.406-0.115-2.205-0.18c0.152-0.356,0.301-0.757,0.501-1.131c0.042-0.079,0.29-0.121,0.405-0.077
		C7.678,13.555,8.235,13.801,8.858,14.063z"/>
	<path fill-rule="evenodd" clip-rule="evenodd" fill="#FFFFFF" d="M11.797,20.776c-0.138,0.781-0.263,1.492-0.397,2.256
		c-0.402-0.215-0.837-0.448-1.361-0.729c0.437-0.629,0.835-1.199,1.251-1.796C11.53,20.634,11.702,20.726,11.797,20.776z"/>
	<path fill-rule="evenodd" clip-rule="evenodd" fill="#FFFFFF" d="M9.454,11.445c0.551-0.099,1.056-0.188,1.683-0.302
		c0,0.602,0.021,1.114-0.015,1.623c-0.009,0.123-0.188,0.309-0.312,0.331c-0.128,0.023-0.339-0.082-0.421-0.197
		C10.077,12.459,9.801,11.994,9.454,11.445z"/>
	<path fill-rule="evenodd" clip-rule="evenodd" fill="#FFFFFF" d="M11.807,11.235c0.178,0.041,0.377,0.042,0.522,0.13
		c0.3,0.184,0.831,0.453,0.807,0.619c-0.062,0.421-0.351,0.825-0.619,1.181c-0.041,0.055-0.655-0.148-0.677-0.284
		C11.757,12.353,11.807,11.806,11.807,11.235z"/>
	<path fill-rule="evenodd" clip-rule="evenodd" fill="#FFFFFF" d="M13.705,12.453c0.25,0.463,0.501,0.925,0.78,1.441
		c-0.383,0.214-0.693,0.388-0.996,0.558C12.555,13.713,13.549,13.143,13.705,12.453z"/>
	<path fill-rule="evenodd" clip-rule="evenodd" fill="#FFFFFF" d="M20.54,28.16c1.18-0.162,2.361-0.323,3.541-0.485
		c0.043,0.041,0.086,0.083,0.13,0.123c-0.137,0.133-0.262,0.368-0.407,0.383c-1.075,0.097-2.153,0.149-3.231,0.217
		C20.561,28.318,20.551,28.239,20.54,28.16z"/>
	<path fill-rule="evenodd" clip-rule="evenodd" fill="#FFFFFF" d="M13.532,15.959c-0.091-0.78-0.091-0.78,1.099-1.43
		c0.074,0.337,0.145,0.657,0.227,1.028C14.401,15.695,13.997,15.818,13.532,15.959z"/>
	<path fill-rule="evenodd" clip-rule="evenodd" fill="#FFFFFF" d="M15.044,16.343c-0.168,0.295-0.269,0.73-0.522,0.855
		c-0.385,0.19-0.772-0.022-0.984-0.512c0.475-0.161,0.908-0.31,1.341-0.457C14.935,16.267,14.989,16.305,15.044,16.343z"/>
</g>
</svg>
