<?xml version="1.0" encoding="utf-8"?>
<!-- Generator: Adobe Illustrator 16.0.0, SVG Export Plug-In . SVG Version: 6.00 Build 0)  -->
<!DOCTYPE svg PUBLIC "-//W3C//DTD SVG 1.1//EN" "http://www.w3.org/Graphics/SVG/1.1/DTD/svg11.dtd">
<svg version="1.1" id="Layer_1" xmlns="http://www.w3.org/2000/svg" xmlns:xlink="http://www.w3.org/1999/xlink" x="0px" y="0px"
	 width="44px" height="44px" viewBox="0 0 44 44" enable-background="new 0 0 44 44" xml:space="preserve">
<circle fill="#E86F72" cx="22" cy="22.001" r="22"/>
<g>
	<path fill-rule="evenodd" clip-rule="evenodd" fill="#FFFFFF" d="M28.41,8.549c1.07,0.2,1.314,1.128,1.813,1.813
		c0.171,0.235,0.361,0.469,0.587,0.648c0.507,0.401,0.832,0.876,0.823,1.505c-0.581-0.098-1.142-0.192-1.703-0.287
		c0.002,0.05,0.004,0.1,0.006,0.149c0.408,0.372,0.879,0.695,1.211,1.126c0.459,0.595,0.281,0.883-0.457,0.924
		c-0.118,0.007-0.238,0.096-0.344,0.167c-0.521,0.356-0.855,0.262-1.049-0.365c-0.143-0.466-0.203-0.957-0.307-1.468
		c-0.419,0.811-0.263,1.825,0.352,2.349c0.367,0.312,0.733,0.375,1.129,0.002c0.123-0.116,0.365-0.179,0.54-0.157
		c2.626,0.325,5.346,3.638,5.071,6.225c-0.266,2.501-1.369,4.594-3.539,5.905c-1.354,0.818-2.892,1.334-4.352,1.973
		c-0.235,0.103-0.496,0.155-0.749,0.203c-1.679,0.322-3.359,0.626-4.629,1.935c-0.14,0.145-0.358,0.245-0.558,0.294
		c-1.523,0.373-1.888,1.702-2.375,2.904c-0.198,0.487-0.106,0.891,0.583,0.986c0.468,0.065,0.909,0.331,1.363,0.507
		c-0.022,0.066-0.044,0.133-0.067,0.198c-1.375,0-2.751,0-4.158,0c-0.052-0.444,0.193-0.641,0.596-0.657
		c0.617-0.025,0.84-0.395,0.937-1.015c-0.321,0.053-0.587,0.097-0.937,0.154c0.095-0.122,0.137-0.231,0.213-0.267
		c1.412-0.63,1.347-1.991,1.575-3.198c0.074-0.389,0.016-0.801,0.072-1.194c0.052-0.365,0.175-0.72,0.125-0.932
		c-0.806-0.684-1.612-1.366-2.456-2.081c-1.179,2.683-3.096,4.912-5.673,6.632c0.552-1.186,1.104-2.37,1.655-3.556
		c-1.399,1.514-3.039,2.587-5.307,2.979c2.532-2.798,4.198-5.81,4.291-9.567c-0.81,2.771-2.721,3.811-5.589,3.604
		c2.41-2.994,3.936-6.274,4.55-10.131c-1.098,0.953-2.218,1.515-3.735,1.213c1.271-0.911,1.764-2.146,2.143-3.451
		c0.209-0.723,0.381-1.461,0.646-2.163c1.058-2.802,4.058-4.281,6.889-3.428c3.07,0.926,4.877,3.701,4.124,6.671
		c-0.435,1.713-1.232,3.333-1.859,4.975c1.679-0.524,3.49-1.106,4.854-2.566c0.438-0.469,0.51-1.037,0.346-1.651
		c-0.219-0.818-0.461-1.634-0.617-2.465c-0.313-1.651-0.18-3.173,1.537-4.145c-0.238-0.335-0.447-0.63-0.764-1.076
		c0.674,0.079,1.191,0.14,1.767,0.206c-0.017-0.113-0.04-0.266-0.083-0.548c0.496,0.178,0.924,0.331,1.406,0.505
		C28.332,8.841,28.369,8.704,28.41,8.549z M19.576,24.689c2.737,1.985,7.975,1.912,10.711-0.212c1.257-0.976,1.422-3.159,0.277-4.4
		c0.072,0.285,0.131,0.509,0.186,0.732c0.471,1.896-0.007,2.894-1.776,3.668c-1.866,0.817-3.817,1.212-5.845,0.938
		C21.908,25.25,20.708,24.926,19.576,24.689z"/>
	<path fill-rule="evenodd" clip-rule="evenodd" fill="#FFFFFF" d="M27.207,36.1c-1.259,0-2.518,0-3.775,0
		c-0.039-0.054-0.076-0.107-0.115-0.162c0.221-0.171,0.418-0.42,0.668-0.499c0.633-0.198,0.688-0.222,0.801-1.005
		c-0.258,0.04-0.498,0.076-0.871,0.133c0.207-0.182,0.317-0.362,0.455-0.387c0.672-0.119,0.692-0.619,0.652-1.113
		c-0.057-0.677-0.207-1.347-0.244-2.023c-0.01-0.193,0.201-0.538,0.367-0.579c1.316-0.32,2.646-0.585,4.079-0.748
		c-0.819,0.607-1.603,1.274-2.472,1.799c-0.485,0.292-0.804,0.615-0.933,1.139c-0.157,0.637-0.325,1.272-0.431,1.917
		c-0.066,0.41,0.102,0.688,0.59,0.787c0.454,0.093,0.879,0.334,1.316,0.511C27.266,35.945,27.236,36.022,27.207,36.1z"/>
</g>
</svg>
