<?xml version="1.0" encoding="utf-8"?>
<!-- Generator: Adobe Illustrator 16.0.0, SVG Export Plug-In . SVG Version: 6.00 Build 0)  -->
<!DOCTYPE svg PUBLIC "-//W3C//DTD SVG 1.1//EN" "http://www.w3.org/Graphics/SVG/1.1/DTD/svg11.dtd">
<svg version="1.1" id="Layer_1" xmlns="http://www.w3.org/2000/svg" xmlns:xlink="http://www.w3.org/1999/xlink" x="0px" y="0px"
	 width="36px" height="36px" viewBox="0 0 36 36" enable-background="new 0 0 36 36" xml:space="preserve">
<g>
	<circle fill="#3C5A99" cx="18" cy="18" r="17.409"/>
	<path fill-rule="evenodd" clip-rule="evenodd" fill="#FFFFFF" d="M15.115,18.197V28.86c0,0.153,0.124,0.277,0.278,0.277h3.959
		c0.154,0,0.278-0.124,0.278-0.277V18.023h2.87c0.145,0,0.265-0.11,0.277-0.254l0.275-3.265c0.014-0.162-0.113-0.301-0.276-0.301
		H19.63v-2.316c0-0.543,0.44-0.983,0.983-0.983h2.212c0.153,0,0.277-0.125,0.277-0.278V7.361c0-0.153-0.124-0.278-0.277-0.278
		h-3.738c-2.194,0-3.972,1.779-3.972,3.972v3.148h-1.979c-0.153,0-0.278,0.125-0.278,0.278v3.265c0,0.153,0.125,0.278,0.278,0.278
		h1.979V18.197z"/>
</g>
</svg>
