<?xml version="1.0" encoding="utf-8"?>
<!-- Generator: Adobe Illustrator 16.0.0, SVG Export Plug-In . SVG Version: 6.00 Build 0)  -->
<!DOCTYPE svg PUBLIC "-//W3C//DTD SVG 1.1//EN" "http://www.w3.org/Graphics/SVG/1.1/DTD/svg11.dtd">
<svg version="1.1" id="Layer_1" xmlns="http://www.w3.org/2000/svg" xmlns:xlink="http://www.w3.org/1999/xlink" x="0px" y="0px"
	 width="100px" height="34.167px" viewBox="0 0 100 34.167" enable-background="new 0 0 100 34.167" xml:space="preserve">
<g>
	<path fill="#818080" d="M100,29.019c0,2.441-1.979,4.42-4.42,4.42H4.421C1.979,33.438,0,31.46,0,29.019V5.148
		c0-2.441,1.979-4.42,4.421-4.42H95.58c2.441,0,4.42,1.979,4.42,4.42V29.019z"/>
	<g>
		<path fill="#F9F9F9" d="M77.825,22.345c-0.42,0-0.803-0.076-1.149-0.23c-0.347-0.156-0.638-0.393-0.873-0.715h-0.07
			c0.047,0.377,0.07,0.732,0.07,1.07v2.65h-0.976v-9.333h0.794l0.135,0.881h0.047c0.251-0.353,0.543-0.607,0.876-0.764
			c0.333-0.157,0.716-0.235,1.146-0.235c0.854,0,1.514,0.292,1.978,0.876c0.465,0.584,0.697,1.402,0.697,2.457
			c0,1.059-0.236,1.881-0.708,2.467C79.319,22.054,78.664,22.345,77.825,22.345z M77.684,16.498c-0.658,0-1.134,0.182-1.428,0.547
			c-0.294,0.364-0.445,0.945-0.453,1.74v0.217c0,0.906,0.151,1.553,0.453,1.943c0.302,0.389,0.785,0.584,1.451,0.584
			c0.557,0,0.993-0.225,1.309-0.676c0.315-0.449,0.473-1.07,0.473-1.863c0-0.803-0.157-1.419-0.473-1.848
			C78.7,16.711,78.256,16.498,77.684,16.498z"/>
		<path fill="#F9F9F9" d="M82.759,22.228h-0.976v-9.145h0.976V22.228z"/>
		<path fill="#F9F9F9" d="M88.368,22.228l-0.194-0.916h-0.047c-0.321,0.404-0.642,0.678-0.961,0.82s-0.718,0.213-1.196,0.213
			c-0.639,0-1.139-0.164-1.502-0.492c-0.362-0.33-0.543-0.797-0.543-1.404c0-1.303,1.04-1.984,3.121-2.047l1.093-0.035v-0.398
			c0-0.506-0.108-0.88-0.326-1.121c-0.217-0.241-0.565-0.361-1.043-0.361c-0.537,0-1.145,0.164-1.822,0.493l-0.3-0.746
			c0.317-0.173,0.665-0.308,1.043-0.405c0.379-0.099,0.758-0.147,1.138-0.147c0.768,0,1.337,0.171,1.708,0.512
			c0.37,0.341,0.555,0.888,0.555,1.64v4.396H88.368z M86.164,21.54c0.607,0,1.084-0.166,1.432-0.498
			c0.347-0.334,0.52-0.801,0.52-1.4V19.06l-0.976,0.041c-0.776,0.027-1.335,0.148-1.679,0.361c-0.343,0.215-0.514,0.547-0.514,0.998
			c0,0.352,0.106,0.621,0.32,0.805S85.779,21.54,86.164,21.54z"/>
		<path fill="#F9F9F9" d="M89.657,15.787h1.046l1.411,3.673c0.31,0.838,0.502,1.443,0.576,1.816h0.047
			c0.052-0.201,0.158-0.541,0.32-1.025c0.163-0.484,0.695-1.973,1.596-4.464H95.7l-2.769,7.335
			c-0.274,0.725-0.595,1.238-0.962,1.543c-0.366,0.303-0.815,0.455-1.348,0.455c-0.299,0-0.593-0.033-0.883-0.1v-0.781
			c0.216,0.047,0.457,0.07,0.724,0.07c0.67,0,1.147-0.377,1.435-1.129l0.358-0.916L89.657,15.787z"/>
	</g>
	<g>
		<path fill="#F9F9F9" d="M59.75,16.384c0.31,0.257,0.956,0.795,0.956,1.82c0,0.996-0.565,1.469-1.132,1.912
			c-0.175,0.176-0.377,0.365-0.377,0.662c0,0.295,0.202,0.457,0.351,0.578l0.485,0.377c0.593,0.498,1.131,0.957,1.131,1.887
			c0,1.268-1.226,2.547-3.543,2.547c-1.954,0-2.897-0.93-2.897-1.928c0-0.484,0.242-1.172,1.038-1.643
			c0.835-0.512,1.967-0.58,2.573-0.621c-0.189-0.242-0.404-0.498-0.404-0.916c0-0.229,0.067-0.363,0.135-0.525
			c-0.148,0.014-0.297,0.027-0.432,0.027c-1.428,0-2.236-1.064-2.236-2.115c0-0.62,0.283-1.307,0.862-1.805
			c0.768-0.634,1.685-0.741,2.412-0.741h2.775l-0.862,0.484H59.75z M58.793,22.368c-0.107-0.014-0.176-0.014-0.31-0.014
			c-0.121,0-0.85,0.027-1.415,0.215c-0.296,0.107-1.159,0.432-1.159,1.389c0,0.955,0.931,1.645,2.372,1.645
			c1.293,0,1.981-0.621,1.981-1.457C60.263,23.458,59.817,23.095,58.793,22.368z M59.184,19.808c0.31-0.311,0.337-0.742,0.337-0.984
			c0-0.971-0.579-2.479-1.697-2.479c-0.351,0-0.728,0.175-0.943,0.445c-0.229,0.282-0.297,0.646-0.297,0.997
			c0,0.902,0.525,2.398,1.685,2.398C58.604,20.185,58.968,20.022,59.184,19.808z"/>
		<path fill="#F9F9F9" d="M51.267,22.151c-2.139,0-3.282-1.668-3.282-3.176c0-1.761,1.439-3.267,3.485-3.267
			c1.977,0,3.214,1.546,3.214,3.175C54.684,20.47,53.46,22.151,51.267,22.151z M52.948,21.062c0.323-0.43,0.404-0.967,0.404-1.492
			c0-1.186-0.565-3.445-2.233-3.445c-0.443,0-0.888,0.176-1.21,0.459c-0.525,0.47-0.62,1.062-0.62,1.64
			c0,1.332,0.659,3.523,2.288,3.523C52.102,21.747,52.64,21.493,52.948,21.062z"/>
		<path fill="#F9F9F9" d="M43.976,22.151c-2.139,0-3.283-1.668-3.283-3.176c0-1.761,1.44-3.267,3.485-3.267
			c1.977,0,3.215,1.546,3.215,3.175C47.393,20.47,46.168,22.151,43.976,22.151z M45.657,21.062c0.323-0.43,0.403-0.967,0.403-1.492
			c0-1.186-0.564-3.445-2.233-3.445c-0.443,0-0.888,0.176-1.21,0.459c-0.524,0.47-0.619,1.062-0.619,1.64
			c0,1.332,0.659,3.523,2.287,3.523C44.81,21.747,45.348,21.493,45.657,21.062z"/>
		<path fill="#F9F9F9" d="M39.665,21.94l-1.934,0.447c-0.785,0.121-1.488,0.229-2.231,0.229c-3.733,0-5.153-2.744-5.153-4.896
			c0-2.623,2.015-5.058,5.464-5.058c0.73,0,1.434,0.108,2.069,0.284c1.015,0.284,1.488,0.636,1.786,0.839l-1.123,1.068l-0.473,0.107
			l0.338-0.541c-0.46-0.446-1.299-1.271-2.895-1.271c-2.137,0-3.747,1.623-3.747,3.99c0,2.542,1.84,4.935,4.788,4.935
			c0.866,0,1.312-0.174,1.718-0.338v-2.176l-2.042,0.107l1.082-0.582h2.868l-0.352,0.338c-0.095,0.082-0.108,0.109-0.135,0.215
			c-0.014,0.123-0.027,0.516-0.027,0.65V21.94z"/>
		<path fill="#F9F9F9" d="M64.024,21.552c-0.446-0.041-0.539-0.121-0.539-0.65v-0.148v-7.505c0.002-0.03,0.004-0.06,0.007-0.088
			c0.055-0.473,0.189-0.554,0.609-0.798h-1.935l-1.015,0.487h1.033v0.006V12.85v7.903V21.2c0,0.27-0.054,0.311-0.365,0.717h2.395
			l0.5-0.297C64.485,21.593,64.255,21.579,64.024,21.552z"/>
		<path fill="#F9F9F9" d="M69.528,21.677c-0.147,0.08-0.295,0.174-0.442,0.242c-0.444,0.201-0.9,0.254-1.304,0.254
			c-0.429,0-1.102-0.027-1.787-0.523c-0.952-0.672-1.369-1.828-1.369-2.834c0-2.083,1.692-3.103,3.076-3.103
			c0.483,0,0.981,0.121,1.384,0.376c0.671,0.442,0.846,1.021,0.939,1.329l-3.156,1.277l-1.034,0.08
			c0.335,1.707,1.49,2.699,2.767,2.699c0.686,0,1.183-0.242,1.639-0.469L69.528,21.677z M68.267,17.673
			c0.255-0.095,0.389-0.175,0.389-0.363c0-0.536-0.604-1.155-1.33-1.155c-0.538,0-1.544,0.417-1.544,1.868
			c0,0.229,0.026,0.471,0.04,0.713L68.267,17.673z"/>
		<g>
			<path fill="#F9F9F9" d="M70.825,15.804v0.886h-0.108v-0.886h-0.293v-0.092h0.694v0.092H70.825z"/>
			<path fill="#F9F9F9" d="M72.033,16.69v-0.895h-0.005l-0.273,0.895h-0.084l-0.275-0.895h-0.003v0.895h-0.098v-0.978h0.167
				l0.249,0.79h0.004l0.245-0.79h0.17v0.978H72.033z"/>
		</g>
	</g>
	<g>
		<path fill="#F9F9FA" d="M33.033,10.029H32.36c0-0.092-0.063-0.354-0.191-0.786h-0.97c-0.131,0.424-0.197,0.687-0.197,0.786H30.37
			c0-0.055,0.163-0.502,0.49-1.344c0.327-0.841,0.49-1.305,0.49-1.39h0.794c0,0.08,0.148,0.537,0.444,1.37
			C32.884,9.499,33.033,9.954,33.033,10.029z M32.063,8.843c-0.24-0.723-0.359-1.113-0.359-1.172h-0.034
			c0,0.055-0.124,0.445-0.372,1.172H32.063z"/>
		<path fill="#F9F9FA" d="M35.741,10.029h-0.519c0-0.057-0.192-0.36-0.577-0.909c-0.403-0.579-0.633-0.974-0.689-1.187h-0.034
			c0.035,0.307,0.052,0.584,0.052,0.832c0,0.346,0.01,0.767,0.029,1.264h-0.517c0.021-0.434,0.032-0.911,0.032-1.43
			c0-0.511-0.011-0.946-0.032-1.304h0.624c0,0.074,0.173,0.37,0.519,0.889c0.368,0.55,0.58,0.923,0.634,1.119h0.032
			c-0.034-0.312-0.05-0.592-0.05-0.84c0-0.379-0.01-0.769-0.029-1.167h0.525c-0.02,0.347-0.029,0.782-0.029,1.304
			C35.711,9.125,35.721,9.603,35.741,10.029z"/>
		<path fill="#F9F9FA" d="M38.785,8.567c0,0.398-0.127,0.745-0.382,1.042s-0.612,0.445-1.071,0.445
			c-0.208,0-0.493-0.009-0.857-0.025c0.018-0.423,0.027-0.899,0.027-1.43c0-0.51-0.009-0.944-0.027-1.304h0.367
			c0.061,0,0.15-0.002,0.269-0.006c0.119-0.004,0.197-0.006,0.233-0.006c0.505,0,0.872,0.126,1.1,0.378S38.785,8.215,38.785,8.567z
			 M38.211,8.658c0-0.269-0.079-0.496-0.235-0.68s-0.396-0.276-0.718-0.276c-0.061,0-0.143,0.006-0.248,0.019
			c0.014,0.28,0.021,0.573,0.021,0.878c0,0.334,0.007,0.667,0.021,0.996c0.091,0.018,0.182,0.027,0.273,0.027
			c0.301,0,0.524-0.093,0.669-0.28C38.139,9.155,38.211,8.927,38.211,8.658z"/>
		<path fill="#F9F9FA" d="M41.591,10.029H40.97c-0.163-0.496-0.287-0.802-0.374-0.917c-0.087-0.116-0.227-0.175-0.42-0.175
			c-0.081,0-0.159,0.001-0.233,0.002c0,0.36,0.006,0.723,0.019,1.09h-0.584c0.018-0.423,0.027-0.899,0.027-1.43
			c0-0.51-0.009-0.944-0.027-1.304h0.363c0.042,0,0.13-0.002,0.264-0.006c0.134-0.004,0.257-0.006,0.371-0.006
			c0.643,0,0.964,0.22,0.964,0.659c0,0.349-0.184,0.592-0.55,0.729v0.032c0.142,0.039,0.266,0.149,0.372,0.331
			C41.267,9.214,41.411,9.546,41.591,10.029z M40.804,8.097c0-0.278-0.179-0.418-0.538-0.418c-0.131,0-0.248,0.01-0.349,0.029
			c0.016,0.217,0.023,0.5,0.023,0.849c0.077,0.003,0.142,0.004,0.195,0.004C40.582,8.562,40.804,8.407,40.804,8.097z"/>
		<path fill="#F9F9FA" d="M44.602,8.612c0,0.43-0.132,0.786-0.395,1.069s-0.589,0.424-0.977,0.424c-0.37,0-0.679-0.13-0.928-0.39
			s-0.374-0.59-0.374-0.99c0-0.43,0.131-0.786,0.395-1.069s0.589-0.424,0.977-0.424c0.37,0,0.679,0.129,0.928,0.389
			C44.478,7.879,44.602,8.21,44.602,8.612z M44.022,8.672c0-0.292-0.075-0.53-0.225-0.711c-0.15-0.182-0.335-0.273-0.555-0.273
			c-0.205,0-0.378,0.092-0.521,0.275c-0.143,0.184-0.214,0.416-0.214,0.696c0,0.291,0.075,0.528,0.226,0.71
			c0.15,0.183,0.335,0.274,0.553,0.274c0.205,0,0.378-0.092,0.521-0.276C43.951,9.183,44.022,8.951,44.022,8.672z"/>
		<path fill="#F9F9FA" d="M45.79,10.029h-0.595c0.019-0.434,0.027-0.911,0.027-1.43c0-0.511-0.009-0.946-0.027-1.304h0.595
			c-0.019,0.353-0.028,0.788-0.028,1.304C45.762,9.127,45.771,9.604,45.79,10.029z"/>
		<path fill="#F9F9FA" d="M48.834,8.567c0,0.398-0.128,0.745-0.383,1.042s-0.611,0.445-1.07,0.445c-0.208,0-0.493-0.009-0.857-0.025
			c0.019-0.423,0.027-0.899,0.027-1.43c0-0.51-0.009-0.944-0.027-1.304h0.367c0.061,0,0.15-0.002,0.27-0.006
			c0.119-0.004,0.196-0.006,0.232-0.006c0.506,0,0.872,0.126,1.1,0.378S48.834,8.215,48.834,8.567z M48.261,8.658
			c0-0.269-0.079-0.496-0.235-0.68c-0.157-0.184-0.396-0.276-0.719-0.276c-0.06,0-0.143,0.006-0.248,0.019
			c0.015,0.28,0.021,0.573,0.021,0.878c0,0.334,0.007,0.667,0.021,0.996c0.092,0.018,0.183,0.027,0.273,0.027
			c0.301,0,0.524-0.093,0.669-0.28C48.188,9.155,48.261,8.927,48.261,8.658z"/>
		<path fill="#F9F9FA" d="M52.872,10.029H52.2c0-0.092-0.063-0.354-0.191-0.786h-0.971c-0.131,0.424-0.197,0.687-0.197,0.786h-0.632
			c0-0.055,0.163-0.502,0.49-1.344c0.327-0.841,0.49-1.305,0.49-1.39h0.794c0,0.08,0.148,0.537,0.444,1.37
			C52.724,9.499,52.872,9.954,52.872,10.029z M51.901,8.843c-0.239-0.723-0.358-1.113-0.358-1.172h-0.034
			c0,0.055-0.124,0.445-0.371,1.172H51.901z"/>
		<path fill="#F9F9FA" d="M55.322,8.011c0,0.334-0.125,0.582-0.373,0.741c-0.249,0.16-0.554,0.239-0.915,0.239
			c-0.065,0-0.112-0.001-0.141-0.004c0,0.263,0.008,0.61,0.023,1.042h-0.59c0.018-0.404,0.027-0.881,0.027-1.43
			c0-0.504-0.01-0.939-0.027-1.304h0.365c0.052,0,0.151-0.002,0.298-0.006c0.147-0.004,0.274-0.006,0.383-0.006
			c0.266,0,0.49,0.06,0.674,0.181S55.322,7.766,55.322,8.011z M54.78,8.126c0-0.299-0.199-0.449-0.597-0.449
			c-0.1,0-0.204,0.01-0.315,0.031c0.016,0.265,0.023,0.564,0.023,0.899c0.035,0.003,0.076,0.004,0.122,0.004
			C54.524,8.612,54.78,8.45,54.78,8.126z"/>
		<path fill="#F9F9FA" d="M57.841,8.011c0,0.334-0.124,0.582-0.373,0.741c-0.248,0.16-0.553,0.239-0.914,0.239
			c-0.066,0-0.113-0.001-0.141-0.004c0,0.263,0.007,0.61,0.022,1.042h-0.59c0.019-0.404,0.027-0.881,0.027-1.43
			c0-0.504-0.009-0.939-0.027-1.304h0.365c0.052,0,0.151-0.002,0.299-0.006c0.146-0.004,0.274-0.006,0.382-0.006
			c0.266,0,0.49,0.06,0.674,0.181S57.841,7.766,57.841,8.011z M57.299,8.126c0-0.299-0.198-0.449-0.597-0.449
			c-0.099,0-0.204,0.01-0.314,0.031c0.016,0.265,0.022,0.564,0.022,0.899c0.035,0.003,0.076,0.004,0.122,0.004
			C57.044,8.612,57.299,8.45,57.299,8.126z"/>
		<path fill="#F9F9FA" d="M61.959,8.612c0,0.43-0.131,0.786-0.395,1.069s-0.589,0.424-0.977,0.424c-0.37,0-0.68-0.13-0.929-0.39
			s-0.374-0.59-0.374-0.99c0-0.43,0.132-0.786,0.396-1.069c0.263-0.283,0.589-0.424,0.977-0.424c0.369,0,0.679,0.129,0.928,0.389
			C61.835,7.879,61.959,8.21,61.959,8.612z M61.38,8.672c0-0.292-0.075-0.53-0.225-0.711c-0.15-0.182-0.335-0.273-0.555-0.273
			c-0.205,0-0.378,0.092-0.521,0.275c-0.143,0.184-0.214,0.416-0.214,0.696c0,0.291,0.075,0.528,0.226,0.71
			c0.15,0.183,0.335,0.274,0.554,0.274c0.204,0,0.378-0.092,0.521-0.276C61.309,9.183,61.38,8.951,61.38,8.672z"/>
		<path fill="#F9F9FA" d="M64.806,10.029h-0.519c0-0.057-0.192-0.36-0.577-0.909c-0.403-0.579-0.633-0.974-0.689-1.187h-0.033
			c0.035,0.307,0.053,0.584,0.053,0.832c0,0.346,0.01,0.767,0.029,1.264h-0.517c0.021-0.434,0.031-0.911,0.031-1.43
			c0-0.511-0.011-0.946-0.031-1.304h0.623c0,0.074,0.174,0.37,0.52,0.889c0.368,0.55,0.579,0.923,0.634,1.119h0.031
			c-0.033-0.312-0.05-0.592-0.05-0.84c0-0.379-0.01-0.769-0.029-1.167h0.524c-0.02,0.347-0.029,0.782-0.029,1.304
			C64.776,9.125,64.786,9.603,64.806,10.029z"/>
	</g>
	<g>
		<defs>
			<path id="SVGID_1_" d="M21.351,13.739l-4.891-2.823c0,0-8.91-5.145-9.434-5.447C6.502,5.166,5.98,5.349,5.98,5.981
				c0,1.053,0,10.985,0,10.985s0,10.734,0,11.207c0,0.475,0.373,0.68,0.828,0.416c0.455-0.264,9.652-5.572,9.652-5.572l4.891-2.824
				c0,0,4.149-2.395,4.701-2.713c0.551-0.319,0.499-0.756,0.033-1.007C25.619,16.222,21.351,13.739,21.351,13.739z"/>
		</defs>
		<clipPath id="SVGID_2_">
			<use xlink:href="#SVGID_1_"  overflow="visible"/>
		</clipPath>
		<polygon clip-path="url(#SVGID_2_)" fill="#FFFFFF" points="5.785,5.926 5.785,17.002 5.785,28.077 16.955,17.002 		"/>
		<polygon clip-path="url(#SVGID_2_)" fill="#FFFFFF" points="20.77,13.212 16.261,10.609 6.6,5.031 6.6,5.112 17.77,16.188 		"/>
		<polygon clip-path="url(#SVGID_2_)" fill="#FFFFFF" points="6.6,28.894 6.6,28.974 16.261,23.396 20.77,20.792 17.77,17.817 		"/>
		<polygon clip-path="url(#SVGID_2_)" fill="#FFFFFF" points="21.656,13.917 18.584,16.963 21.656,20.009 26.933,16.963 		"/>
	</g>
</g>
</svg>
