<?xml version="1.0" encoding="utf-8"?>
<!-- Generator: Adobe Illustrator 16.0.0, SVG Export Plug-In . SVG Version: 6.00 Build 0)  -->
<!DOCTYPE svg PUBLIC "-//W3C//DTD SVG 1.1//EN" "http://www.w3.org/Graphics/SVG/1.1/DTD/svg11.dtd">
<svg version="1.1" id="Layer_1" xmlns="http://www.w3.org/2000/svg" xmlns:xlink="http://www.w3.org/1999/xlink" x="0px" y="0px"
	 width="44px" height="44px" viewBox="0 0 44 44" enable-background="new 0 0 44 44" xml:space="preserve">
<circle fill="#E86F72" cx="22" cy="22.001" r="22"/>
<g>
	<path fill-rule="evenodd" clip-rule="evenodd" fill="#FFFFFF" d="M18.591,28.867c-0.088,0.116-0.137,0.159-0.16,0.213
		c-0.387,0.879-0.921,1.809-0.294,2.719c0.649,0.943,1.744,0.861,2.752,0.797c0.481-0.031,0.957-0.154,1.605-0.266
		c-0.19,0.297-0.303,0.473-0.406,0.634c0.087,0.128,0.203,0.298,0.427,0.63c-0.422,0-0.654,0-0.887,0
		c-2.386,0-4.773-0.023-7.159,0.009c-1.35,0.019-2.566-0.25-3.517-1.269c-0.253,0.391-0.433,0.804-0.73,1.098
		c-0.711,0.702-1.884,0.344-2.101-0.606c-0.155-0.679,0.159-1.017,0.95-0.956c-0.101,0.143-0.262,0.268-0.254,0.381
		c0.017,0.232,0.123,0.457,0.193,0.686c0.204-0.104,0.574-0.193,0.584-0.314c0.067-0.77,0.139-1.557,0.047-2.316
		c-0.128-1.059-0.435-2.094-0.603-3.148c-0.632-3.971,0.821-7.022,4.145-9.219c0.482-0.319,0.99-0.603,1.503-0.871
		c1.283-0.671,2.407-1.526,3.262-2.71c0.861-1.192,2.132-1.791,3.424-2.36c0.245-0.107,0.477-0.255,0.732-0.324
		c0.896-0.241,1.349-0.7,1.451-1.729c0.101-0.995,0.716-1.879,1.528-2.666c0.746,1.004,0.714,2.115,0.9,3.307
		c1.083-0.128,2.172-0.26,3.262-0.386c0.285-0.033,0.578-0.099,0.858-0.07c0.911,0.095,1.521-0.315,1.847-1.118
		c0.257-0.63,0.652-0.583,1.024-0.238c0.468,0.434,0.871,0.946,1.251,1.462c0.098,0.132,0.072,0.443-0.017,0.608
		c-0.262,0.49-0.53,0.993-0.89,1.411c-0.885,1.027-1.418,2.194-1.664,3.52c-0.175,0.939-0.684,1.675-1.495,2.209
		c-0.167,0.11-0.337,0.38-0.328,0.568c0.113,2.571-0.673,4.853-2.52,6.604c-1.591,1.508-1.539,3.195-1.025,5.014
		c0.325,1.148,0.815,2.25,1.247,3.413c-0.164-0.083-0.369-0.187-0.574-0.29c-0.267,0.446-0.973,0.465-1.186-0.06
		c-0.483-1.19-0.885-2.413-1.314-3.625c-0.049-0.14-0.064-0.291-0.114-0.525c-0.562,0.587-1.048,1.124-1.563,1.632
		c-0.871,0.859-1.897,1.299-3.149,1.135c-0.913-0.118-1.263-0.471-1.229-1.402C18.423,29.946,18.52,29.449,18.591,28.867z
		 M25.021,14.08c-0.143,0.977,0.18,1.76,0.9,2.353c1.035,0.853,2.21,0.842,3.455,0.423C27.432,16.697,25.715,16.202,25.021,14.08z"
		/>
	<path fill-rule="evenodd" clip-rule="evenodd" fill="#FFFFFF" d="M29.656,33.511c-0.759,0.239-1.175-0.021-1.518-0.643
		c-0.902-1.635-1.391-3.389-1.48-5.229c-0.024-0.496,0.391-1.014,0.727-1.499C27.668,28.758,28.008,31.3,29.656,33.511z"/>
	<path fill-rule="evenodd" clip-rule="evenodd" fill="#FFFFFF" d="M27.209,7.613c0.48,0.546,0.574,1.21,0.387,1.889
		c-0.043,0.154-0.446,0.267-0.691,0.283c-0.127,0.009-0.402-0.261-0.384-0.363c0.114-0.613,0.293-1.213,0.45-1.818
		C27.051,7.607,27.13,7.61,27.209,7.613z"/>
</g>
</svg>
