<?xml version="1.0" encoding="utf-8"?>
<!-- Generator: Adobe Illustrator 16.0.0, SVG Export Plug-In . SVG Version: 6.00 Build 0)  -->
<!DOCTYPE svg PUBLIC "-//W3C//DTD SVG 1.1//EN" "http://www.w3.org/Graphics/SVG/1.1/DTD/svg11.dtd">
<svg version="1.1" id="Layer_1" xmlns="http://www.w3.org/2000/svg" xmlns:xlink="http://www.w3.org/1999/xlink" x="0px" y="0px"
	 width="210.75px" height="70px" viewBox="0 0 210.75 70" enable-background="new 0 0 210.75 70" xml:space="preserve">
<g>
	<g>
		<path fill="#DD1F27" d="M88.281,19.604l-0.061,0.15l-0.208-0.059l-0.152,0.12l-0.419,0.151c-0.36,0.039-0.653,0.11-0.871,0.21
			l-0.69,0.48l-0.303,0.21l-0.388,0.271l-0.301,0.209l-1.833,1.65l-0.51,0.332l-0.12,0.09l-0.361,0.271l-0.39,0.332l-1.052,1.109
			v0.421c0.742,1.102,1.612,1.831,2.614,2.191c1.102,0.641,2.232,0.712,3.393,0.211c0,0.381-0.05,0.84-0.15,1.381
			c0,0.28-0.02,0.441-0.06,0.48v0.481l-0.061,0.359l-0.091,0.482l-0.059,0.39l-0.059,0.511l-0.151,1.353l-0.06,0.36
			c-0.04,0.36-0.059,0.679-0.059,0.96l-0.091,0.271l-0.061,0.362l-0.061,0.6l-0.09,0.568l-0.059,0.542
			c0,0.281-0.021,0.511-0.061,0.691c-0.04,0.36-0.061,0.679-0.061,0.96v0.69l-0.088,0.54v0.841l0.088,0.213v0.419l0.18,0.75
			l0.151,0.421c0.1,0.601,0.24,1.103,0.422,1.5c0.399,0.741,0.9,1.272,1.5,1.592h0.21c0.381,0.323,0.772,0.531,1.171,0.632
			c2.123-1.563,3.484-3.494,4.084-5.796c-0.1,0.04-0.219,0.021-0.361-0.06v0.18l-0.119,0.091l-0.089,0.209l0.089,0.211
			c-0.28,0.259-0.451,0.579-0.511,0.961l-0.269-0.088l-0.121,0.359c-0.061-0.181,0.009-0.392,0.21-0.63l-0.089-0.212l0.269-0.691
			c0.14-0.541,0.331-1.021,0.571-1.441l-0.21-0.121c0.18-0.239,0.25-0.519,0.21-0.839l0.121-0.54c0.14-0.24,0.238-0.432,0.299-0.572
			l0.54-1.502l0.062-0.419l0.09-0.631l0.119-0.271c0.18-0.319,0.299-0.588,0.36-0.808l0.389-0.843v-0.418l0.301-0.392
			c0.322-0.561,0.452-1.12,0.392-1.681l0.209-0.481l0.089,0.21v0.57l-0.089,0.272c0,0.46-0.011,0.86-0.03,1.201
			c-0.02,0.339-0.079,0.67-0.179,0.99c0.14,0.242,0.1,0.363-0.121,0.363c-0.059,0.358-0.019,0.399,0.121,0.117l0.089,0.21
			c-0.059,0.242-0.059,0.431,0,0.571l-0.089,0.751l-0.061,0.541v3.182l0.061,0.48c-0.041,0.502-0.041,0.912,0,1.231v1.804
			l-0.061,0.417l0.061,0.393l-0.061,0.421v4.895l0.061,0.15l-0.061,0.211c0.099,0.259,0.121,0.529,0.061,0.811
			c0.1,0.74,0.079,1.38-0.061,1.921l0.27,0.422c0.38,1.1,0.931,1.971,1.652,2.61c0.781,0.101,1.271-0.24,1.472-1.019
			c0.259,0.318,0.39,0.179,0.39-0.421l0.21,0.36c0-0.381-0.021-0.681-0.059-0.901c0.178,0.139,0.269,0.301,0.269,0.479
			c0.24-0.099,0.4-0.239,0.48-0.419c0.18,0.101,0.34,0.101,0.48,0l-0.061-1.173l-0.148-0.269c-0.082-0.602-0.122-1.111-0.122-1.531
			c-0.281,0.101-0.421,0.288-0.421,0.571c0.042-1.523-0.08-2.005-0.36-1.442c-0.04-0.281-0.06-0.511-0.06-0.692
			c-0.18,0.081-0.29,0.19-0.329,0.331l-0.091-0.059c0.061-0.603,0.251-1.111,0.571-1.535c-0.24,0.424-0.27,0.813-0.091,1.174
			c0.059-0.081,0.059-0.171,0-0.271c0.242-0.421,0.41-0.763,0.511-1.021c-0.14,0.142-0.209,0.109-0.209-0.091
			c0.079-0.22,0.168-0.22,0.271,0c0.179-0.32,0.219-0.609,0.12-0.87c0.1-0.1,0.148-0.22,0.148-0.359
			c-0.179-0.32-0.29-0.07-0.329,0.75c-0.2,0.139-0.321,0.301-0.361,0.479c-0.04-0.36-0.04-0.679,0-0.961l-0.42,1.17
			c-0.08-0.499-0.031-0.979,0.151-1.438l0.059-0.752c0.1-0.42,0.259-0.771,0.481-1.051c-0.179-0.121-0.362-0.159-0.54-0.121
			c0.038-1.881-0.052-1.4-0.271,1.443l-0.152-0.21l0.061-0.481l-0.061-0.212l0.061-0.419c-0.079-0.461-0.03-0.873,0.15-1.231
			l-0.15-0.12c0.099-0.2,0.241-0.229,0.42-0.091c0.04-0.18,0.16-0.269,0.361-0.269c-0.102-0.281-0.131-0.532-0.09-0.752
			c0.059,0.22,0.16,0.379,0.299,0.482l-0.09-0.213l-0.061-0.419l-0.059-1.172c-0.141,0.38-0.17,0.703-0.09,0.961
			c0,0.241-0.111,0.36-0.33,0.36v0.752c-0.103-0.461-0.031-0.871,0.209-1.231c-0.24-0.242-0.401-0.041-0.48,0.601
			c-0.141-0.22-0.121-0.682,0.059-1.383c0.101,0.661,0.151,0.603,0.151-0.179l-0.151-0.361c0.101-0.36,0.03-0.61-0.21-0.751v0.961
			c0,0.422-0.019,0.791-0.059,1.112l-0.151-0.481c0-0.24,0.051-0.431,0.151-0.57l-0.06-0.21c0.04-0.321,0.04-0.59,0-0.812
			c-0.061-0.319-0.04-0.618,0.06-0.899c0.041,0.281,0.129,0.329,0.27,0.15c0.041-0.321-0.051-0.422-0.27-0.303l-0.06-0.27
			c-0.14,0.88-0.28,0.972-0.42,0.27c0.141-0.539,0.141-1.04,0-1.5c-0.06,0.322-0.111,0.73-0.151,1.23
			c-0.081-0.32-0.189-0.32-0.331,0l0.061-0.33v-1.649c0.101-0.522,0.151-0.942,0.151-1.264c0.18-0.08,0.27-0.21,0.27-0.388
			l0.12,0.539c0.061-0.281,0.181-0.511,0.361-0.69l0.059-0.15c0-0.323,0.021-0.592,0.061-0.812c0.061-0.319,0.131-0.531,0.21-0.632
			c-0.04-0.281-0.01-0.529,0.091-0.749v-0.69l0.391-0.632l0.09-0.122c0.359-0.378,0.609-0.75,0.749-1.11
			c0.14,0.42,0.123,0.812-0.059,1.171c0.219-0.359,0.331-0.73,0.331-1.111c0.24-0.081,0.381-0.24,0.42-0.48
			c0.04,0.2,0.131,0.2,0.269,0c0.042-0.462,0.18-0.872,0.421-1.231c0.08-0.741,0.332-1.311,0.751-1.712v-1.171
			c-0.6-1.701-1.472-2.463-2.612-2.282l-0.212-0.212c-1.741,0.181-3.164,0.823-4.264,1.923l0.06,1.38l-0.149,0.151l-0.542,0.961
			c-0.039,0.14-0.151,0.371-0.329,0.692l-0.151,0.119c-0.099,0.28-0.221,0.488-0.362,0.63l-0.059,0.21l-0.812,1.381
			c0.04,0.14,0.026,0.292-0.044,0.452c-0.07,0.159-0.126,0.26-0.164,0.299l-0.483,0.902c-0.14,0.28-0.28,0.51-0.42,0.69l-0.149,0.12
			l-1.023,2.013l0.063-1.11c-0.221,0.319-0.361,0.668-0.421,1.051v0.21c-0.22,0.258-0.38,0.509-0.481,0.749
			c-0.139,0-0.23-0.05-0.269-0.149c-0.422,0.278-0.402,0.189,0.059-0.271l0.21,0.36c0.141-0.38,0.24-0.709,0.301-0.99
			c0.041-0.181-0.149-0.181-0.569,0l0.209-0.181c-0.041-0.46,0.029-0.851,0.21-1.171c-0.242,0.04-0.452-0.03-0.632-0.211
			l0.271-0.419l0.151-0.541c0-0.701,0.121-1.322,0.36-1.863l0.12-0.209v-0.27c0.181-0.66,0.3-1.193,0.359-1.591l0.123-0.209
			c0.038-0.382,0.129-0.683,0.269-0.903v-0.209l0.151-0.812l0.059,0.33l-0.119,0.481c0,0.6-0.1,1.112-0.299,1.53v0.181l-0.061,0.51
			c0.14,0.783,0.12,1.511-0.063,2.192c0.142,0.361,0.322,0.312,0.541-0.149c0-0.18-0.088-0.29-0.271-0.331l0.632-1.531
			c0.22-0.541,0.29-1.041,0.21-1.502c0.901-3.123,0.351-5.425-1.651-6.907c-0.562-0.041-1.021-0.1-1.38-0.181L88.281,19.604
			L88.281,19.604z M94.348,35.4c-0.099,0.359-0.26,0.658-0.481,0.9c0.14,0.321,0.25,0.301,0.331-0.059
			C94.337,35.96,94.387,35.679,94.348,35.4L94.348,35.4z M98.881,35.55c-0.04,0.681,0.01,0.681,0.15,0H98.881L98.881,35.55z
			 M99.512,39.272c-0.141,0.361-0.23,0.702-0.269,1.021C99.522,39.975,99.614,39.634,99.512,39.272L99.512,39.272z M99.873,43.658
			c0.08,0.52,0.12,0.941,0.12,1.262C100.234,44.459,100.193,44.038,99.873,43.658L99.873,43.658z M99.992,47.532
			c-0.08,0.28-0.059,0.53,0.061,0.75C100.113,48.001,100.094,47.752,99.992,47.532L99.992,47.532z M98.762,49.874
			c-0.04,0.423-0.132,0.371-0.271-0.148L98.762,49.874z"/>
		<path fill="#DD1F27" d="M109.243,23.749c-5.367,5.123-6.727,9.769-4.086,13.934c0.321,1.442,0.963,2.604,1.923,3.481l1.683,0.964
			c1.44,0.401,2.564,1.04,3.363,1.922c-1.681,2.641-3.562,3.442-5.646,2.402c0.082-0.401,0.042-0.762-0.119-1.081l-0.601,0.238
			c-0.401,0.48-0.801,0.801-1.2,0.961c-0.401,1.043-0.562,2.003-0.482,2.883c0.722-0.159,1.362-0.199,1.924-0.119l0.239-0.241
			c0.8-0.238,1.443-0.48,1.922-0.719l0.96-0.361l0.24-0.24c1.523-0.401,2.804-1.001,3.844-1.802c-0.08-0.4-0.04-0.762,0.121-1.079
			l-0.121-0.242l-0.48-0.721l-0.6-1.082c-1.842-0.4-2.523-0.92-2.042-1.562c-1.441-0.079-2.601-0.679-3.483-1.801
			c-0.562-0.801-0.48-1.399,0.241-1.802c0.4-0.481,0.721-0.481,0.961,0l0.599-0.241l-0.361-0.24c0.641-0.56,0.641-0.761,0-0.6
			l0.483-0.359c1.28-0.242,1.361-0.12,0.239,0.359v0.359c0.961-0.48,1.682-1.121,2.161-1.92c0.561-1.682,0.321-2.042-0.721-1.082
			l0.601-0.72c0.161-1.202,0.721-1.922,1.68-2.162c0-0.399,0.161-0.681,0.484-0.842l-0.362-0.96c0.16-0.081,0.281-0.081,0.362,0
			c1.039-0.799,2.161-1.24,3.362-1.322c0.481-0.641,1.043-0.961,1.68-0.961l0.122-0.601c-0.481-0.88-1.121-1.441-1.921-1.68
			c-0.963-0.803-1.882-0.642-2.763,0.478l-0.12-0.239l-0.96-0.36h-0.362C111.043,24.109,110.122,23.829,109.243,23.749
			L109.243,23.749z M108.281,29.875c0,0.721-0.279,1.281-0.84,1.682c-0.403,0.401-0.683,0.921-0.842,1.561
			c-0.08-1.281,0.359-2.242,1.321-2.883l-0.359,0.842C107.881,30.677,108.121,30.274,108.281,29.875L108.281,29.875z M106.6,30.234
			c-0.4,0.641-0.641,1.201-0.721,1.682c0.08-0.72,0.28-1.361,0.6-1.922L106.6,30.234L106.6,30.234z M109.723,31.797
			c-0.32,1.441-1.121,2.241-2.4,2.402l0.119-0.241l0.36-0.479l0.84-1.322C108.961,32.637,109.323,32.517,109.723,31.797
			L109.723,31.797z M117.049,33.958l-0.24,0.241l-0.481,0.24c-1.042,0.721-1.882,1.442-2.523,2.163l-0.24,0.24
			c-0.96,0.8-1.719,1.601-2.281,2.403l0.482-0.361l3.963-3.843c0.879-0.482,1.601-1.042,2.161-1.682L117.049,33.958L117.049,33.958z
			 M107.322,36.48c0.159,0.24,0.08,0.32-0.243,0.24L107.322,36.48L107.322,36.48z M107.682,44.408c0.32-0.319,0.519-0.641,0.6-0.961
			L107.682,44.408z"/>
		<path fill="#DD1F27" d="M121.766,25.82c-0.062,0.04-0.17,0.101-0.332,0.18l-0.119,0.211l-0.543,0.601
			c-0.338,0.28-0.359,0.451-0.059,0.51c0.041,0.32-0.079,0.582-0.361,0.782c-0.18,0.24-0.149,0.278,0.091,0.119
			c-0.059,0.121-0.149,0.2-0.271,0.24c0.02,0.061,0.02,0.101,0,0.121l-0.149,0.148c-0.122,0.16-0.221,0.281-0.3,0.361
			c-0.301,0.301-0.511,0.571-0.631,0.811c-0.061,0.101-0.071,0.071-0.03-0.09c-0.24,0.082-0.38,0.24-0.422,0.481
			c-0.2,0.121-0.359,0.25-0.479,0.389c-0.02,0.182-0.08,0.303-0.18,0.362c-0.061,0.14-0.11,0.261-0.15,0.36l-0.09,0.15l-0.18,0.18
			c0,0.121-0.02,0.2-0.059,0.24l-0.542,0.87c-0.138,0.261-0.3,0.471-0.48,0.633l-0.119,0.027l-0.061-0.148
			c-0.199,0.238-0.34,0.49-0.42,0.75c-0.161,0.459-0.229,0.44-0.209-0.059c-0.22,0.219-0.331,0.459-0.331,0.719l0.061,0.061
			c-0.082,0.14-0.13,0.271-0.152,0.39c-0.059,0.081-0.119,0.081-0.18,0c-0.021,0.181-0.059,0.312-0.119,0.391l-0.391,1.711
			l0.031,0.27l-0.061,0.092c0.039,0.599,0.209,1.13,0.509,1.59c0.5,0.563,1.082,0.822,1.743,0.784
			c0.018-0.082,0.089-0.152,0.21-0.212l0.241-0.181c0.179-0.122,0.309-0.21,0.39-0.271l0.089-0.061l0.451-0.329l0.421-0.422
			l0.12-0.029c0.2-0.26,0.341-0.42,0.421-0.48l0.208-0.39l0.091-0.059l0.211-0.332l0.059-0.149l0.09-0.032
			c0.039-0.14,0.11-0.26,0.21-0.359l0.18-0.3l0.271-0.329c0.079-0.202,0.169-0.351,0.27-0.451V35.52l0.12,0.09
			c0.121-0.2,0.271-0.371,0.451-0.51l0.091-0.06c0.039-0.061,0.029-0.131-0.03-0.211l0.269-0.301l-0.06,0.212
			c0.121-0.081,0.2-0.172,0.241-0.272l-0.029-0.418c0.119,0,0.189-0.061,0.209-0.182c0.04,0.061,0.09,0.1,0.148,0.121
			c0.121-0.581,0.353-1.052,0.692-1.412l0.121-0.121v-0.12c0.12-0.221,0.208-0.41,0.269-0.571l0.031,0.12l0.149,1.443l0.03,0.12
			l0.03,1.771l0.03,0.181v0.961l0.031,0.148v0.303l0.06,0.389v0.39l0.031,0.121v0.271l0.028,0.06l0.031,0.811l0.09,0.091
			c0.22,0.302,0.441,0.521,0.661,0.66c0.5-0.179,0.81-0.521,0.932-1.021l0.209,0.031c-0.018-0.241-0.13-0.4-0.332-0.48v-0.15
			l-0.088,0.03c-0.082-0.021-0.13-0.039-0.152-0.06c0.042-0.3-0.01-0.551-0.148-0.752c-0.06,0.143-0.071,0.261-0.032,0.361
			c-0.019,0.221-0.039,0.231-0.059,0.028c-0.06-0.14-0.069-0.258-0.032-0.36l-0.178-0.12l0.03,0.48l-0.091-0.089v-0.09
			c-0.019-0.14-0.019-0.27,0-0.391l-0.03-0.119v-0.722l0.09-0.03L124.407,36l0.03-1.08c0.061,0.34,0.07,0.63,0.03,0.871
			c0.061-0.421,0.11-0.481,0.15-0.18V35.37c-0.04-0.46-0.009-0.85,0.088-1.17l0.091-0.03c-0.019-0.34,0.02-0.642,0.121-0.9
			c0.121-0.161,0.18-0.34,0.18-0.541c0.039,0.14,0.062,0.259,0.062,0.358c0.079-0.48,0.147-0.62,0.209-0.419v-0.21l0.149,0.121
			l-0.06-0.09l0.089-0.12l0.031-0.571c0.04-0.14,0.089-0.241,0.15-0.301c0.019-0.219,0.09-0.401,0.21-0.541
			c0.059-0.199,0.119-0.369,0.179-0.509c0.019-0.261,0.009-0.49-0.03-0.692c-0.399-0.479-0.872-0.765-1.411-0.855
			c-0.541-0.089-1,0.006-1.381,0.287l-0.39,0.149c-0.14,0.322-0.151,0.622-0.029,0.901l-0.962,1.651l-0.12,0.091l-0.632,0.93
			c-0.118,0.22-0.239,0.392-0.359,0.511l-0.36,0.541l-0.059,0.061l-0.152,0.21l-0.059,0.061l-0.569,0.811l-0.273,0.3l-2.009,2.102
			c-0.182,0.08-0.223,0.04-0.121-0.121l-0.091,0.031c0.061-0.182,0.1-0.341,0.121-0.479c0.079-0.141,0.129-0.271,0.147-0.393
			c-0.299,0.239-0.479,0.551-0.541,0.931c0-0.22,0.052-0.41,0.153-0.569c-0.101,0.08-0.162,0.068-0.181-0.03l0.06-0.121l0.089-0.241
			c0-0.238,0.032-0.451,0.09-0.629c0.3-0.701,0.261-0.69-0.121,0.031c0-0.201,0.041-0.374,0.121-0.511
			c0.222-0.441,0.191-0.451-0.09-0.031c0.14-0.219,0.202-0.42,0.181-0.601c0.021-0.162,0.031-0.29,0.031-0.39
			c0.159-0.58,0.229-0.689,0.208-0.329l0.061-0.091l0.362-0.63c-0.02,0.12-0.05,0.22-0.091,0.299l0.362-0.389
			c0.139-0.401,0.341-0.711,0.6-0.931c0.18-0.2,0.31-0.38,0.391-0.541c0.119-0.081,0.199-0.159,0.239-0.24l0.182-0.271l0.33-0.329
			c0.12-0.181,0.241-0.301,0.36-0.361c0.161-0.1,0.28-0.199,0.36-0.3l0.239-0.059l0.182-0.182c0.159-0.12,0.29-0.229,0.391-0.329
			c0.239-0.161,0.269-0.1,0.089,0.18c0.3-0.079,0.521-0.201,0.661-0.36c0.1,0.059,0.219,0.029,0.361-0.09l0.18-0.15l0.18-0.12
			c0.161-0.08,0.291-0.17,0.389-0.27l0.302-0.211l0.09-0.059l0.989-0.632c0.119-1.001-0.509-1.712-1.89-2.132
			c-0.24-0.021-0.44-0.021-0.601,0L121.766,25.82L121.766,25.82z M119.872,29.035c-0.039,0.098-0.119,0.209-0.238,0.329
			l-0.242,0.331C119.532,29.415,119.693,29.194,119.872,29.035L119.872,29.035z M122.606,33.086c0.06-0.02,0.09-0.079,0.09-0.18
			L122.606,33.086L122.606,33.086z M122.245,33.658c0.019,0.24,0.06,0.231,0.119-0.03c0.102-0.2,0.161-0.371,0.182-0.51
			L122.245,33.658L122.245,33.658z M116.058,33.208c-0.118,0.161-0.189,0.319-0.209,0.482
			C115.988,33.548,116.058,33.389,116.058,33.208L116.058,33.208z M117.89,34.05c0.182-0.102,0.212-0.212,0.091-0.332L117.89,34.05
			L117.89,34.05z M117.171,35.819c-0.162,0.423-0.15,0.423,0.03,0H117.171L117.171,35.819z M124.617,36.242
			c-0.1,0.198-0.128,0.399-0.089,0.6C124.586,36.602,124.617,36.401,124.617,36.242L124.617,36.242z M117.049,39.845
			c-0.08,0.06-0.149,0.108-0.211,0.149C116.959,39.975,117.031,39.925,117.049,39.845z"/>
		<path fill="#DD1F27" d="M110.022,21.587c-1.603,0.581-1.691,1.291-0.271,2.132c0.703,0.8,1.523,1.309,2.462,1.53l1.262,0.061
			l0.329-0.121h0.182c0.4-0.14,0.781-0.21,1.14-0.21c0.299-0.179,0.59-0.29,0.871-0.329l0.121-0.332c0.4,0,0.75-0.048,1.052-0.149
			c-0.302-0.221-0.302-0.299,0-0.24h0.93l0.479-0.089c0.303,0,0.562-0.021,0.781-0.061h0.662l0.271,0.061
			c0.359,0,0.671-0.021,0.93-0.061h0.541l0.119-0.06l3.063-0.061c0.439-0.1,0.841-0.151,1.201-0.151l0.722-0.059l0.119-0.061
			c0.543,0,1.01-0.07,1.413-0.209l1.442,0.149l0.328-0.149c0.441,0,0.821-0.04,1.144-0.12c0.878,0,1.649-0.131,2.312-0.392
			c-0.263-0.059-0.412-0.112-0.453-0.149l-0.478-0.061c-0.663,0.039-1.213,0.019-1.655-0.06l-0.389,0.06l-2.132,0.061l-0.391,0.059
			h-1.141c-0.521,0.061-0.959,0.061-1.321,0l-2.523,0.09l-0.719,0.06l-0.151,0.061h-2.432l-0.271-0.061h-0.33l-0.21-0.06h-0.991
			l-0.392-0.09l-3.723-0.18l-0.992-0.331l-1.38-0.39l-0.331-0.088H110.022z"/>
		<path fill="#DD1F27" d="M127.559,30.987c0,0.659,0.072,1.2,0.212,1.62v0.933l0.06,0.299c0,0.72,0.05,1.313,0.149,1.772
			l0.091,0.361l0.059,0.3l0.15,0.36l0.061,0.479l0.359,0.932c0.621,0.862,1.332,1.512,2.131,1.952l1.231-0.09
			c1.004-0.659,1.692-1.471,2.074-2.433c0.478,1.202,0.65,2.373,0.509,3.516l0.118,0.569l-0.118,0.358l0.212,0.213l-0.094,0.148
			c-0.379,0.421-0.639,0.821-0.776,1.201c0.578-0.801,0.871-0.99,0.871-0.569c0.18,3.624-0.633,6.775-2.436,9.457l-0.207,0.063
			c-0.304,0.378-0.612,0.642-0.931,0.781l-0.362-0.571c-0.28-2.521,0.24-4.876,1.562-7.058l-0.421,0.331l-0.509,1.02l-0.12,0.151
			c-0.101,0.22-0.202,0.41-0.301,0.57c-0.141,0.459-0.313,0.861-0.512,1.202c-0.139,0.238-0.26,0.22-0.359-0.061v0.209
			c-0.14,0.48-0.181,0.883-0.121,1.202l-0.15,0.66c-0.1-0.521-0.1-1.001,0-1.441c-0.2,0.44-0.339,0.852-0.419,1.231v-0.873
			l0.419-1.709l-0.298,0.149l-0.272,0.931l-0.089,0.271v0.302l-0.061,0.42c-0.1,0.42-0.148,0.801-0.148,1.141
			c-0.181,0.479-0.272,0.911-0.272,1.29c-0.379,0.141-0.549,0.401-0.509,0.78l-0.211-0.568c0.141,0.62,0.122,1.119-0.059,1.502
			l0.419,0.99c0.863,0.341,1.533,0.319,2.013-0.061c0.181,0,0.41,0.021,0.69,0.061c0.301-0.081,0.569-0.1,0.812-0.061l0.691-0.15
			c2.579-2.281,3.753-4.614,3.513-6.996l0.151,0.061v-1.861c-0.102-0.14-0.151-0.331-0.151-0.572l0.091-0.361v-2.642l-0.091-0.21
			c0.059-0.581,0.059-1.062,0-1.441l0.66-0.631c0.619-0.481,1.07-0.981,1.352-1.502c0.14-0.2,0.329-0.341,0.571-0.42
			c-0.199,0.14-0.341,0.301-0.421,0.48c0.522-0.281,0.853-0.631,0.992-1.051c0.518,0.04,0.828-0.27,0.928-0.932l-0.419,0.271
			l-0.148,0.149l-0.304,0.212l-1.141,0.929l-0.149,0.15l-0.419,0.271c-0.14,0.201-0.283,0.35-0.422,0.451l-0.091,0.209
			c-0.218,0.1-0.379,0.24-0.479,0.423l0.781-0.423c-0.34,0.24-0.601,0.482-0.781,0.72c-0.14-0.199-0.31-0.349-0.509-0.449
			l0.21-0.362c-0.182-0.137-0.271-0.297-0.271-0.478l0.271-0.212l0.089-0.45l0.12-1.771c0.379-0.521,0.599-1.051,0.659-1.591
			c-1.441-0.521-2.782-0.491-4.021,0.089l-0.482,1.502l-0.362,0.631l0.062-0.271v-1.02l0.091-0.361c0-0.56,0.038-1.03,0.12-1.411
			c0.298-0.201,0.519-0.42,0.66-0.66l0.151-0.723c-0.922-0.218-1.422-0.5-1.501-0.84l-0.511-0.06
			c-0.241-0.16-0.431-0.26-0.571-0.301l-3.093-0.87L127.559,30.987L127.559,30.987z M135.428,38.553
			c0.24,0.48,0.308,0.962,0.209,1.441C135.459,39.454,135.388,38.974,135.428,38.553L135.428,38.553z M135.637,40.116
			c0.04,0.199,0.021,0.367-0.058,0.509C135.479,40.445,135.498,40.274,135.637,40.116L135.637,40.116z M135.999,42.276l0.06,0.211
			v1.502c-0.041,0.579-0.06,1.061-0.06,1.441c-0.101,0.279-0.122,0.52-0.06,0.72l-0.242-0.299c-0.079,0.099-0.099-0.021-0.06-0.36
			l0.21,0.209l-0.058-0.27c0.099-0.381,0.099-0.741,0-1.083l-0.093-0.21v-2.581c0.201-0.041,0.302-0.131,0.302-0.271V42.276
			L135.999,42.276z M135.848,42.067l-0.058,0.42c0.099,0.439,0.119,0.82,0.058,1.141c0.103-0.66,0.08-1.252-0.058-1.771
			L135.848,42.067L135.848,42.067z M134.436,42.128c-0.679,0.62-1.16,1.291-1.441,2.01l0.062-0.148l0.361-0.211
			c0.239-0.581,0.581-1.011,1.018-1.291V42.128L134.436,42.128z M135.218,50.774c0,0.482-0.19,0.792-0.571,0.934
			C134.926,51.326,135.119,51.015,135.218,50.774L135.218,50.774z M134.346,52.276c-0.279,0.682-0.728,1.182-1.351,1.502
			l0.151-0.121c0.24-0.14,0.4-0.308,0.481-0.509c0.24-0.2,0.361-0.372,0.361-0.511L134.346,52.276z"/>
		<circle fill-rule="evenodd" clip-rule="evenodd" cx="173.525" cy="32.896" r="13.402"/>
		<ellipse fill-rule="evenodd" clip-rule="evenodd" fill="#FFFFFF" cx="174.678" cy="39.349" rx="1.819" ry="1.833"/>
		<path fill-rule="evenodd" clip-rule="evenodd" fill="#FFFFFF" d="M172.702,26.974c0-1.011,0.814-1.832,1.822-1.832
			s1.822,0.821,1.822,1.832c0.001,1.013-0.814,1.834-1.822,1.834C173.519,28.809,172.702,27.987,172.702,26.974L172.702,26.974z
			 M169.539,34.732c4.032-2.471,9.324,1.082,11.109-5.824c1.479-7.922-5.828-8.75-5.828-8.75
			c-6.535-0.732-15.844,5.989-13.535,15.245c2.151,8.614,9.271,9.885,9.271,9.885C167.279,43.228,165.939,36.938,169.539,34.732z"/>
		<path fill="#DD1F27" stroke="#DD1F27" stroke-width="1.9998" stroke-miterlimit="2.6131" d="M10.304,1.929
			C9.788,2.352,9.508,2.76,9.459,3.158c-0.047,0.399-0.022,0.9,0.07,1.51l0.142,1.262l0.141,1.054v1.401
			c0.094,0.61,0.14,1.125,0.14,1.545v2.876l-0.14,0.983c0.235,1.215,0.282,2.174,0.14,2.877v4.981l0.211,0.701v3.298l0.141,0.772
			v1.193l-0.141,0.492l0.141,0.419v5.683l-0.141,0.772v1.403c0,0.609-0.07,1.124-0.211,1.544v1.684l-0.14,1.264v1.545
			c-0.282,1.216-0.375,2.243-0.282,3.087c-1.451,0.983-2.951,1.426-4.5,1.333c-2.952,1.779-3.817,3.789-2.6,6.036
			c0.609,0.513,1.218,0.863,1.83,1.051l0.35,0.14c1.829-0.187,3.47,0.024,4.921,0.633l1.056-0.633c0.327,0,0.585-0.092,0.773-0.28
			v-1.263c-0.188-0.514-0.282-0.957-0.282-1.334c0.188-1.122,0.494-2.058,0.915-2.806l0.281,0.139
			c0.656-0.281,1.545-0.536,2.672-0.77h0.913l0.423-0.141l0.983-0.141c11.389-0.297,12.419,0.296,22.852,3.509
			c1.641,0.506,2.764,0.115,3.374-1.194c-0.423-1.545-1.29-2.665-2.602-3.367c-9.704-1.566-11.026-1.956-20.882-1.545
			c-0.615,0.026-1.335-0.093-2.18,0c-0.608,0.096-1.383,0.189-2.32,0.281h-1.055l-0.28,0.143l-2.461,0.209l0.142-3.718
			c-0.235,0.702-0.447,1.261-0.635,1.683c-0.326,0.842-0.49,1.568-0.49,2.177c-0.094-0.235-0.142-0.608-0.142-1.125
			c0.421-1.916,0.469-3.6,0.142-5.052c0.232-0.421,0.35-0.843,0.35-1.262l-0.35-0.563c0.327-0.841,0.49-1.614,0.49-2.314
			c0.188-0.327,0.399-0.374,0.635-0.14c-0.096-1.169-0.048-2.105,0.14-2.808l0.14-6.456l0.352,1.685l0.141,0.912l0.422-0.141
			c0.142-0.512,0.142-0.981,0-1.402c-0.609-1.215-0.54-1.613,0.21-1.193c-0.327-1.545-0.14-2.782,0.562-3.718
			c-0.092-0.515-0.021-0.983,0.212-1.403c0.282-2.059,0.679-2.924,1.196-2.597v-0.912c-0.094-0.938-0.094-1.755,0-2.455
			c0.188-0.096,0.444-0.048,0.773,0.14c0.094-0.518,0.305-1.031,0.632-1.545c1.313-1.543,2.228-3.087,2.743-4.632
			C17.545,4.176,14.521,1.929,10.304,1.929L10.304,1.929z M11.709,32.102c-0.656,0.702-0.773,0.446-0.352-0.771L11.709,32.102
			L11.709,32.102z M11.358,48.521c-0.094,0.844-0.446,1.569-1.054,2.179C10.818,49.573,11.17,48.85,11.358,48.521z"/>
		<path fill="#DD1F27" d="M138.825,19.709c-0.167,0-0.308,0.047-0.425,0.14c-0.213,1.575,0.012,1.347,0.669,2.593
			c0.402,0.495,0.834,0.871,1.306,1.127c0.257,0.05,0.599,0.061,1.022,0.037h0.458l0.107-0.037h1.162l0.494-0.068
			c0.071,0,0.118,0.022,0.141,0.068l0.14-0.068l0.143,0.068l0.846,0.037l0.036,0.282c0,0.236,0.011,2.143,0.034,2.448l0.036,0.142
			v0.247l0.107,0.282l0.036,0.318c0,0.306,0.022,0.552,0.071,0.74c0.209-0.048,0.315,0.07,0.315,0.352
			c0.069,0.377,0.105,0.296,0.105-0.245l0.143,0.104l0.034,0.528l0.107,0.105l0.036-0.21c0.024,0.235-0.036,0.434-0.177,0.598
			c-0.143-0.164-0.327-0.234-0.563-0.21l0.069,0.74l0.035,0.07v0.353c0.022,0.424,0.022,0.774,0,1.059
			c0.046,0.305,0.069,0.563,0.069,0.776l-0.034,0.14c0.045,0.117,0.058,0.211,0.034,0.281l0.036,0.106l0.069,0.668
			c-0.042,0.166-0.042,0.272,0,0.32l0.037,1.055l0.037,0.284c-0.025,0.093-0.025,0.152,0,0.175l-0.037,0.282l0.037,0.14v1.131
			c0,0.26-0.012,0.493-0.037,0.704c0,0.048,0.025,0.07,0.069,0.07c0.025,0.048,0.059,0.143,0.107,0.282
			c-0.095,0.328-0.13,0.613-0.107,0.847l-0.033,0.143v0.247l-0.037,0.142c-0.026,0.469-0.037,0.81-0.037,1.021
			c-0.069,0.375-0.069,0.704,0,0.986l-0.174,0.142l0.105,0.106c-0.14,0.47-0.14,0.904,0,1.304l0.069,0.106l0.037,0.916
			c0,0.235,0.012,0.445,0.037,0.636c-0.025,0.609-0.073,0.658-0.143,0.141l-0.036,0.282c-0.163-0.33-0.234-0.13-0.214,0.6
			c-0.043,0.611,0.087,0.705,0.392,0.281l0.033,0.142v0.952l0.107-0.106c-0.048-0.141-0.048-0.259,0-0.353
			c-0.071-0.259,0.476-0.481,0.545-0.67l0.036-0.176c0-0.117,0.025-0.247,0.072-0.388c0.022-0.259,0.071-0.482,0.143-0.671
			c0.046,0.117,0.079,0.117,0.106,0l0.069-0.564l-0.069-0.21l0.209-1.306v-0.176l0.141-0.529c0-0.516,0.047-0.952,0.141-1.304
			c0.096,0,0.189,0.057,0.285,0.177c0.045-0.26,0.045-0.484,0-0.67c0.045-0.025,0.116-0.095,0.21-0.213
			c0.047-0.188,0.118-0.353,0.213-0.494c0-0.28,0.081-0.516,0.246-0.704v-0.106c0.069-0.259,0.118-0.576,0.14-0.952v-0.492
			l0.038-0.142c0-0.307,0.022-0.576,0.067-0.81v-0.247l0.072-0.074v-1.055l0.037-0.248v-0.423l0.035-0.177l0.034-0.247
			c0.118-0.257,0.166-0.505,0.143-0.74c0.141-0.422,0.264-1.904,0.264-1.904c0.167,0.329,0.236,0.683,0.212,1.058
			c0.023-0.024,0.046-0.106,0.071-0.247l0.035-0.845c0.046,0.258,0.141,0.41,0.283,0.456v-0.353h0.211
			c0-0.423,0.105-0.786,0.316-1.091c0.023-0.189,0.093-0.365,0.211-0.53l0.174-0.882l0.039-0.317v-0.529l0.037-0.247
			c0-0.211,0.021-0.411,0.067-0.598v-0.423c0.049-0.33,0.071-2.25,0.071-2.486l0.247-0.104c0.233,0,0.435-0.013,0.6-0.037
			l2.856-0.14l0.142-0.035l0.809-0.281c0.377-0.048,0.671,0.404,0.882,0.262l0.14-0.071c-0.115,0-0.209-0.046-0.28-0.142
			c0.071-0.021,0.118-0.021,0.141,0l0.106-0.069c0.212-0.07,0.388-0.164,0.528-0.283l0.106,0.072
			c0.234-0.094,0.445-0.142,0.635-0.142c0.046-0.094,0.117-0.14,0.211-0.14l-0.211-0.143c0.164-0.07,0.318-0.105,0.458-0.105
			c-0.046-0.118-0.106-0.118-0.176,0l-0.282-0.071c-0.189,0.024-0.342-0.011-0.457-0.105c0.469-0.188,0.869,0.788,1.196,0.739
			c0.329-0.046,0.341-0.094,0.038-0.14c0.28-0.142,0.538-0.201,0.772-0.175c0.048-0.072,0.024-0.143-0.067-0.214
			c0.258-0.257,0.539-0.41,0.844-0.456c0.19-0.401,0.471-0.659,0.847-0.776c-0.425,0.046-0.492-0.07-0.211-0.353
			c-0.118,0-0.203-0.035-0.246-0.106c0.278-0.141,0.479-0.329,0.598-0.564c-0.118-0.14-0.177-0.294-0.177-0.458h-0.563
			c-0.306,0.116-0.588,0.164-0.849,0.142c-0.305,0.046-0.232,0.081,0.214,0.105l-0.176,0.072c-0.281,0.094-0.566,0.128-0.847,0.104
			l-0.035,0.142c0.233,0,0.423-0.013,0.563-0.035c0.073,0.14,0.212,0.209,0.424,0.209c-0.307,0.048-0.574,0.064-0.811,0.052
			c-0.235-0.011-0.433-0.052-0.6-0.122c0.116-0.164,0.189-0.318,0.212-0.458c-0.352-0.048-0.658-0.06-0.917-0.037l-0.283-0.07
			l-0.104,0.037h-0.882c-0.235,0.022-0.422,0.022-0.563,0c-0.421,0.022-0.777,0.011-1.06-0.037l-0.28,0.037l-0.706-0.037
			c-0.143,0.024-0.246,0.024-0.315,0h-0.638l-0.104,0.037l-0.177-0.037h-2.785c-0.327,0.047-0.612,0.059-0.845,0.037l-4.055-0.106
			l-0.319-0.035l-3.137-0.07c-0.07,0.023-0.176,0.023-0.316,0c-0.236,0.023-0.447,0.023-0.636,0c-0.376,0.046-0.705,0.046-0.989,0
			L138.825,19.709L138.825,19.709z M160.647,20.732c-0.092,0.047-0.102,0.095-0.037,0.142l0.214-0.142H160.647L160.647,20.732z
			 M158.921,22.777c-0.213,0.117-0.163,0.14,0.14,0.071L158.921,22.777L158.921,22.777z M158.604,22.284
			c0.233-0.023,0.248-0.059,0.034-0.105L158.604,22.284L158.604,22.284z M149.366,32.015c0.071-0.164,0.06-0.318-0.036-0.458
			L149.366,32.015L149.366,32.015z M149.577,32.015c0,0.188,0.012,0.353,0.035,0.493C149.612,32.32,149.602,32.156,149.577,32.015
			L149.577,32.015z M148.499,38.996c0.073-0.163,0.097-0.319,0.073-0.459L148.499,38.996L148.499,38.996z M147.09,40.898
			c-0.094,0.447-0.094,0.825,0,1.129c0-0.164,0.013-0.304,0.038-0.421l0.174,0.28c0.093-0.563,0.048-0.763-0.14-0.6L147.09,40.898
			L147.09,40.898z M146.526,43.366c0.024,0.143,0.014,0.272-0.033,0.391C146.469,43.615,146.479,43.486,146.526,43.366z"/>
		<path fill="#DD1F27" d="M187.235,19.709c-0.166,0-0.304,0.047-0.424,0.14c-0.21,1.575,0.013,1.347,0.672,2.593
			c0.398,0.495,0.835,0.871,1.304,1.127c0.258,0.05,0.6,0.061,1.022,0.037h0.459l0.105-0.037h1.164l0.493-0.068
			c0.069,0,0.116,0.022,0.141,0.068l0.141-0.068l0.14,0.068l0.849,0.037l0.033,0.282c0,0.236,0.015,2.143,0.036,2.448l0.035,0.142
			v0.247l0.105,0.282l0.037,0.318c0,0.306,0.023,0.552,0.07,0.74c0.211-0.048,0.314,0.07,0.314,0.352
			c0.071,0.377,0.108,0.296,0.108-0.245l0.142,0.104l0.033,0.528l0.107,0.105l0.034-0.21c0.024,0.235-0.034,0.434-0.175,0.598
			c-0.142-0.164-0.329-0.234-0.564-0.21l0.069,0.74l0.034,0.07v0.353c0.025,0.424,0.025,0.774,0,1.059
			c0.047,0.305,0.071,0.563,0.071,0.776l-0.034,0.14c0.046,0.117,0.058,0.211,0.034,0.281l0.036,0.106l0.069,0.668
			c-0.045,0.166-0.045,0.272,0,0.32l0.034,1.055l0.037,0.284c-0.023,0.093-0.023,0.152,0,0.175l-0.037,0.282l0.037,0.14v1.131
			c0,0.26-0.012,0.493-0.037,0.704c0,0.048,0.025,0.07,0.071,0.07c0.025,0.048,0.061,0.143,0.107,0.282
			c-0.095,0.328-0.131,0.613-0.107,0.847l-0.034,0.143v0.247l-0.037,0.142c-0.021,0.469-0.034,0.81-0.034,1.021
			c-0.069,0.375-0.069,0.704,0,0.986l-0.177,0.142l0.107,0.106c-0.142,0.47-0.142,0.904,0,1.304l0.069,0.106l0.034,0.916
			c0,0.235,0.014,0.445,0.037,0.636c-0.023,0.609-0.071,0.658-0.141,0.141l-0.036,0.282c-0.164-0.33-0.233-0.13-0.211,0.6
			c-0.046,0.611,0.082,0.705,0.388,0.281l0.034,0.142v0.952l0.107-0.106c-0.047-0.141-0.047-0.259,0-0.353
			c-0.07-0.259,0.476-0.481,0.545-0.67l0.033-0.176c0-0.117,0.026-0.247,0.073-0.388c0.024-0.259,0.07-0.482,0.142-0.671
			c0.046,0.117,0.081,0.117,0.104,0l0.071-0.564l-0.071-0.21l0.211-1.306v-0.176l0.143-0.529c0-0.516,0.047-0.952,0.141-1.304
			c0.096,0,0.189,0.057,0.283,0.177c0.047-0.26,0.047-0.484,0-0.67c0.047-0.025,0.117-0.095,0.214-0.213
			c0.043-0.188,0.116-0.353,0.211-0.494c0-0.28,0.08-0.516,0.245-0.704v-0.106c0.071-0.259,0.116-0.576,0.14-0.952v-0.492
			l0.036-0.142c0-0.307,0.024-0.576,0.071-0.81v-0.247l0.07-0.074v-1.055l0.035-0.248v-0.423l0.036-0.177l0.035-0.247
			c0.118-0.257,0.164-0.505,0.14-0.74c0.143-0.422,0.267-1.904,0.267-1.904c0.162,0.329,0.234,0.683,0.209,1.058
			c0.025-0.024,0.049-0.106,0.073-0.247l0.033-0.845c0.046,0.258,0.141,0.41,0.283,0.456v-0.353h0.212
			c0-0.423,0.104-0.786,0.317-1.091c0.022-0.189,0.093-0.365,0.21-0.53l0.175-0.882l0.037-0.317v-0.529l0.034-0.247
			c0-0.211,0.025-0.411,0.071-0.598v-0.423c0.047-0.33,0.07-2.25,0.07-2.486l0.246-0.104c0.236,0,0.436-0.013,0.602-0.037
			l2.854-0.14l0.14-0.035l0.813-0.281c0.377-0.048,0.671,0.404,0.883,0.262l0.143-0.071c-0.122,0-0.215-0.046-0.284-0.142
			c0.069-0.021,0.118-0.021,0.142,0l0.104-0.069c0.214-0.07,0.39-0.164,0.532-0.283l0.105,0.072
			c0.233-0.094,0.445-0.142,0.634-0.142c0.047-0.094,0.118-0.14,0.21-0.14l-0.21-0.143c0.162-0.07,0.319-0.105,0.459-0.105
			c-0.049-0.118-0.107-0.118-0.177,0l-0.282-0.071c-0.188,0.024-0.341-0.011-0.461-0.105c0.473-0.188,0.871,0.788,1.2,0.739
			c0.328-0.046,0.342-0.094,0.036-0.14c0.281-0.142,0.54-0.201,0.776-0.175c0.046-0.072,0.022-0.143-0.07-0.214
			c0.258-0.257,0.538-0.41,0.845-0.456c0.188-0.401,0.469-0.659,0.845-0.776c-0.42,0.046-0.493-0.07-0.209-0.353
			c-0.118,0-0.202-0.035-0.246-0.106c0.278-0.141,0.479-0.329,0.596-0.564c-0.116-0.14-0.177-0.294-0.177-0.458h-0.561
			c-0.307,0.116-0.588,0.164-0.846,0.142c-0.308,0.046-0.237,0.081,0.21,0.105l-0.177,0.072c-0.28,0.094-0.562,0.128-0.849,0.104
			l-0.033,0.142c0.235,0,0.423-0.013,0.564-0.035c0.071,0.14,0.213,0.209,0.425,0.209c-0.307,0.048-0.577,0.064-0.813,0.052
			c-0.234-0.011-0.436-0.052-0.598-0.122c0.115-0.164,0.187-0.318,0.212-0.458c-0.352-0.048-0.659-0.06-0.92-0.037l-0.281-0.07
			l-0.104,0.037h-0.883c-0.234,0.022-0.423,0.022-0.565,0c-0.421,0.022-0.775,0.011-1.057-0.037l-0.283,0.037l-0.703-0.037
			c-0.143,0.024-0.247,0.024-0.318,0h-0.635l-0.104,0.037l-0.178-0.037h-2.784c-0.331,0.047-0.611,0.059-0.846,0.037l-4.056-0.106
			l-0.317-0.035l-3.138-0.07c-0.072,0.023-0.179,0.023-0.317,0c-0.236,0.023-0.447,0.023-0.635,0c-0.377,0.046-0.706,0.046-0.986,0
			L187.235,19.709L187.235,19.709z M209.058,20.732c-0.091,0.047-0.104,0.095-0.032,0.142l0.209-0.142H209.058L209.058,20.732z
			 M207.331,22.777c-0.208,0.117-0.163,0.14,0.144,0.071L207.331,22.777L207.331,22.777z M207.014,22.284
			c0.236-0.023,0.248-0.059,0.037-0.105L207.014,22.284L207.014,22.284z M197.778,32.015c0.069-0.164,0.058-0.318-0.037-0.458
			L197.778,32.015L197.778,32.015z M197.987,32.015c0,0.188,0.013,0.353,0.037,0.493C198.024,32.32,198.015,32.156,197.987,32.015
			L197.987,32.015z M196.911,38.996c0.073-0.163,0.096-0.319,0.073-0.459L196.911,38.996L196.911,38.996z M195.502,40.898
			c-0.094,0.447-0.094,0.825,0,1.129c0-0.164,0.012-0.304,0.036-0.421l0.175,0.28c0.095-0.563,0.05-0.763-0.138-0.6L195.502,40.898
			L195.502,40.898z M194.938,43.366c0.025,0.143,0.012,0.272-0.034,0.391C194.881,43.615,194.892,43.486,194.938,43.366z"/>
		<path fill="#DD1F27" d="M184.44,6.474l-2.447,5.005l-0.764,1.453c-0.406,1.292-0.865,2.315-1.374,3.07
			c-3.771-3.015-8.304-2.53-13.604,1.454c0.206,1.075,0.818,1.615,1.834,1.615c4.688-4.738,8.355-5.384,11.003-1.938l-0.15,1.292
			l0.762-0.164c0.407,0.539,0.868,0.916,1.376,1.132c0.203-1.186-0.103-2.154-0.916-2.907c1.527-3.77,3.668-6.407,6.417-7.916
			c0.104-1.507-0.458-2.421-1.683-2.745L184.44,6.474z"/>
		<path fill="#DD1F27" d="M54.82,18.848c0.328,0,0.549-0.151,0.665-0.455L54.82,18.848L54.82,18.848z M54.438,18.954
			c0.186,0.326,0.407,0.397,0.664,0.21C54.844,19.164,54.623,19.094,54.438,18.954L54.438,18.954z M53.563,19.442
			c-0.187,0-0.315,0.037-0.385,0.106c-0.186,0-0.443,0.151-0.769,0.454l-0.28-0.07l-0.28,0.175l-0.874,0.21l-0.209,0.28
			l-0.175-0.104L50.382,20.7c-0.561,0.048-1.072,0.176-1.539,0.386c-0.63-0.466-1.109-0.92-1.435-1.363l-0.279,0.209
			c-0.326,0.046-0.583,0.14-0.77,0.28c-0.396-0.14-0.744-0.081-1.048,0.175c-1.283,1.167-1.574,2.227-0.875,3.182
			c0,0.909,0.42,1.642,1.26,2.202c1.282,2.051,2.948,2.563,4.999,1.538c1.398-0.559,2.132-1.642,2.204-3.25l0.176-0.209
			c0.325-0.815,0.814-1.457,1.467-1.922l0.279-0.84c-0.326-0.14-0.523-0.012-0.593,0.385c-0.048-0.396-0.012-0.755,0.103-1.084
			c-0.115,0-0.173,0.069-0.173,0.21c-0.258-0.444-0.069-0.479,0.559-0.104c-0.187-0.443-0.478-0.758-0.874-0.944l0.315-0.315
			l-0.385-0.069L53.563,19.442L53.563,19.442z M53.842,20.317c-0.442,0.302-0.536,0.069-0.279-0.7L53.842,20.317L53.842,20.317z
			 M53.002,19.932c0.256,0.372,0.153,0.652-0.313,0.838C52.641,20.584,52.746,20.304,53.002,19.932L53.002,19.932z M46.919,29.722
			c-0.186,0.582-0.209,1.129-0.07,1.643c-0.255,0.699-0.291,1.375-0.104,2.027c-1.026,1.026-1.06,1.889-0.105,2.587
			c0.396,1.353,1.234,2.122,2.519,2.308c1.07,0.699,2.097,0.699,3.077,0c-0.072-1.097,0.186-2.027,0.767-2.797l-0.699-0.175
			l0.385-0.315c0.327,0.14,0.396,0.27,0.21,0.385c0.326,0,0.383-0.127,0.176-0.385c0.325-0.187,0.395-0.407,0.208-0.664
			c0.118-0.188,0.246-0.478,0.385-0.875c0.326,0.14,0.36,0.083,0.105-0.174c-0.07-0.07-0.07-0.164,0-0.279
			c-0.257,0.116-0.455,0.045-0.595-0.21c0.956,0.14,1.282-0.048,0.98-0.561l0.173-0.21c0.141,0.142,0.339,0.234,0.595,0.28
			l-0.105-0.455c-0.186,0-0.383-0.068-0.593-0.208c-0.816,0.187-1.517,0.256-2.099,0.208l-0.208,0.281l-0.282-0.106l-0.383,0.21
			h-0.281c-0.84,0.373-1.573,0.63-2.202,0.771l0.07-0.491c-0.118-0.326-0.14-0.652-0.07-0.98c-0.326-0.628-0.431-1.234-0.315-1.816
			c-0.444-0.07-0.792-0.163-1.05-0.279L46.919,29.722L46.919,29.722z M55.694,31.47c-0.652,0.513-0.652,0.733,0,0.665l0.175-0.665
			H55.694L55.694,31.47z M45.556,40.735c-2.938,1.469-2.542,3.217,1.188,5.245c1.236,0.44,1.912,0.046,2.028-1.189
			c1.794,0.118,2.692-0.618,2.692-2.203C49.552,41.235,47.584,40.617,45.556,40.735z"/>
		<path fill="#DD1F27" d="M60.31,25.246c-0.373,0.561-0.699,0.978-0.98,1.26c-3.354,2.144-5.314,4.893-5.873,8.25l0.42-0.557
			c0.561,0.838,0.839,0.699,0.839-0.423c0.466-1.024,0.514-0.791,0.14,0.7l0.28-0.418l0.418-0.98c0.282-0.65,0.561-1.165,0.84-1.539
			c1.212-1.396,1.352-1.351,0.42,0.142c0.653-0.187,1.119-0.468,1.398-0.84c-0.466,0.372-0.838,0.84-1.12,1.398
			c0.468-0.186,0.888-0.488,1.258-0.908c0.374-0.42,0.748-0.723,1.121-0.911c-0.933,0.933-1.587,1.819-1.958,2.657l0.419-0.278
			c0.466-0.653,0.932-1.166,1.396-1.541c2.705-0.839,4.803-2.143,6.294-3.914l-0.418-0.699c-0.56-0.093-1.026-0.14-1.397-0.14
			l-0.281-0.422l-0.419,0.14l-0.278-0.14C61.708,25.618,60.868,25.34,60.31,25.246L60.31,25.246z M54.855,34.898
			c-0.186,1.676,0.838,2.889,3.078,3.633l-0.559-0.698C55.976,37.274,55.136,36.295,54.855,34.898L54.855,34.898z M53.457,35.456
			c0.186,2.518,1.307,4.289,3.357,5.314l0.279-0.139c0.84,0.28,1.586,0.466,2.237,0.56C56.067,40.163,54.109,38.253,53.457,35.456
			L53.457,35.456z M58.212,38.674c0.652,0.558,1.351,0.79,2.098,0.697C59.472,39.278,58.771,39.045,58.212,38.674L58.212,38.674z
			 M61.988,39.792c0.747,0.187,1.398,0.277,1.957,0.277c3.729-0.186,6.993,0.515,9.791,2.099l-0.7,0.42l0.979-0.14
			c-0.374-0.558-0.791-0.98-1.259-1.258l-1.818-0.701l-0.699-0.138H69.68c-0.559,0-1.025-0.096-1.399-0.282h-1.398l-0.418-0.139
			l-0.98-0.139C63.993,39.884,62.829,39.884,61.988,39.792L61.988,39.792z M57.093,40.211h2.797
			c-0.466-0.186-0.932-0.232-1.397-0.142l-1.26-0.139L57.093,40.211L57.093,40.211z M69.68,43.427l-0.559,0.141l-0.561,0.14
			l-1.538,0.139h-0.418c-1.212,0.56-2.379,0.793-3.497,0.699c-0.652,0.187-1.259,0.234-1.817,0.141l0.558,0.14h1.678
			c0.559-0.094,1.027-0.14,1.399-0.14c1.024,0.561,2.145,0.749,3.355,0.561c0.188-0.467,0.14-0.841-0.138-1.121l0.418-0.279
			c0.838-0.092,1.493-0.325,1.959-0.698L69.68,43.427z"/>
		<path fill="#DD1F27" d="M67.477,5.354c-0.326,0.604-0.465,1.212-0.419,1.818c-0.046,0.56-0.07,1.036-0.07,1.434l-0.069,0.417
			v0.805l-0.106,0.524c0,0.49-0.022,0.932-0.07,1.33v0.907l-0.105,0.421V13.5c0,0.513-0.022,0.955-0.068,1.328v1.852l-0.07,0.247
			v2.831l-0.105,0.49v1.503c0,0.559-0.023,1.027-0.07,1.399v1.503c-0.046,0.675-0.07,1.235-0.07,1.679
			c-0.118,0.652-0.151,1.2-0.105,1.643l-0.175,1.433c0,0.442-0.024,0.828-0.07,1.154c0,0.513-0.024,0.956-0.07,1.331
			c0,1.048-0.035,1.91-0.105,2.585l-0.07,0.35v0.806l-0.104,0.664v2.518c-0.047,0.604-0.21,1.071-0.49,1.398
			c0.116,0.349,0.279,0.63,0.49,0.839c0.279,1.002,0.594,1.782,0.944,2.343l0.42-0.245c0.163-0.396,0.268-0.758,0.315-1.084
			c0.047-0.187,0.127-0.303,0.243-0.349c0.163-0.281,0.28-0.501,0.351-0.665l0.733-1.328c0.117-0.328,0.258-0.606,0.42-0.841
			c0-0.277,0.081-0.582,0.245-0.907l0.594-1.014l0.175-0.386l0.56-1.013l0.244,0.593l0.175,0.56l0.245,1.084l0.596,2.099
			c0.278,0.489,0.582,0.873,0.908,1.153c0.165-0.117,0.305-0.28,0.42-0.49c0.56-0.07,0.862-0.466,0.909-1.188
			c0.233,0.116,0.455,0.151,0.665,0.105l0.943,0.245l-0.105-1.818l0.42-2.029l-0.838-3.075l-0.665-1.469
			c-1.444-1.12-2.891-1.26-4.336-0.42l-0.489,0.804c-0.047,0.397-0.152,0.734-0.314,1.015l-0.175,0.245
			c-0.327,0.396-0.606,0.779-0.839,1.153l-1.083,1.747c-0.118,0.28-0.222,0.515-0.315,0.7l-0.35,0.561l-0.07-0.421v-3.915
			c0-0.442-0.035-0.804-0.105-1.085l0.105-0.315l0.07-2.097l0.068-0.243v-1.504c0.118-0.536,0.153-1.026,0.105-1.47
			c0-0.186,0.025-0.302,0.07-0.349l0.106-2.063c0-0.349,0.022-0.629,0.069-0.839v-1.503c0.046-0.396,0.046-0.757,0-1.083l0.07-0.245
			c0-0.723,0.037-1.224,0.105-1.503v-1.678l0.071-0.421v-0.909l0.068-0.49l0.104-0.417c0-0.444,0.059-0.97,0.175-1.574v-0.49
			l0.071-0.351l0.07-0.594l0.35-2.063l0.314-0.908c0.115-0.351,0.29-0.631,0.523-0.84l0.07-0.594
			C68.818,6.122,68.317,5.515,67.477,5.354z"/>
	</g>
	<g>
		<path fill="#383939" d="M85.285,68.475l0.9-4.256h-1.008l0.178-0.857h1.015l0.902-4.257h2.794c0.587,0,1,0.021,1.239,0.063
			c0.376,0.069,0.731,0.198,1.068,0.383c0.337,0.183,0.633,0.445,0.891,0.785c0.258,0.339,0.449,0.73,0.572,1.177
			c0.124,0.443,0.186,0.917,0.186,1.42c0,0.755-0.114,1.443-0.345,2.063c-0.229,0.619-0.528,1.166-0.895,1.638
			c-0.367,0.473-0.751,0.843-1.155,1.106c-0.402,0.265-0.877,0.461-1.427,0.589c-0.418,0.097-0.933,0.146-1.546,0.146H85.285z
			 M86.761,67.413h1.477c0.668,0,1.263-0.062,1.781-0.185c0.325-0.076,0.602-0.19,0.833-0.339c0.302-0.192,0.578-0.445,0.831-0.76
			c0.322-0.417,0.581-0.895,0.773-1.429c0.192-0.534,0.287-1.145,0.287-1.825c0-0.759-0.131-1.342-0.396-1.749
			c-0.265-0.406-0.598-0.676-1.003-0.809c-0.308-0.098-0.777-0.146-1.413-0.146h-1.636l-0.677,3.188h2.582l-0.18,0.857h-2.582
			L86.761,67.413z"/>
		<path fill="#383939" d="M94.686,65.899c0-1.325,0.39-2.421,1.167-3.292c0.646-0.717,1.487-1.075,2.533-1.075
			c0.818,0,1.478,0.257,1.978,0.771c0.5,0.509,0.751,1.199,0.751,2.068c0,0.78-0.158,1.505-0.473,2.178
			c-0.314,0.67-0.764,1.185-1.346,1.543c-0.583,0.358-1.193,0.536-1.837,0.536c-0.527,0-1.009-0.11-1.442-0.339
			c-0.433-0.225-0.762-0.545-0.989-0.958C94.8,66.917,94.686,66.44,94.686,65.899z M95.842,65.785c0,0.638,0.153,1.124,0.46,1.453
			c0.307,0.33,0.696,0.495,1.169,0.495c0.249,0,0.494-0.05,0.735-0.15c0.243-0.101,0.469-0.252,0.678-0.456
			c0.208-0.205,0.386-0.439,0.534-0.699c0.146-0.263,0.265-0.546,0.353-0.85c0.132-0.42,0.199-0.826,0.199-1.215
			c0-0.61-0.154-1.088-0.462-1.427c-0.31-0.339-0.699-0.507-1.167-0.507c-0.363,0-0.692,0.085-0.991,0.259
			c-0.3,0.171-0.568,0.425-0.809,0.757c-0.24,0.333-0.418,0.718-0.531,1.16C95.9,65.049,95.842,65.439,95.842,65.785z
			 M97.472,60.861l1.202-1.757h1.459l-1.701,1.757H97.472z"/>
		<path fill="#383939" d="M101.761,68.475l1.419-6.788h1.047l-0.248,1.183c0.455-0.464,0.881-0.803,1.278-1.016
			c0.396-0.212,0.802-0.321,1.213-0.321c0.551,0,0.982,0.152,1.295,0.45c0.312,0.297,0.471,0.696,0.471,1.193
			c0,0.253-0.057,0.648-0.167,1.188l-0.863,4.111h-1.158l0.903-4.301c0.089-0.418,0.133-0.728,0.133-0.925
			c0-0.228-0.078-0.412-0.233-0.554c-0.157-0.139-0.381-0.209-0.675-0.209c-0.591,0-1.118,0.213-1.582,0.64
			c-0.461,0.424-0.802,1.157-1.018,2.192l-0.658,3.156H101.761z"/>
		<path fill="#383939" d="M112.587,68.475l1.957-9.37h1.157l-1.956,9.37H112.587z"/>
		<path fill="#383939" d="M120.16,67.631c-0.399,0.347-0.784,0.6-1.155,0.759c-0.372,0.159-0.767,0.238-1.19,0.238
			c-0.626,0-1.132-0.186-1.515-0.552c-0.384-0.369-0.577-0.84-0.577-1.416c0-0.382,0.086-0.716,0.261-1.008
			c0.172-0.291,0.401-0.525,0.687-0.703c0.286-0.176,0.635-0.304,1.047-0.38c0.259-0.05,0.754-0.091,1.479-0.121
			c0.726-0.03,1.248-0.106,1.562-0.229c0.089-0.315,0.136-0.577,0.136-0.786c0-0.269-0.1-0.479-0.295-0.633
			c-0.268-0.213-0.659-0.32-1.176-0.32c-0.485,0-0.883,0.109-1.192,0.323c-0.309,0.215-0.533,0.521-0.673,0.916l-1.17-0.102
			c0.239-0.673,0.617-1.188,1.136-1.546c0.517-0.357,1.171-0.539,1.958-0.539c0.838,0,1.504,0.203,1.994,0.603
			c0.375,0.299,0.563,0.686,0.563,1.163c0,0.363-0.054,0.782-0.161,1.26l-0.375,1.687c-0.119,0.539-0.18,0.973-0.18,1.309
			c0,0.214,0.046,0.521,0.14,0.922h-1.17C120.232,68.254,120.186,67.973,120.16,67.631z M120.59,65.037
			c-0.165,0.063-0.336,0.111-0.522,0.146c-0.185,0.036-0.496,0.07-0.93,0.108c-0.673,0.061-1.147,0.138-1.426,0.228
			c-0.276,0.092-0.484,0.239-0.627,0.438c-0.139,0.2-0.208,0.423-0.208,0.665c0,0.323,0.109,0.591,0.334,0.799
			c0.225,0.21,0.542,0.313,0.955,0.313c0.383,0,0.751-0.101,1.105-0.305c0.355-0.2,0.634-0.484,0.839-0.846
			C120.315,66.22,120.475,65.705,120.59,65.037z M120.045,60.861l-1.246-1.757h1.405l0.743,1.757H120.045z"/>
		<path fill="#383939" d="M122.866,68.475l1.419-6.788h1.045l-0.248,1.183c0.456-0.464,0.882-0.803,1.276-1.016
			c0.398-0.212,0.801-0.321,1.217-0.321c0.547,0,0.98,0.152,1.294,0.45c0.313,0.297,0.469,0.696,0.469,1.193
			c0,0.253-0.056,0.648-0.165,1.188l-0.864,4.111h-1.157l0.9-4.301c0.091-0.418,0.136-0.728,0.136-0.925
			c0-0.228-0.08-0.412-0.234-0.554c-0.154-0.139-0.379-0.209-0.672-0.209c-0.592,0-1.121,0.213-1.583,0.64
			c-0.462,0.424-0.8,1.157-1.019,2.192l-0.658,3.156H122.866z"/>
		<path fill="#383939" d="M130.146,68.475l1.954-9.37h1.157l-0.747,3.6c0.431-0.417,0.832-0.717,1.201-0.896
			c0.37-0.183,0.751-0.275,1.146-0.275c0.562,0,0.997,0.15,1.31,0.446c0.311,0.297,0.464,0.687,0.464,1.172
			c0,0.239-0.067,0.679-0.202,1.317l-0.837,4.007h-1.159l0.863-4.111c0.124-0.595,0.188-0.97,0.188-1.123
			c0-0.221-0.082-0.403-0.232-0.545c-0.153-0.139-0.376-0.209-0.665-0.209c-0.417,0-0.816,0.11-1.194,0.327
			c-0.38,0.221-0.678,0.521-0.893,0.902c-0.215,0.382-0.412,0.998-0.589,1.845l-0.608,2.914H130.146z"/>
		<path fill="#383939" d="M141.232,65.664l0.244-1.157h3.529l-0.238,1.157H141.232z"/>
		<path fill="#383939" d="M151.594,68.475l1.731-8.302h-3.075l0.224-1.068h7.377l-0.226,1.068h-3.051l-1.729,8.302H151.594z"/>
		<path fill="#383939" d="M156.078,68.475l1.419-6.788h1.023l-0.287,1.387c0.351-0.523,0.691-0.911,1.028-1.163
			c0.333-0.25,0.675-0.378,1.023-0.378c0.228,0,0.514,0.086,0.849,0.253l-0.471,1.072c-0.203-0.145-0.422-0.216-0.659-0.216
			c-0.404,0-0.82,0.225-1.245,0.678c-0.426,0.449-0.761,1.263-1.005,2.432l-0.574,2.724H156.078z"/>
		<path fill="#383939" d="M165.013,67.631c-0.398,0.347-0.786,0.6-1.152,0.759c-0.373,0.159-0.77,0.238-1.19,0.238
			c-0.627,0-1.132-0.186-1.515-0.552c-0.384-0.369-0.579-0.84-0.579-1.416c0-0.382,0.089-0.716,0.263-1.008
			c0.173-0.291,0.399-0.525,0.688-0.703c0.284-0.176,0.632-0.304,1.049-0.38c0.26-0.05,0.75-0.091,1.479-0.121
			c0.723-0.03,1.245-0.106,1.563-0.229c0.089-0.315,0.135-0.577,0.135-0.786c0-0.269-0.101-0.479-0.296-0.633
			c-0.267-0.213-0.661-0.32-1.176-0.32c-0.486,0-0.882,0.109-1.19,0.323c-0.309,0.215-0.534,0.521-0.677,0.916l-1.167-0.102
			c0.235-0.673,0.616-1.188,1.135-1.546c0.516-0.357,1.168-0.539,1.958-0.539c0.84,0,1.504,0.203,1.993,0.603
			c0.376,0.299,0.563,0.686,0.563,1.163c0,0.363-0.054,0.782-0.159,1.26l-0.378,1.687c-0.12,0.539-0.181,0.973-0.181,1.309
			c0,0.214,0.047,0.521,0.143,0.922h-1.171C165.084,68.254,165.041,67.973,165.013,67.631z M165.443,65.037
			c-0.162,0.063-0.337,0.111-0.522,0.146c-0.185,0.036-0.493,0.07-0.928,0.108c-0.674,0.061-1.149,0.138-1.424,0.228
			c-0.279,0.092-0.488,0.239-0.628,0.438c-0.143,0.2-0.212,0.423-0.212,0.665c0,0.323,0.112,0.591,0.337,0.799
			c0.222,0.21,0.541,0.313,0.953,0.313c0.384,0,0.752-0.101,1.106-0.305c0.354-0.2,0.633-0.484,0.838-0.846
			C165.171,66.22,165.327,65.705,165.443,65.037z M163.552,60.861l1.201-1.757h1.457l-1.701,1.757H163.552z"/>
		<path fill="#383939" d="M167.719,68.475l1.418-6.788h1.048l-0.25,1.183c0.456-0.464,0.884-0.803,1.28-1.016
			c0.396-0.212,0.799-0.321,1.213-0.321c0.551,0,0.98,0.152,1.296,0.45c0.312,0.297,0.47,0.696,0.47,1.193
			c0,0.253-0.057,0.648-0.169,1.188l-0.859,4.111h-1.158l0.9-4.301c0.089-0.418,0.135-0.728,0.135-0.925
			c0-0.228-0.077-0.412-0.234-0.554c-0.155-0.139-0.38-0.209-0.673-0.209c-0.592,0-1.12,0.213-1.582,0.64
			c-0.463,0.424-0.803,1.157-1.021,2.192l-0.657,3.156H167.719z"/>
		<path fill="#383939" d="M174.996,68.475l1.956-9.37h1.157l-0.747,3.6c0.429-0.417,0.831-0.717,1.201-0.896
			c0.371-0.183,0.753-0.275,1.144-0.275c0.563,0,1,0.15,1.311,0.446c0.311,0.297,0.469,0.687,0.469,1.172
			c0,0.239-0.069,0.679-0.207,1.317l-0.836,4.007h-1.159l0.865-4.111c0.122-0.595,0.186-0.97,0.186-1.123
			c0-0.221-0.077-0.403-0.23-0.545c-0.154-0.139-0.374-0.209-0.664-0.209c-0.419,0-0.817,0.11-1.194,0.327
			c-0.383,0.221-0.679,0.521-0.894,0.902c-0.218,0.382-0.411,0.998-0.592,1.845l-0.605,2.914H174.996z"/>
		<path fill="#383939" d="M190.489,67.489c-0.659,0.762-1.352,1.139-2.069,1.139c-0.645,0-1.181-0.237-1.608-0.711
			c-0.43-0.477-0.645-1.166-0.645-2.068c0-0.827,0.171-1.582,0.51-2.267c0.341-0.684,0.764-1.195,1.272-1.535
			c0.509-0.342,1.019-0.515,1.529-0.515c0.847,0,1.482,0.408,1.913,1.223l0.766-3.65h1.151l-1.956,9.37h-1.069L190.489,67.489z
			 M187.318,65.631c0,0.473,0.049,0.846,0.142,1.117c0.095,0.273,0.253,0.501,0.478,0.681c0.227,0.182,0.499,0.272,0.813,0.272
			c0.524,0,1-0.272,1.427-0.818c0.571-0.725,0.855-1.618,0.855-2.683c0-0.537-0.141-0.959-0.421-1.261
			c-0.28-0.303-0.635-0.453-1.063-0.453c-0.276,0-0.529,0.063-0.756,0.185c-0.228,0.126-0.453,0.334-0.678,0.63
			c-0.224,0.297-0.411,0.673-0.566,1.128C187.396,64.884,187.318,65.287,187.318,65.631z"/>
		<path fill="#383939" d="M200.608,62.997l0.273-1.311h1.318l-0.24,1.146c-0.169,0.822-0.425,1.376-0.772,1.662
			c-0.398,0.331-1.009,0.511-1.826,0.536l-0.724,3.444h-1.068l0.258-1.228c-0.814,0.921-1.646,1.381-2.499,1.381
			c-0.518,0-0.938-0.146-1.264-0.444c-0.324-0.296-0.488-0.664-0.488-1.107c0-0.286,0.072-0.776,0.217-1.471l0.816-3.919h1.158
			l-0.906,4.342c-0.077,0.365-0.114,0.646-0.114,0.843c0,0.539,0.306,0.812,0.921,0.812c0.677,0,1.262-0.291,1.751-0.877
			c0.216-0.262,0.396-0.58,0.541-0.951c0.099-0.252,0.208-0.662,0.328-1.232l0.614-2.936h1.154l-0.594,2.838
			c0.639-0.013,1.105-0.176,1.4-0.492c0.208-0.216,0.36-0.561,0.459-1.035H200.608z M195.52,60.658
			c0.141-0.566,0.314-0.946,0.522-1.141c0.205-0.194,0.463-0.29,0.772-0.29c0.144,0,0.279,0.016,0.414,0.052
			c0.134,0.032,0.369,0.123,0.701,0.271c0.33,0.145,0.561,0.218,0.683,0.218c0.099,0,0.186-0.035,0.261-0.103
			c0.08-0.071,0.144-0.207,0.193-0.399h0.772c-0.043,0.438-0.183,0.781-0.425,1.027c-0.239,0.248-0.52,0.37-0.835,0.37
			c-0.17,0-0.384-0.055-0.644-0.165c-0.588-0.256-0.951-0.383-1.088-0.383c-0.135,0-0.249,0.043-0.339,0.132
			c-0.089,0.085-0.152,0.223-0.192,0.41H195.52z"/>
	</g>
	<circle fill-rule="evenodd" clip-rule="evenodd" fill="#F0E922" cx="62.677" cy="65.097" r="3.922"/>
	<circle fill-rule="evenodd" clip-rule="evenodd" fill="#FCF5AE" cx="75.052" cy="65.097" r="3.923"/>
	<circle fill-rule="evenodd" clip-rule="evenodd" fill="#EFB348" cx="49.663" cy="65.097" r="3.923"/>
</g>
</svg>
