<?xml version="1.0" encoding="utf-8"?>
<!-- Generator: Adobe Illustrator 16.0.0, SVG Export Plug-In . SVG Version: 6.00 Build 0)  -->
<!DOCTYPE svg PUBLIC "-//W3C//DTD SVG 1.1//EN" "http://www.w3.org/Graphics/SVG/1.1/DTD/svg11.dtd">
<svg version="1.1" id="Layer_1" xmlns="http://www.w3.org/2000/svg" xmlns:xlink="http://www.w3.org/1999/xlink" x="0px" y="0px"
	 width="44px" height="44px" viewBox="0 0 44 44" enable-background="new 0 0 44 44" xml:space="preserve">
<circle fill="#E86F72" cx="22" cy="22.001" r="22"/>
<g>
	<path fill-rule="evenodd" clip-rule="evenodd" fill="#FFFFFF" d="M15.16,22.654c2.393-0.228,4.554,0.229,6.137,2.134
		c1.687,2.029,1.129,4.149-0.057,6.219c3.328,0.445,3.621,0.58,3.774,1.775c-1.207,0.063-2.409,0.174-3.612,0.181
		c-2.485,0.016-4.97-0.012-7.455-0.056c-0.405-0.006-0.833-0.129-1.205-0.299c-0.708-0.324-0.939-1.181-0.439-1.749
		c0.422-0.478,0.328-0.897,0.127-1.399c-0.361-0.9-0.675-1.819-1.037-2.718c-0.064-0.158-0.239-0.318-0.401-0.382
		c-2.74-1.069-3.706-2.863-2.955-5.714C8.403,19.262,9,17.937,9.344,16.548c0.205-0.825,0.294-1.757,0.128-2.58
		c-0.259-1.276-1.725-1.571-2.684-0.662c-0.153,0.145-0.399,0.19-0.603,0.282c-0.065-0.25-0.215-0.513-0.178-0.747
		c0.152-0.934,1.512-1.675,2.535-1.42c1.941,0.485,3.043,2.312,2.547,4.518c-0.349,1.554-0.993,3.042-1.378,4.59
		c-0.211,0.854-0.297,1.791-0.193,2.659c0.132,1.096,0.822,1.578,1.964,1.706c0.915-6.407,7.914-9.354,14.39-6.894
		c0.193-0.32,0.352-0.687,0.602-0.975c0.616-0.71,1.281-1.377,1.912-2.075c0.145-0.161,0.234-0.374,0.341-0.567
		c0.364-0.666,0.714-1.339,1.091-1.995c0.211-0.367,0.457-0.3,0.722-0.018c0.298,0.318,0.627,0.606,0.964,0.928
		c0.269-0.282,0.51-0.538,0.86-0.908c0.121,1.173,0.772,1.756,1.567,2.295c0.896,0.606,1.584,1.435,1.928,2.494
		c0.504,1.544-0.413,3.143-1.983,3.475c-0.295,0.061-0.591,0.114-1.073,0.207c1.064,0.192,0.897,0.862,0.764,1.452
		c-0.288,1.265-0.526,2.555-0.976,3.765c-0.738,1.994-1.97,3.582-4.218,4.094c-0.012,0.607,0.458,0.61,0.822,0.771
		c0.495,0.22,1.068,0.402,1.423,0.775c0.583,0.612,0.349,1.149-0.48,1.238c-0.523,0.056-1.066,0.045-1.589-0.026
		c-0.891-0.118-1.427-0.678-1.733-1.516c-0.343-0.938-0.612-1.031-1.584-0.88c-0.853,0.133-1.718,0.177-2.721,0.273
		c0.859-2.919,0.716-5.419-1.708-7.264C19.102,22.25,17.165,22.043,15.16,22.654z"/>
	<path fill-rule="evenodd" clip-rule="evenodd" fill="#FFFFFF" d="M32.271,28.446c-0.18,0.381-0.326,0.691-0.472,1
		c-0.278,0.589-0.173,0.829,0.449,1.023c0.352,0.11,0.725,0.176,1.049,0.339c0.256,0.131,0.507,0.343,0.665,0.582
		c0.438,0.662,0.258,1.042-0.521,1.159c-0.318,0.049-0.645,0.057-0.968,0.066c-0.522,0.016-0.816-0.117-1.034-0.726
		c-0.217-0.611-0.827-1.083-1.249-1.594C30.782,29.771,31.494,29.136,32.271,28.446z"/>
</g>
</svg>
