<?xml version="1.0" encoding="utf-8"?>
<!-- Generator: Adobe Illustrator 16.0.0, SVG Export Plug-In . SVG Version: 6.00 Build 0)  -->
<!DOCTYPE svg PUBLIC "-//W3C//DTD SVG 1.1//EN" "http://www.w3.org/Graphics/SVG/1.1/DTD/svg11.dtd">
<svg version="1.1" id="Layer_1" xmlns="http://www.w3.org/2000/svg" xmlns:xlink="http://www.w3.org/1999/xlink" x="0px" y="0px"
	 width="44px" height="44px" viewBox="0 0 44 44" enable-background="new 0 0 44 44" xml:space="preserve">
<circle fill="#E86F72" cx="22" cy="22.001" r="22"/>
<g>
	<path fill-rule="evenodd" clip-rule="evenodd" fill="#FFFFFF" d="M7.331,24.997c0.523-0.213,0.985-0.399,1.446-0.586
		c-1.488,0.274-2.339-0.522-3-1.628c-0.434-0.728-0.466-1.476,0.178-2.277c0.079,0.289,0.133,0.5,0.192,0.709
		c0.421,1.476,1.458,2.053,2.922,1.563c0.505-0.169,1.045-0.388,1.426-0.739c1.685-1.552,3.753-2.377,5.92-2.637
		c2.518-0.299,4.017-1.781,5.319-3.652c0.535-0.768,0.899-1.655,1.361-2.477c0.357-0.634,0.789-0.827,1.585-0.566
		c1.856,0.611,3.8-0.23,4.482-1.786c0.574-1.309-0.16-2.727-1.531-2.875c-0.351-0.038-0.76,0.066-1.073,0.233
		c-0.226,0.12-0.465,0.46-0.456,0.692c0.007,0.194,0.352,0.394,0.57,0.559c0.141,0.107,0.324,0.157,0.503,0.239
		c-0.645,0.706-1.146,0.753-2.022,0.208c0.147-0.251,0.296-0.503,0.397-0.676c-0.292-0.537-0.556-1.021-0.869-1.595
		c0.892,0.065,1.545,0.112,2.404,0.174c-0.646-0.804-1.286-1.065-2.044-0.876c-0.759,0.189-0.933,0.83-0.961,1.519
		c-0.067,1.64,0.816,2.469,2.394,2.259c0.641-0.085,1.267-0.376,1.272-1.019c0.002-0.337-0.621-0.678-1.008-1.065
		c0.259-0.328,0.728-0.267,1.199,0.007c0.586,0.341,0.918,0.836,0.772,1.549c-0.181,0.889-1.118,1.631-2.207,1.76
		c-1.638,0.195-3.741-0.911-4.501-2.375c-0.454-0.875-0.429-1.774-0.097-2.675c0.377-1.026,1.043-1.826,1.964-2.41
		c1.712-1.086,3.295-0.869,4.65,0.636c0.846,0.938,1.69,1.876,2.523,2.824c0.158,0.18,0.346,0.393,0.381,0.613
		c0.171,1.112,0.848,1.95,1.421,2.859c0.24,0.381,0.365,0.922,0.325,1.37c-0.099,1.122-0.706,1.381-1.732,0.91
		c-0.241-0.11-0.587,0.007-0.884,0.02c0.029,0.271-0.032,0.627,0.116,0.785c0.122,0.13,0.494,0.026,0.894,0.026
		c-0.089,0.197-0.144,0.56-0.306,0.618c-0.267,0.094-0.672,0.096-0.9-0.049c-0.748-0.479-1.006-1.236-0.952-2.106
		c0.041-0.688,0.042-0.688-0.715-0.936c-0.185,1.347,0.165,2.482,1.034,3.515c0.324,0.388,0.487,0.919,0.697,1.397
		c0.095,0.218,0.054,0.524,0.193,0.692c0.805,0.961,0.828,2.132,0.989,3.283c0.056,0.401,0.256,0.82,0.5,1.147
		c0.777,1.041,1.636,2.02,2.407,3.063c0.553,0.748,0.49,1.09-0.241,1.636c-0.823,0.613-1.668,1.206-2.538,1.751
		c-1.54,0.962-3.287,0.584-4.444-0.951c0.294-0.367,0.597-0.745,0.938-1.171c0.202,0.157,0.378,0.308,0.568,0.438
		c0.383,0.266,0.881,0.82,1.143,0.727c0.87-0.311,1.666-0.841,2.456-1.34c0.067-0.042-0.025-0.602-0.183-0.698
		c-1.286-0.798-2.601-1.549-3.92-2.292c-0.121-0.066-0.356-0.02-0.495,0.057c-0.986,0.535-1.958,1.097-2.942,1.637
		c-0.425,0.233-0.901,0.384-1.297,0.656c-0.97,0.671-1.952,1.187-3.19,1.237c-1.19,0.049-2.038,0.695-2.498,1.879
		c-0.34,0.877-0.844,1.692-1.311,2.516c-0.495,0.872-1,1.678-2.145,1.926c-0.851,0.186-1.811,0.596-1.833,1.684
		c-0.026,1.306,0.749,2.241,1.838,2.86c0.491,0.279,0.836,0.554,0.853,1.184c-0.848,0-1.676,0-2.625,0
		c-0.042-1.877-1.33-3.145-2.346-4.563c-0.837-1.171-0.693-1.835,0.515-2.606c1.376-0.879,1.667-1.894,1.152-3.452
		c-0.369-1.117-0.588-2.283-0.871-3.41c-0.463,0.252-0.993,0.54-1.699,0.924c0.099-0.359,0.141-0.514,0.198-0.723
		C8.828,25.349,8.073,25.592,7.331,24.997z"/>
	<path fill-rule="evenodd" clip-rule="evenodd" fill="#FFFFFF" d="M22.855,38.112c-0.854-0.06-1.708-0.119-2.63-0.184
		c-0.068-1.686-1.03-2.891-1.979-4.108c-1.147-1.476-1.153-1.8-0.239-3.404c0.2-0.35,0.349-0.729,0.519-1.096
		c0.676-1.455,1.356-1.824,3.242-1.589c-0.287,0.826-0.438,1.68-0.852,2.376c-1.234,2.071-1.225,3.88,0.212,5.796
		c0.236,0.314,0.589,0.54,0.873,0.822c0.369,0.368,0.722,0.751,1.082,1.127C23.006,37.939,22.931,38.025,22.855,38.112z"/>
	<path fill-rule="evenodd" clip-rule="evenodd" fill="#FFFFFF" d="M36.203,23.121c-0.403-0.324-0.779-0.627-1.198-0.964
		c0.11-0.163,0.207-0.31,0.312-0.454c0.308-0.429,0.923-0.899,0.871-1.278c-0.142-1.022-0.518-2.024-0.902-2.993
		c-0.181-0.456-0.574-0.314-0.805,0.059c-0.501,0.802-0.983,1.615-1.472,2.424c-0.164,0.272-0.323,0.545-0.493,0.834
		c-0.325-1.166-0.636-2.28-1-3.588c0.818-0.625,1.804-1.413,2.828-2.145c0.605-0.433,1.196-0.186,1.542,0.365
		c0.469,0.748,0.899,1.544,1.187,2.375c0.27,0.782,0.381,1.631,0.475,2.46C37.683,21.419,37.154,22.352,36.203,23.121z"/>
</g>
</svg>
