<?xml version="1.0" encoding="utf-8"?>
<!-- Generator: Adobe Illustrator 16.0.0, SVG Export Plug-In . SVG Version: 6.00 Build 0)  -->
<!DOCTYPE svg PUBLIC "-//W3C//DTD SVG 1.1//EN" "http://www.w3.org/Graphics/SVG/1.1/DTD/svg11.dtd">
<svg version="1.1" id="Layer_1" xmlns="http://www.w3.org/2000/svg" xmlns:xlink="http://www.w3.org/1999/xlink" x="0px" y="0px"
	 width="48px" height="48px" viewBox="0 0 48 48" enable-background="new 0 0 48 48" xml:space="preserve">
<path fill="#EF4237" d="M45.433,8.408c-5.107,1.348-10.204,2.759-15.279,4.231c-0.04,0.014,0.777-0.213-0.101,0.039
	c-0.877,0.251-1.594,1.248-0.563,2.205c0.368,0.344,1.97,1.783,3.952,3.556l-5.884,6.62l-8.499-6.954L0,39.739l18.287-10.302
	l9.271,6.438l11.18-12.704c1.975,1.763,3.667,3.271,4.307,3.839c1.859,1.658,2.507-1.031,2.507-1.031
	c0.852-5.085,1.65-10.174,2.395-15.267C48.235,8.714,47.362,7.899,45.433,8.408z"/>
</svg>
