<?xml version="1.0" encoding="utf-8"?>
<!-- Generator: Adobe Illustrator 16.0.0, SVG Export Plug-In . SVG Version: 6.00 Build 0)  -->
<!DOCTYPE svg PUBLIC "-//W3C//DTD SVG 1.1//EN" "http://www.w3.org/Graphics/SVG/1.1/DTD/svg11.dtd">
<svg version="1.1" id="Layer_1" xmlns="http://www.w3.org/2000/svg" xmlns:xlink="http://www.w3.org/1999/xlink" x="0px" y="0px"
	 width="44px" height="44px" viewBox="0 0 44 44" enable-background="new 0 0 44 44" xml:space="preserve">
<circle fill="#E86F72" cx="22" cy="22.001" r="22"/>
<g>
	<path fill-rule="evenodd" clip-rule="evenodd" fill="#FFFFFF" d="M27.609,36.317c0-1.038,0.156-2.011-0.045-2.902
		c-0.2-0.888-0.774-1.688-1.157-2.538c-0.162-0.362-0.346-0.749-0.368-1.134c-0.049-0.866,0.092-1.751-0.02-2.605
		c-0.214-1.647-1.46-2.918-3.075-3.208c-0.394-0.07-0.841,0.053-1.244,0.16c-2.241,0.6-4.109,1.871-5.868,3.325
		c-2.095,1.734-2.277,2.353-1.408,4.95c0.429,1.283,0.57,2.566,0.211,3.916c-0.567,0-1.101,0-1.694,0
		c0.268-2.111-0.166-4.14-0.518-6.183c-0.076-0.441,0.075-0.931,0.159-1.392c0.145-0.788,0.345-1.567,0.475-2.359
		c0.147-0.896,0.179-1.797-0.361-2.603c-1.156-1.725-0.908-3.438,0.032-5.148c0.125-0.227,0.264-0.448,0.408-0.664
		c0.253-0.38,0.644-0.705,0.163-1.22c-0.475-0.508-1.013-0.895-1.671-0.566c-0.527,0.263-1.063,0.669-1.386,1.151
		c-0.974,1.455-1.307,3.063-0.817,4.794c0.231,0.816,0.563,1.634,0.608,2.463c0.042,0.769-0.094,1.618-0.41,2.315
		c-0.5,1.106-1.513,1.616-2.733,1.506c-1.212-0.107-2.059-0.81-2.518-1.913c-0.439-1.058,0.098-2.11,1.293-2.701
		c-0.073,0.452-0.205,0.904-0.206,1.356c-0.002,0.855,0.603,1.457,1.458,1.539c0.763,0.072,1.617-0.447,1.647-1.226
		c0.028-0.74-0.115-1.557-0.43-2.223c-0.725-1.537-1.668-2.995-1.858-4.716c-0.11-0.992-0.104-2.044,0.104-3.014
		c0.416-1.938,1.71-3.155,3.662-3.483c1.03-0.173,2.125-0.18,3.162-0.046c2.04,0.265,2.934,1.532,2.702,3.581
		c-0.042,0.369-0.095,0.737-0.132,1.02c0.882,0.305,1.684,0.572,2.477,0.858c1.375,0.497,2.711,0.455,4.091-0.232
		c-0.636-0.424-1.036-0.903-0.976-1.592c0.693,0,1.329,0,1.927,0c-0.43-0.614-0.827-1.181-1.225-1.748
		c0.787-0.072,1.418,0.556,2.093-0.033c-0.243-0.265-0.541-0.481-0.68-0.773c-0.137-0.292-0.113-0.659-0.151-0.928
		c0.691,0.108,1.298,0.203,1.906,0.298c0.029-0.074,0.058-0.148,0.087-0.222c-0.498-0.523-1.026-1.04-0.521-1.869
		c0.516,0.563,1.055,1.019,1.789,0.633c-0.236-0.331-0.586-0.639-0.683-1.013c-0.068-0.265,0.205-0.618,0.355-1.009
		c0.648,0.999,0.822,1.039,1.888,0.791c0.641-0.149,1.307-0.185,1.953-0.308c0.259-0.049,0.498-0.201,0.75-0.298
		c0.495-0.19,0.994-0.376,1.49-0.564c0.036,0.075,0.074,0.149,0.11,0.225c-0.222,0.351-0.442,0.702-0.685,1.088
		c0.179,0.118,0.317,0.247,0.482,0.314c1.011,0.415,1.725,1.086,2.139,2.129c0.153,0.384,0.614,0.635,0.891,0.982
		c0.42,0.528,0.874,1.051,1.176,1.646c0.238,0.467,0.076,0.969-0.417,1.294c-0.482,0.317-0.877,0.233-1.353-0.094
		c-0.928-0.639-1.9-1.218-2.884-1.77c-1.071-0.6-2.016-1.264-2.016-2.671c-0.741,0.843-0.313,1.638,1.64,3.03
		c-0.146,0.616-0.324,1.247-0.444,1.887c-0.243,1.284-0.115,2.548,0.36,3.761c0.599,1.526,0.394,2.823-0.685,4.135
		c-1.263,1.534-2.308,3.275-2.502,5.309c-0.094,0.973,0.154,1.996,0.353,2.976c0.187,0.918,0.537,1.803,0.764,2.715
		c0.137,0.552-0.038,0.921-0.724,0.823C28.254,36.282,27.944,36.317,27.609,36.317z"/>
	<path fill-rule="evenodd" clip-rule="evenodd" fill="#FFFFFF" d="M21.162,36.34c-0.576,0-1.104,0-1.667,0
		c0.059-2.097-0.565-4.03-1.045-5.996c-0.187-0.767-0.119-1.592-0.219-2.384c-0.18-1.422-0.214-1.454,1.113-2.133
		c0.934-0.479,1.924-0.847,2.957-1.185c-0.125,1.302-0.494,2.49-1.314,3.39c-1.375,1.511-1.336,3.067-0.527,4.771
		C20.984,33.906,21.148,35.085,21.162,36.34z"/>
	<path fill-rule="evenodd" clip-rule="evenodd" fill="#FFFFFF" d="M32.148,32.934c-0.9-1.431-0.863-1.433,0.013-2.71
		c0.486-0.712,0.907-1.491,1.218-2.294c0.394-1.011,0.138-1.585-0.799-2.126c-0.465-0.267-0.97-0.464-1.441-0.686
		c0.445-0.74,0.884-1.471,1.354-2.252c0.676,0.548,1.392,1.112,2.082,1.706c0.117,0.102,0.176,0.328,0.176,0.495
		C34.75,27.411,33.592,30.911,32.148,32.934z"/>
	<path fill-rule="evenodd" clip-rule="evenodd" fill="#FFFFFF" d="M34.219,9.323c-0.313,0.395-0.457,0.575-0.615,0.773
		c-0.287-0.157-0.547-0.299-0.809-0.442c0.008-0.072,0.015-0.145,0.021-0.218C33.222,9.404,33.627,9.372,34.219,9.323z"/>
</g>
</svg>
