<?xml version="1.0" encoding="utf-8"?>
<!-- Generator: Adobe Illustrator 16.0.0, SVG Export Plug-In . SVG Version: 6.00 Build 0)  -->
<!DOCTYPE svg PUBLIC "-//W3C//DTD SVG 1.1//EN" "http://www.w3.org/Graphics/SVG/1.1/DTD/svg11.dtd">
<svg version="1.1" id="Layer_1" xmlns="http://www.w3.org/2000/svg" xmlns:xlink="http://www.w3.org/1999/xlink" x="0px" y="0px"
	 width="44px" height="44px" viewBox="0 0 44 44" enable-background="new 0 0 44 44" xml:space="preserve">
<circle fill="#E86F72" cx="22" cy="22.001" r="22"/>
<g>
	<path fill-rule="evenodd" clip-rule="evenodd" fill="#FFFFFF" d="M17.573,9.539c-1.003,0.319-1.966,0.228-2.813-0.227
		c-2.397-1.288-4.146-0.148-5.567,1.515c-1.874,2.193-2.122,6.291-0.64,8.753c0.31,0.513,0.714,0.967,1.122,1.511
		c1.33-0.97,2.561-1.924,3.848-2.793c1.001-0.674,2.101-1.202,3.103-1.875c0.648-0.438,1.362-0.919,1.761-1.557
		c0.756-1.213,1.708-2.161,3.015-2.644c1.88-0.694,3.812-1.247,5.411-1.761c-0.489-0.175-1.335-0.478-2.278-0.813
		c1.513-1.041,2.735-0.365,4.066,0.366c-0.356-0.44-0.676-0.69-0.784-1.009c-0.105-0.319-0.067-0.726,0.021-1.067
		c0.205-0.808,0.865-1.154,1.605-1.108c1.181,0.07,2.373,0.203,3.524,0.474c1.166,0.273,2.248,0.348,3.319-0.423
		c-0.404,1.083-1.239,1.542-2.289,1.365c-1.029-0.174-2.06-0.372-3.098-0.467c-0.505-0.045-1.317-0.234-1.384,0.51
		c-0.068,0.755,0.735,0.531,1.219,0.652c0.436,0.108,0.85,0.312,1.268,0.487c0.085,0.036,0.141,0.171,0.221,0.183
		c1.398,0.198,1.849,1.333,2.441,2.373c0.356,0.623,0.83,1.199,1.331,1.718c0.526,0.542,0.628,1.056,0.159,1.644
		c-0.453,0.571-1.372,0.794-1.816,0.363c-1.389-1.344-3.032-1.724-4.899-1.492c-0.199,0.024-0.53-0.22-0.64-0.426
		c-0.164-0.31-0.185-0.694-0.268-1.048c-0.405,0.666-0.3,1.685,0.267,2.103c0.163,0.12,0.501,0.199,0.653,0.113
		c1.067-0.614,1.952-0.046,2.96,0.329c-1.177,1.219-1.222,2.577-0.845,4.017c0.469,1.775,0.284,3.497-0.432,5.328
		c-0.436-0.471-0.79-0.852-1.146-1.236c-0.037,0.02-0.074,0.037-0.11,0.055c0.209,0.377,0.38,0.785,0.64,1.123
		c0.611,0.787,1.241,1.561,1.91,2.299c0.267,0.295,0.331,0.523,0.187,0.896c-0.497,1.293-0.973,2.596-1.427,3.906
		c-0.174,0.5-0.456,0.756-0.974,0.561c-0.498-0.188-0.546-0.512-0.392-1.043c0.308-1.064,0.504-2.166,0.693-3.26
		c0.036-0.207-0.102-0.557-0.27-0.662c-1.721-1.074-3.465-2.109-5.382-3.262c0.464,0.518,0.817,0.912,1.259,1.404
		c-0.808,0.172-1.588,0.416-2.381,0.488c-1.159,0.1-2.331,0.123-3.493,0.096c-1.97-0.045-3.532,0.664-4.65,2.299
		c-1.205,1.766-2.394,3.541-3.608,5.299c-0.634,0.916-0.709,1.893-0.402,2.922c0.117,0.393,0.281,0.768,0.425,1.158
		c-1.157,0.215-1.12,0.195-1.621-0.84c-0.399-0.824-0.488-1.578-0.203-2.492c0.594-1.898,0.6-3.852-0.066-5.742
		c-0.245-0.695-0.617-1.398-1.102-1.949c-0.987-1.117-1.216-2.377-1.101-3.795c0.042-0.531-0.012-1.113-0.193-1.61
		C6.826,18.76,6.252,16.25,6.839,13.6c0.825-3.714,4.49-6.327,8.28-5.91C16.288,7.819,17.166,8.466,17.573,9.539z"/>
	<path fill-rule="evenodd" clip-rule="evenodd" fill="#FFFFFF" d="M18.974,37.111c-0.991,0.295-1.514-0.061-1.876-0.916
		c-0.292-0.689-0.49-1.324-0.536-2.105c-0.075-1.285-0.467-2.557-0.793-3.816c-0.105-0.408-0.077-0.693,0.102-1.076
		c0.696-1.496,2.02-2.059,3.634-2.6c-0.117,0.846-0.154,1.566-0.325,2.25c-0.269,1.08-0.558,2.168-0.966,3.203
		c-0.552,1.396-0.377,2.703,0.249,4.004C18.628,36.398,18.796,36.742,18.974,37.111z"/>
	<path fill-rule="evenodd" clip-rule="evenodd" fill="#FFFFFF" d="M34.601,22.406c-0.743,0-1.366,0-2.066,0c0-0.853,0-1.668,0-2.531
		c1.16,0.301,2.364,0.614,3.65,0.947c0,0.331,0.014,0.763-0.002,1.19c-0.049,1.412-0.089,2.824-0.185,4.23
		c-0.016,0.24-0.277,0.65-0.433,0.654c-0.415,0.012-0.812-0.174-0.811-0.723c0.004-0.926,0.017-1.848-0.004-2.771
		C34.744,23.069,34.654,22.738,34.601,22.406z"/>
	<path fill-rule="evenodd" clip-rule="evenodd" fill="#FFFFFF" d="M33.984,9.55c0.734-0.101,1.44-0.198,2.107-0.29
		C35.18,10.112,34.532,10.212,33.984,9.55z"/>
</g>
</svg>
