<?xml version="1.0" encoding="utf-8"?>
<!-- Generator: Adobe Illustrator 16.0.0, SVG Export Plug-In . SVG Version: 6.00 Build 0)  -->
<!DOCTYPE svg PUBLIC "-//W3C//DTD SVG 1.1//EN" "http://www.w3.org/Graphics/SVG/1.1/DTD/svg11.dtd">
<svg version="1.1" id="Layer_1" xmlns="http://www.w3.org/2000/svg" xmlns:xlink="http://www.w3.org/1999/xlink" x="0px" y="0px"
	 width="48px" height="48px" viewBox="0 0 48 48" enable-background="new 0 0 48 48" xml:space="preserve">
<g>
	<g>
		<g>
			<path fill="#939598" d="M16.061,31.385c-0.235,0-0.474-0.009-0.711-0.026c-5.266-0.396-9.34-5.1-9.083-10.488
				c0.128-2.67,1.278-5.094,3.237-6.825c1.899-1.68,4.336-2.497,6.867-2.312l-0.225,3.005c-1.711-0.126-3.362,0.428-4.647,1.563
				c-1.344,1.189-2.134,2.863-2.224,4.713c-0.18,3.772,2.646,7.065,6.299,7.34c1.72,0.126,3.361-0.429,4.646-1.564
				c1.346-1.188,2.135-2.863,2.226-4.715l3.01,0.146c-0.129,2.67-1.279,5.094-3.239,6.827
				C20.496,30.568,18.334,31.385,16.061,31.385z"/>
		</g>
	</g>
	<g>
		<path fill="#939598" d="M33.721,48H0.219v-5.334c0-5.581,4.54-10.121,10.121-10.121H23.6c5.58,0,10.121,4.54,10.121,10.121V48z
			 M3.23,44.986h27.477v-2.32c0-3.919-3.188-7.108-7.107-7.108H10.34c-3.92,0-7.109,3.189-7.109,7.108V44.986z"/>
	</g>
	<g>
		<path fill="#939598" d="M18.678,22.821c-0.765,0-1.568-0.572-1.622-1.664c-0.021-0.383-0.018-2.439-0.016-3.194V2.504
			C17.04,1.123,18.246,0,19.725,0h25.371c1.48,0,2.686,1.123,2.686,2.504V17.72c0,1.382-1.205,2.506-2.686,2.506l-22.581-0.009
			c-0.062-0.002-0.455,0.005-0.84,0.307c-0.61,0.479-1.414,1.359-1.672,1.658C19.655,22.586,19.171,22.821,18.678,22.821z
			 M20.054,3.013l-0.001,14.958c0,0.003,0,0.006,0,0.009c1.05-0.717,2.106-0.776,2.423-0.776l22.292,0.009V3.013H20.054z"/>
	</g>
	<circle fill="#939598" cx="25.063" cy="10.5" r="2.375"/>
	<circle fill="#939598" cx="32.438" cy="10.5" r="2.375"/>
	<circle fill="#939598" cx="39.813" cy="10.5" r="2.375"/>
</g>
</svg>
