<?xml version="1.0" encoding="utf-8"?>
<!-- Generator: Adobe Illustrator 16.0.0, SVG Export Plug-In . SVG Version: 6.00 Build 0)  -->
<!DOCTYPE svg PUBLIC "-//W3C//DTD SVG 1.1//EN" "http://www.w3.org/Graphics/SVG/1.1/DTD/svg11.dtd">
<svg version="1.1" id="Layer_1" xmlns="http://www.w3.org/2000/svg" xmlns:xlink="http://www.w3.org/1999/xlink" x="0px" y="0px"
	 width="44px" height="44px" viewBox="0 0 44 44" enable-background="new 0 0 44 44" xml:space="preserve">
<circle fill="#E86F72" cx="22" cy="22.001" r="22"/>
<g>
	<path fill-rule="evenodd" clip-rule="evenodd" fill="#FFFFFF" d="M31.812,22.189c-0.433,0.83-0.763,1.609-1.22,2.305
		c-0.594,0.898-1.463,1.5-2.461,1.915c-0.452,0.188-0.915,0.374-1.324,0.637c-0.742,0.479-0.799,0.89-0.147,1.479
		c1.229,1.114,2.512,2.171,3.76,3.265c0.348,0.305,0.728,0.611,0.964,0.995c0.393,0.635,0.08,1.276-0.73,1.534
		c0.04-1.51-1.235-1.701-2.212-2.11c-1.983-0.83-3.598-2.175-5.229-3.508c-0.552-0.451-0.727-1.024-0.411-1.693
		c0.388-0.821,0.79-1.638,1.231-2.551c-2.438-1.755-5.167-2.755-8.382-2.513c-0.065,4.291-2.288,7.572-4.978,10.723
		c1.106,0.099,2.048,0.399,2.733,1.39c-1.48,0-2.875,0.013-4.269-0.021c-0.128-0.004-0.37-0.313-0.354-0.459
		c0.059-0.526,0.132-1.075,0.336-1.56c0.232-0.554,0.587-1.063,0.927-1.567c2.285-3.382,2.644-6.855,0.614-10.504
		c-1.52-2.73-2.31-5.649-2.223-8.811c0.159-5.661,6.704-7.865,10.321-5.833c0.733,0.411,1.414,1.024,1.929,1.69
		c1.218,1.572,1.016,3.604-0.442,4.956c-1.369,1.269-3.048,1.701-4.877,1.506c-0.777-0.083-1.374-0.527-1.54-1.335
		c-0.21-1.025-0.035-1.985,0.826-2.672c0.611-0.488,1.316-0.444,2.078-0.205c-0.474,0.453-0.94,0.788-1.248,1.232
		c-0.211,0.305-0.4,0.905-0.246,1.118c0.228,0.315,0.767,0.557,1.176,0.561c1.261,0.012,2.63-1.208,2.916-2.466
		c0.256-1.129-0.381-2.344-1.582-3.015c-2.279-1.274-5.298-0.39-6.455,1.953c-0.868,1.759-1.047,3.641-0.607,5.548
		c0.383,1.661,1.32,2.205,2.997,1.946c1.433-0.22,2.874-0.448,4.318-0.518c2.671-0.129,5.115,0.773,7.476,1.908
		c1.112,0.535,2.184,1.156,3.274,1.739c0.6-1.465,1.483-2.027,3.076-1.833c0.687,0.084,1.365,0.316,2.019,0.56
		c0.244,0.091,0.557,0.394,0.575,0.622c0.045,0.571,0.376,0.786,0.818,1c0.265,0.129,0.579,0.332,0.679,0.579
		c0.154,0.384,0.271,0.872,0.158,1.242c-0.073,0.242-0.562,0.441-0.894,0.505c-0.571,0.111-1.165,0.101-1.749,0.144
		C32.851,22.107,32.269,22.154,31.812,22.189z M31.53,18.669c-0.457-0.41-0.973-0.405-1.201,0.133
		c-0.249,0.586-0.151,1.159,0.311,1.611c0.44,0.431,0.955,0.526,1.603,0.156c-0.807-0.167-1.374-0.533-1.343-1.34
		C30.907,19.032,31.316,18.849,31.53,18.669z"/>
	<path fill-rule="evenodd" clip-rule="evenodd" fill="#FFFFFF" d="M16.25,22.629c1.504-0.111,2.822,0.164,4.093,0.656
		c0.179,0.068,0.337,0.414,0.355,0.644c0.248,3.155-0.603,5.965-2.711,8.361c-0.104,0.117-0.2,0.24-0.351,0.423
		c1.119,0.064,2.041,0.358,2.723,1.322c-1.503,0-2.932,0-4.421,0c-0.04-1.201,0.146-2.301,0.786-3.257
		c1.7-2.545,1.5-4.999-0.229-7.428C16.366,23.17,16.342,22.915,16.25,22.629z"/>
	<path fill-rule="evenodd" clip-rule="evenodd" fill="#FFFFFF" d="M37.271,32.944c0.051-1.219-0.806-1.436-1.643-1.611
		c-1.917-0.398-3.581-1.335-5.196-2.38c-0.765-0.495-1.328-1.156-1.665-1.915c0.85-0.688,1.658-1.342,2.472-2
		c-0.026-0.026-0.001-0.013,0.006,0.006c0.699,2.565,2.579,4.029,4.805,5.183c0.558,0.289,1.134,0.585,1.604,0.989
		C38.295,31.773,38.143,32.532,37.271,32.944z"/>
</g>
</svg>
