<?xml version="1.0" encoding="utf-8"?>
<!-- Generator: Adobe Illustrator 16.0.0, SVG Export Plug-In . SVG Version: 6.00 Build 0)  -->
<!DOCTYPE svg PUBLIC "-//W3C//DTD SVG 1.1//EN" "http://www.w3.org/Graphics/SVG/1.1/DTD/svg11.dtd">
<svg version="1.1" id="Layer_1" xmlns="http://www.w3.org/2000/svg" xmlns:xlink="http://www.w3.org/1999/xlink" x="0px" y="0px"
	 width="44px" height="44px" viewBox="0 0 44 44" enable-background="new 0 0 44 44" xml:space="preserve">
<circle fill="#E86F72" cx="22" cy="22.001" r="22"/>
<g>
	<path fill-rule="evenodd" clip-rule="evenodd" fill="#FFFFFF" d="M20.948,18.341c0.51,1.685,1.728,2.72,3.277,3.304
		c0.432,0.162,1.076-0.255,1.625-0.398c0.224-0.06,0.485-0.194,0.674-0.129c2.126,0.727,4.201,1.57,6.045,2.887
		c1.447,1.033,2.604,2.307,3.107,4.053c0.764,2.654,0.016,4.881-2.024,6.689c-1.522,1.35-3.363,1.998-5.345,2.277
		c-3.404,0.479-6.619-0.077-9.653-1.729c-2.641-1.436-3.933-3.695-4.16-6.615c-0.137-1.774-0.102-3.565-0.312-5.33
		c-0.116-0.981-0.462-1.978-0.909-2.865c-0.478-0.951-1.473-1.306-2.34-1.1c-0.978,0.232-1.834,1.052-1.885,2.06
		c-0.045,0.86,0.075,1.751,0.255,2.6c0.465,2.214,1.071,4.399,1.481,6.623c0.167,0.907,0.03,1.887-0.075,2.82
		c-0.068,0.594-0.385,1.124-1.022,1.426c0.058-0.739,0.111-1.423,0.163-2.105c-0.421,1.065-0.782,2.09-1.748,2.827
		c0.275-1.42,0.54-2.785,0.804-4.149c-0.048-0.021-0.094-0.042-0.142-0.063c-0.224,0.188-0.448,0.377-0.833,0.7
		c0.183-0.941,0.328-1.687,0.485-2.493c-0.182,0.081-0.281,0.123-0.4,0.176c0.034-0.263,0.088-0.511,0.094-0.76
		c0.042-1.94,0.03-3.885,0.127-5.824c0.057-1.097,0.176-2.215,0.471-3.269c0.329-1.185,1.176-1.974,2.466-2.148
		c1.358-0.185,2.398,0.352,3.146,1.464c1.074,1.6,1.416,3.45,1.698,5.304c0.377,2.49,1.091,4.842,2.832,6.735
		c0.611,0.662,1.388,1.169,2.089,1.748c0.04-0.047,0.079-0.096,0.12-0.144c-0.033-0.365-0.065-0.731-0.088-0.992
		c1.182,0.58,2.341,1.146,3.639,1.781c-0.249-0.695-0.411-1.151-0.575-1.606c1.36,0.506,2.603,1.064,4.007,0.416
		c-0.296-0.315-0.574-0.613-0.988-1.056c1.721-0.085,3.108-0.458,3.9-1.907c-0.606,0.23-1.225,0.465-2.026,0.771
		c0.541-1.315,0.598-2.416,0.041-3.498c-0.33,0.54-0.649,1.061-0.968,1.582c-0.31-1.495-1.098-2.579-2.021-3.637
		c-0.11,0.653-0.214,1.264-0.32,1.892c-1.044-1.212-2.023-2.35-3.005-3.486c-0.042,0.035-0.085,0.072-0.126,0.107
		c0,0.57,0,1.142,0,1.711c-0.083,0.035-0.169,0.071-0.254,0.106c-0.731-0.927-1.461-1.854-2.168-2.753
		c-0.162,0.332-0.34,0.699-0.584,1.198c-0.872-1.353-1.162-2.739-1.389-4.203c-0.142,0.326-0.282,0.652-0.425,0.984
		c-0.567-0.893-0.553-1.692,0.128-3.375c-0.384,0.312-0.626,0.496-0.855,0.696c-0.241,0.212-0.467,0.439-0.71,0.67
		c-0.201-0.816-0.011-1.35,1.063-2.896c-0.37,0.17-0.635,0.282-0.89,0.411c-0.247,0.125-0.484,0.267-0.828,0.458
		c0.474-1.438,1.443-2.289,2.614-3.012c-0.35,0.024-0.7,0.048-1.216,0.083c1.48-1.397,3.09-1.74,4.927-1.511
		c-0.386-0.122-0.767-0.261-1.158-0.361c-0.424-0.108-0.854-0.179-1.424-0.293c1.741-1.016,3.498-1.184,5.402-1.053
		c-0.439-0.251-0.879-0.501-1.317-0.752c1.01-0.455,2.586-0.055,4.74,1.225c0.026-0.152,0.049-0.281,0.099-0.578
		c0.618,0.353,1.177,0.674,1.737,0.996c0.034-0.035,0.071-0.069,0.105-0.105c-0.367-0.286-0.718-0.601-1.103-0.856
		c-1.233-0.812-2.489-1.589-3.714-2.411c-0.264-0.174-0.439-0.478-0.556-0.849c1.318,0.293,2.18,1.327,3.3,1.964
		c-0.157-0.455-0.309-0.898-0.462-1.342c0.07-0.044,0.142-0.089,0.213-0.135c0.155,0.133,0.317,0.258,0.465,0.398
		c0.88,0.836,1.763,1.668,2.627,2.519c0.346,0.34,0.62,0.75,0.97,1.083c0.445,0.424,0.957,0.778,1.392,1.209
		c0.234,0.231,0.363,0.564,0.549,0.846c0.313,0.478,0.635,0.951,1.042,1.379c0.339-1.036,0.064-1.916-0.423-2.779
		c-0.419-0.738-0.739-1.534-1.179-2.256c-0.317-0.52-0.752-0.972-1.157-1.433c-0.17-0.191-0.406-0.325-0.578-0.523
		c0.953,0.488,1.777,1.086,2.185,2.157c0.201,0.529,0.52,1.035,0.874,1.479c0.757,0.945,1.146,1.989,1.105,3.202
		c-0.006,0.21,0.063,0.464,0.188,0.628c0.38,0.495,0.176,1.012-0.11,1.334c-0.243,0.271-0.769,0.289-1.171,0.41
		c-0.019,0.004-0.056-0.124-0.104-0.147c-0.294-0.15-0.593-0.289-1.064-0.516c-0.533-0.428-1.239-0.999-1.99-1.604
		c-0.154,0.102-0.314,0.21-0.507,0.337c-0.037-0.112-0.046-0.206-0.094-0.275c-0.156-0.231-0.326-0.455-0.49-0.682
		c-0.213,0.227-0.527,0.422-0.612,0.689c-0.077,0.25-0.003,0.671,0.173,0.846c0.245,0.243,0.635,0.381,0.986,0.464
		c0.854,0.2,1.554,0.583,1.97,1.404c0.159-0.093,0.289-0.17,0.429-0.252c0.139,0.729,0.34,0.833,1.012,0.524
		c0.086,0.579,0.246,1.151-0.454,1.568c0-0.201,0-0.357,0-0.524c-0.359,0.104-0.679,0.195-1.1,0.317
		c0.094-0.252,0.144-0.386,0.185-0.496c-0.451-0.088-0.891-0.173-1.332-0.259c0.008-0.065,0.017-0.13,0.025-0.194
		c0.168-0.025,0.337-0.051,0.506-0.077c0.019-0.054,0.038-0.109,0.055-0.164c-0.978-0.405-1.955-0.811-3.069-1.274
		c0.314-0.069,0.478-0.105,0.615-0.134c-0.9-0.471-1.812-0.946-2.753-1.438c0.258-0.055,0.511-0.107,0.859-0.183
		c-0.38-0.174-0.669-0.308-0.958-0.442c0.008-0.033,0.016-0.066,0.022-0.099c0.29,0,0.58,0,0.87,0
		c0.006-0.037,0.012-0.074,0.017-0.11c-0.493-0.135-0.987-0.27-1.573-0.43c0.165-0.106,0.26-0.167,0.357-0.229
		c-0.025-0.031-0.044-0.085-0.073-0.091c-1.353-0.286-3.403,0.635-4.051,1.872c-0.595,1.134-0.167,2.156,0.481,3.113
		c0.515,0.761,1.175,1.227,2.167,1.012c0.784-0.17,1.193-0.639,1.179-1.305c-0.008-0.378,0.105-0.76,0.162-1.14
		c0.509,0.113,1.018,0.226,1.525,0.339c-0.021,0.091-0.04,0.183-0.06,0.273c-0.179-0.031-0.4-0.139-0.527-0.072
		c-0.182,0.094-0.295,0.317-0.438,0.486c0.172,0.132,0.329,0.33,0.521,0.375c0.181,0.041,0.398-0.081,0.603-0.127
		c0.937-0.216,1.068-0.124,1.268,0.974c-0.539-0.505-1.045-0.455-1.55-0.041c0.439,0.404,1.51,0.068,1.313,1.131
		c-0.032,0.173-0.355,0.291-0.664,0.526c0.085-0.605,0.113-1-0.511-0.766c-0.063,0.024-0.156,0.044-0.204,0.016
		c-0.744-0.443-1.228,0.086-1.806,0.421c-1.485,0.859-2.166,0.754-3.379-0.466C21.962,19.543,21.469,18.93,20.948,18.341z"/>
</g>
</svg>
