<?xml version="1.0" encoding="utf-8"?>
<!-- Generator: Adobe Illustrator 16.0.0, SVG Export Plug-In . SVG Version: 6.00 Build 0)  -->
<!DOCTYPE svg PUBLIC "-//W3C//DTD SVG 1.1//EN" "http://www.w3.org/Graphics/SVG/1.1/DTD/svg11.dtd">
<svg version="1.1" id="Layer_1" xmlns="http://www.w3.org/2000/svg" xmlns:xlink="http://www.w3.org/1999/xlink" x="0px" y="0px"
	 width="44px" height="44px" viewBox="0 0 44 44" enable-background="new 0 0 44 44" xml:space="preserve">
<circle fill="#E86F72" cx="22" cy="22.001" r="22"/>
<g>
	<path fill-rule="evenodd" clip-rule="evenodd" fill="#FFFFFF" d="M8.951,33.619c-0.896-0.345-1.244-0.963-1.289-1.749
		c-0.066-1.162,1.024-1.8,2.203-1.245c0.506,0.238,0.939,0.652,1.369,1.029c0.56,0.492,1.179,0.854,1.931,0.743
		c0.318-0.046,0.733-0.284,0.855-0.551c0.099-0.213-0.093-0.69-0.306-0.888c-0.432-0.4-0.947-0.726-1.461-1.022
		c-1.971-1.14-3.498-2.635-4.009-4.944c-0.689-3.117,1.737-6.191,4.815-6.115c1.161,0.028,2.221,0.446,2.97,1.287
		c0.893,1.003,1.664,2.131,2.381,3.271c0.548,0.872,0.866,1.889,1.403,2.77c1.26,2.066,3.06,3.426,5.496,3.799
		c1.803,0.277,3.867-0.8,4.72-2.389c0.887-1.651,0.72-3.546-0.7-4.978c-0.957-0.968-2.105-1.792-3.288-2.477
		c-1.348-0.78-2.835-1.317-4.249-1.988c-1.605-0.765-2.716-1.967-3.099-3.746c-0.898-4.185,2.698-7.922,6.931-7.075
		c1.488,0.298,2.899,0.999,4.328,1.561c0.529,0.21,0.979,0.682,1.517,0.81c1.942,0.463,2.52,2.199,3.488,3.574
		c0.103,0.147,0.23,0.341,0.213,0.498c-0.039,0.359-0.064,0.8-0.282,1.033c-0.157,0.168-0.7,0.19-0.923,0.047
		c-1.456-0.923-2.885-1.89-4.293-2.881c-0.714-0.503-1.327-1.153-2.06-1.621c-1.409-0.897-2.897-0.824-4.343-0.071
		c-1.54,0.802-2.011,2.563-0.927,3.91c0.69,0.859,1.585,1.625,2.533,2.185c1.24,0.73,2.615,1.244,3.952,1.804
		c1.837,0.768,3.49,1.778,4.718,3.383c1.481,1.932,2.192,4.08,1.45,6.473c-0.278,0.896-0.774,1.794-1.386,2.506
		c-2.535,2.944-7.639,4.236-11.295,2.955c-2.38-0.834-4.041-2.429-4.978-4.768c-0.266-0.661-0.475-1.345-0.72-2.014
		c-0.464-1.271-1.074-2.455-2.095-3.372c-0.914-0.819-1.948-1.113-3.126-0.603c-0.657,0.283-1.016,0.775-1.023,1.499
		c-0.014,1.394,0.577,2.495,1.663,3.334c0.565,0.435,1.187,0.796,1.748,1.236c0.944,0.741,1.565,1.689,1.63,2.925
		c0.05,0.974-0.42,1.597-1.372,1.775c-1.42,0.267-2.65-0.085-3.607-1.217c-0.148-0.176-0.269-0.421-0.459-0.507
		c-0.325-0.148-0.856-0.382-1.01-0.249c-0.272,0.238-0.414,0.721-0.441,1.112C8.502,32.942,8.766,33.235,8.951,33.619z"/>
</g>
</svg>
