<?xml version="1.0" encoding="utf-8"?>
<!-- Generator: Adobe Illustrator 16.0.0, SVG Export Plug-In . SVG Version: 6.00 Build 0)  -->
<!DOCTYPE svg PUBLIC "-//W3C//DTD SVG 1.1//EN" "http://www.w3.org/Graphics/SVG/1.1/DTD/svg11.dtd">
<svg version="1.1" id="Layer_1" xmlns="http://www.w3.org/2000/svg" xmlns:xlink="http://www.w3.org/1999/xlink" x="0px" y="0px"
	 width="44px" height="44px" viewBox="0 0 44 44" enable-background="new 0 0 44 44" xml:space="preserve">
<circle fill="#E86F72" cx="22" cy="22.001" r="22"/>
<g>
	<path fill-rule="evenodd" clip-rule="evenodd" fill="#FFFFFF" d="M12.806,35.314c-0.751,0-1.505,0.039-2.251-0.025
		c-0.207-0.017-0.463-0.301-0.57-0.523c-0.668-1.406-0.481-2.878-0.359-4.369c0.283-3.466,0.486-6.939,0.684-10.412
		c0.018-0.313-0.165-0.699-0.372-0.955c-1.634-2.014-2.146-4.233-1.216-6.689c0.973-2.571,3.947-3.852,6.383-2.752
		c-0.385,0.141-0.741,0.25-1.08,0.399c-2.41,1.063-3.394,3.87-2.197,6.194c0.209,0.406,0.447,0.544,0.912,0.483
		c1.639-0.216,3.244-0.071,4.816,0.491c0.728,0.26,1.495,0.45,2.26,0.556c3.175,0.437,5.449-0.906,7.033-3.617
		c1.066-1.826,2.165-3.634,3.311-5.411c0.368-0.572,0.929-1.022,1.43-1.559c0.591,0.695,0.206,1.238-0.017,1.844
		c1.217,0.281,2.156,0.895,2.646,2.08c0.054,0.129,0.319,0.198,0.498,0.243c0.661,0.165,1.327,0.306,1.99,0.459
		c0.65,0.151,0.898,0.508,0.573,1.089c-0.243,0.434-0.671,0.935-1.11,1.05c-1.091,0.288-2.238,0.506-3.356,0.484
		c-0.638-0.013-1.262-0.555-1.83-0.829c-0.079,0.753,0.361,1.133,2.268,1.717c0.016,0.062,0.056,0.136,0.043,0.198
		c-0.423,1.998-0.321,4.002-0.215,6.027c0.177,3.359-2.702,6.204-6.063,6.163c-0.071-0.002-0.143,0.012-0.303,0.026
		c-0.587,1.9-0.936,3.842-0.359,5.825c0.094,0.33,0.576,0.551,0.887,0.816c0.275,0.236,0.558,0.466,0.839,0.699
		c-0.044,0.09-0.088,0.179-0.132,0.269c-0.834,0-1.686,0.1-2.493-0.049c-0.319-0.059-0.689-0.631-0.778-1.025
		c-0.353-1.563-0.611-3.146-0.883-4.726c-0.082-0.478-0.172-0.978-0.119-1.452c0.093-0.863-0.336-1.163-1.09-1.367
		c-1.359-0.367-2.679-0.88-4.041-1.236c-1.605-0.422-3.102-0.017-4.049,1.326c-1.156,1.637-2.088,3.437-3.077,5.188
		c-0.181,0.323-0.196,0.749-0.24,1.135c-0.078,0.676,0.051,1.173,0.906,1.266c0.324,0.037,0.606,0.451,0.907,0.691
		C12.928,35.13,12.867,35.222,12.806,35.314z"/>
	<path fill-rule="evenodd" clip-rule="evenodd" fill="#FFFFFF" d="M19.621,26.328c-0.958,1.579-1.879,2.979-2.67,4.449
		c-0.383,0.71-0.583,1.54-0.753,2.339c-0.133,0.627,0.048,1.153,0.872,1.199c0.52,0.03,0.818,0.366,0.842,0.998
		c-0.808,0-1.584,0.032-2.354-0.023c-0.191-0.013-0.433-0.271-0.531-0.476c-0.61-1.281-0.583-2.637-0.416-4.006
		c0.101-0.82,0.192-1.644,0.246-2.469c0.086-1.326,0.93-2.25,2.294-2.283C17.958,26.036,18.771,26.228,19.621,26.328z"/>
	<path fill-rule="evenodd" clip-rule="evenodd" fill="#FFFFFF" d="M31.506,26.826c-0.201,1.17-0.453,2.452-0.633,3.746
		c-0.084,0.62-0.077,1.265-0.031,1.891c0.063,0.863,0.281,1.614,1.36,1.784c0.279,0.045,0.487,0.524,0.731,0.802
		c-0.048,0.079-0.097,0.157-0.144,0.234c-0.883,0-1.773,0.066-2.642-0.041c-0.259-0.033-0.587-0.528-0.66-0.86
		c-0.339-1.539-0.608-3.093-0.883-4.645c-0.076-0.428-0.083-0.867-0.112-1.178C29.562,27.945,30.561,27.37,31.506,26.826z"/>
	<path fill-rule="evenodd" clip-rule="evenodd" fill="#FFFFFF" d="M33.384,7.532c0.021,0.403,0.04,0.806,0.069,1.363
		c-0.389-0.171-0.616-0.272-0.981-0.433c0.218-0.365,0.407-0.684,0.599-1.004C33.174,7.483,33.278,7.508,33.384,7.532z"/>
</g>
</svg>
