<?xml version="1.0" encoding="utf-8"?>
<!-- Generator: Adobe Illustrator 16.0.0, SVG Export Plug-In . SVG Version: 6.00 Build 0)  -->
<!DOCTYPE svg PUBLIC "-//W3C//DTD SVG 1.1//EN" "http://www.w3.org/Graphics/SVG/1.1/DTD/svg11.dtd">
<svg version="1.1" id="Layer_1" xmlns="http://www.w3.org/2000/svg" xmlns:xlink="http://www.w3.org/1999/xlink" x="0px" y="0px"
	 width="36px" height="36px" viewBox="0 0 36 36" enable-background="new 0 0 36 36" xml:space="preserve">
<g>
	<circle fill="#33CCFF" cx="17.792" cy="18" r="17.409"/>
	<g>
		<path fill="#FFFFFF" d="M28.143,12.26c-0.681,0.308-1.32,0.495-2.055,0.618c0.35-0.059,0.92-0.69,1.125-0.945
			c0.313-0.39,0.603-0.834,0.749-1.313c0.019-0.038,0.047-0.085,0.009-0.113c-0.047-0.019-0.07-0.009-0.107,0.01
			c-0.82,0.439-1.666,0.759-2.569,0.984c-0.075,0.019-0.129,0-0.176-0.047c-0.075-0.085-0.145-0.164-0.224-0.229
			c-0.38-0.323-0.787-0.577-1.246-0.765c-0.604-0.245-1.262-0.35-1.911-0.308c-0.632,0.041-1.253,0.22-1.813,0.513
			c-0.562,0.294-1.064,0.702-1.463,1.194c-0.413,0.511-0.717,1.112-0.874,1.75c-0.15,0.616-0.138,1.226-0.046,1.848
			c0.014,0.104,0.005,0.117-0.089,0.104c-3.534-0.526-6.463-1.791-8.841-4.5c-0.104-0.118-0.159-0.118-0.244,0.009
			c-1.041,1.56-0.536,4.065,0.764,5.297c0.173,0.164,0.352,0.328,0.543,0.479c-0.07,0.015-0.935-0.079-1.706-0.479
			c-0.104-0.065-0.155-0.027-0.165,0.09c-0.009,0.168,0.005,0.323,0.028,0.506c0.2,1.581,1.295,3.044,2.794,3.614
			c0.178,0.075,0.375,0.141,0.567,0.173c-0.342,0.075-0.694,0.129-1.673,0.052c-0.122-0.023-0.168,0.037-0.122,0.155
			c0.736,2.006,2.326,2.604,3.516,2.943c0.16,0.028,0.319,0.028,0.479,0.065c-0.01,0.015-0.019,0.015-0.028,0.028
			c-0.395,0.602-1.763,1.05-2.401,1.272c-1.159,0.405-2.421,0.587-3.646,0.467c-0.196-0.029-0.237-0.026-0.291,0
			c-0.054,0.033-0.007,0.08,0.056,0.131c0.249,0.164,0.502,0.31,0.759,0.45c0.778,0.412,1.589,0.74,2.438,0.975
			c4.38,1.21,9.315,0.321,12.604-2.947c2.583-2.565,3.488-6.104,3.488-9.647c0-0.139,0.164-0.216,0.261-0.289
			c0.672-0.505,0.983-1.108,1.484-1.783C28.23,12.469,28,12.334,28,12.278c0-0.01,0-0.019,0-0.019
			C28,12.203,28.23,12.22,28.143,12.26z"/>
		<path fill-rule="evenodd" clip-rule="evenodd" fill="#FFFFFF" d="M13.789,27.839C15.605,27.839,13.875,27.839,13.789,27.839
			C14.028,27.839,13.779,27.839,13.789,27.839z"/>
		<path fill-rule="evenodd" clip-rule="evenodd" fill="#FFFFFF" d="M13.789,27.839C13.76,27.841,13.435,27.839,13.789,27.839
			C13.789,27.839,13.732,27.839,13.789,27.839z"/>
		<path fill-rule="evenodd" clip-rule="evenodd" fill="#FFFFFF" d="M14.51,27.857C14.51,27.821,14.89,27.857,14.51,27.857
			C14.51,27.839,14.557,27.857,14.51,27.857z"/>
		<path fill-rule="evenodd" clip-rule="evenodd" fill="#FFFFFF" d="M22.094,10.278c-0.023,0.02-0.056,0.02-0.088,0
			C22.039,10.278,22.071,10.278,22.094,10.278z"/>
	</g>
</g>
</svg>
