<?xml version="1.0" encoding="utf-8"?>
<!-- Generator: Adobe Illustrator 16.0.0, SVG Export Plug-In . SVG Version: 6.00 Build 0)  -->
<!DOCTYPE svg PUBLIC "-//W3C//DTD SVG 1.1//EN" "http://www.w3.org/Graphics/SVG/1.1/DTD/svg11.dtd">
<svg version="1.1" id="Layer_1" xmlns="http://www.w3.org/2000/svg" xmlns:xlink="http://www.w3.org/1999/xlink" x="0px" y="0px"
	 width="44px" height="44px" viewBox="0 0 44 44" enable-background="new 0 0 44 44" xml:space="preserve">
<circle fill="#E86F72" cx="22" cy="22.001" r="22"/>
<g>
	<path fill-rule="evenodd" clip-rule="evenodd" fill="#FFFFFF" d="M26.365,10.529c-0.684-0.087-1.287-0.272-1.144-1.174
		c0.118-0.75,0.528-1.087,1.24-0.843c0.667,0.23,1.293,0.591,2.002,0.926c0.676-0.787,1.642-0.939,2.716-1.04
		c1.215-0.113,2.4-0.525,3.679-0.826c-0.127,0.224-0.232,0.41-0.394,0.692c0.27-0.137,0.45-0.229,0.673-0.341
		c0.254,0.704,0.061,1.314-0.35,1.818c-0.853,1.05-1.738,2.078-2.666,3.062c-0.347,0.366-0.827,0.631-1.287,0.862
		c-1.645,0.829-2.498,0.515-3.295-1.217c-0.104,0.811,0.147,1.398,0.787,1.81c0.876,0.563,1.702,0.436,3.344-0.561
		c-0.225,1.512-0.424,2.935-0.653,4.353c-0.192,1.196-0.474,2.381-0.612,3.581c-0.069,0.611-0.002,1.273,0.162,1.869
		c0.404,1.467,1.185,2.849,0.945,4.449c-0.06,0.393-0.173,0.776-0.264,1.163c-0.092,0.002-0.187,0.005-0.281,0.007
		c-0.274-1.078-0.549-2.158-0.824-3.235c-0.068,0.011-0.141,0.021-0.21,0.032c-0.071,1.241-0.179,2.483-0.208,3.728
		c-0.048,2.038-1.162,3.383-2.699,4.423c0.064-1.047,0.214-2.105,0.177-3.157c-0.067-1.985-1.188-3.015-3.169-3.056
		c-1.972-0.037-3.563,0.682-4.917,2.303c0.177-0.12,0.354-0.238,0.53-0.358c1.287-0.879,2.643-1.553,4.262-1.488
		c1.521,0.062,2.471,0.739,2.671,2.251c0.146,1.13-0.011,2.302-0.068,3.452c-0.019,0.363-0.15,0.716-0.233,1.078
		c1.761,0.194,1.99,0.336,2.171,1.397c-0.252,0-0.489,0-0.726,0c-2.748,0-5.495,0-8.242,0c-2.403,0-3.975-1.088-4.757-3.37
		C13.937,30.829,14,28.492,14.51,26.16c0.69-3.16,2.459-5.647,4.965-7.615c1.243-0.975,2.58-1.832,3.889-2.719
		c0.697-0.472,1.199-1.044,1.499-1.859C25.292,12.811,25.847,11.702,26.365,10.529z"/>
	<path fill-rule="evenodd" clip-rule="evenodd" fill="#FFFFFF" d="M7.441,14.359c-0.91-1.263-0.941-3.375,0.007-4.85
		c0.942-1.465,2.775-2.258,4.436-1.92c1.79,0.364,3.308,1.907,3.591,3.638c0.219,1.339-0.001,2.638-0.538,3.845
		c-0.61,1.373-1.367,2.681-2.06,4.018c-0.705,1.359-1.52,2.674-2.093,4.085c-1.353,3.338-0.252,7.036,2.605,9.229
		c0.22,0.169,0.404,0.421,0.526,0.672c0.321,0.663,0.6,1.35,0.938,2.124c-0.259-0.097-0.497-0.17-0.721-0.27
		c-4.242-1.883-6.322-6.609-4.977-11.309c0.689-2.409,2.034-4.492,3.256-6.641c0.62-1.089,1.227-2.215,1.622-3.396
		c0.463-1.381,0.148-2.708-0.981-3.727c-0.962-0.868-2.104-1.091-3.321-0.678c-1.458,0.495-2.111,1.657-2.277,3.103
		C7.374,13.004,7.441,13.741,7.441,14.359z"/>
	<path fill-rule="evenodd" clip-rule="evenodd" fill="#FFFFFF" d="M31.267,21.376c0.83,1.865,2.034,3.525,1.181,5.682
		c-0.278-0.918-0.56-1.834-0.836-2.753C31.334,23.391,30.73,22.519,31.267,21.376z"/>
	<path fill-rule="evenodd" clip-rule="evenodd" fill="#FFFFFF" d="M30.837,36.395c-0.295,0-0.589-0.025-0.881,0.004
		c-0.484,0.055-0.687-0.12-0.896-0.599c-0.229-0.523-0.744-0.925-1.171-1.423c0.198-0.18,0.505-0.457,0.807-0.731
		c0.058,0.037,0.128,0.065,0.125,0.084c-0.104,0.823,0.134,1.293,1.062,1.449c0.422,0.071,0.764,0.62,1.141,0.952
		C30.96,36.217,30.898,36.306,30.837,36.395z"/>
</g>
</svg>
