<?xml version="1.0" encoding="utf-8"?>
<!-- Generator: Adobe Illustrator 16.0.0, SVG Export Plug-In . SVG Version: 6.00 Build 0)  -->
<!DOCTYPE svg PUBLIC "-//W3C//DTD SVG 1.1//EN" "http://www.w3.org/Graphics/SVG/1.1/DTD/svg11.dtd">
<svg version="1.1" id="Layer_1" xmlns="http://www.w3.org/2000/svg" xmlns:xlink="http://www.w3.org/1999/xlink" x="0px" y="0px"
	 width="36px" height="36px" viewBox="0 0 36 36" enable-background="new 0 0 36 36" xml:space="preserve">
<g>
	<circle fill="#FF0000" cx="18" cy="18" r="17.408"/>
	<g>
		<path fill="#FFFFFF" d="M30,14.725C30,12.115,27.885,10,25.275,10H12.725C10.115,10,8,12.115,8,14.725v5.551
			C8,22.885,10.115,25,12.725,25h12.551C27.885,25,30,22.885,30,20.275V14.725z M21.283,18.371L16.4,21.051
			c-0.213,0.114-0.4-0.039-0.4-0.281v-5.501c0-0.245,0.193-0.398,0.406-0.277l4.919,2.821
			C21.542,17.938,21.504,18.252,21.283,18.371z"/>
	</g>
</g>
</svg>
